0
SECTION
2
HEADER
9
$INSUNITS
70
4
9
$ACADVER
1
AC1014
9
$HANDSEED
5
FFFF
0
ENDSEC
0
SECTION
2
TABLES
0
TABLE
2
VPORT
5
8
100
AcDbSymbolTable
0
ENDTAB
0
TABLE
2
LTYPE
5
5
100
AcDbSymbolTable
0
LTYPE
5
14
100
AcDbSymbolTableRecord
100
AcDbLinetypeTableRecord
2
BYBLOCK
70
0
0
LTYPE
5
15
100
AcDbSymbolTableRecord
100
AcDbLinetypeTableRecord
2
BYLAYER
70
0
0
ENDTAB
0
TABLE
2
LAYER
5
2
100
AcDbSymbolTable
70
2
0
LAYER
5
50
100
AcDbSymbolTableRecord
100
AcDbLayerTableRecord
2
0
70
0
6
CONTINUOUS
0
ENDTAB
0
TABLE
2
STYLE
5
3
100
AcDbSymbolTable
70
1
0
STYLE
5
11
100
AcDbSymbolTableRecord
100
AcDbTextStyleTableRecord
2
STANDARD
70
0
0
ENDTAB
0
TABLE
2
VIEW
5
6
100
AcDbSymbolTable
70
0
0
ENDTAB
0
TABLE
2
UCS
5
7
100
AcDbSymbolTable
70
0
0
ENDTAB
0
TABLE
2
APPID
5
9
100
AcDbSymbolTable
70
2
0
APPID
5
12
100
AcDbSymbolTableRecord
100
AcDbRegAppTableRecord
2
ACAD
70
0
0
ENDTAB
0
TABLE
2
DIMSTYLE
5
A
100
AcDbSymbolTable
70
1
0
ENDTAB
0
TABLE
2
BLOCK_RECORD
5
1
100
AcDbSymbolTable
70
1
0
BLOCK_RECORD
5
1F
100
AcDbSymbolTableRecord
100
AcDbBlockTableRecord
2
*MODEL_SPACE
0
BLOCK_RECORD
5
1B
100
AcDbSymbolTableRecord
100
AcDbBlockTableRecord
2
*PAPER_SPACE
0
ENDTAB
0
ENDSEC
0
SECTION
2
BLOCKS
0
BLOCK
5
20
100
AcDbEntity
100
AcDbBlockBegin
2
*MODEL_SPACE
0
ENDBLK
5
21
100
AcDbEntity
100
AcDbBlockEnd
0
BLOCK
5
1C
100
AcDbEntity
100
AcDbBlockBegin
2
*PAPER_SPACE
0
ENDBLK
5
1D
100
AcDbEntity
100
AcDbBlockEnd
0
ENDSEC
0
SECTION
2
ENTITIES
0
CIRCLE
5
100
100
AcDbEntity
8
0
100
AcDbCircle
10
-15.249999999999542
20
-35.166223354610686
30
0
40
1.5500000000000003
210
0
220
-0
230
1
0
CIRCLE
5
101
100
AcDbEntity
8
0
100
AcDbCircle
10
15.250000000000403
20
55.687665161456536
30
0
40
1.5500000000000025
210
0
220
-0
230
1
0
CIRCLE
5
102
100
AcDbEntity
8
0
100
AcDbCircle
10
15.250000000000401
20
35.187665161456536
30
0
40
1.5500000000000025
210
0
220
-0
230
1
0
CIRCLE
5
103
100
AcDbEntity
8
0
100
AcDbCircle
10
-15.249999999999552
20
-55.666223354610693
30
0
40
1.5500000000000025
210
0
220
-0
230
1
0
CIRCLE
5
104
100
AcDbEntity
8
0
100
AcDbCircle
10
15.250000000000451
20
-35.166223354610686
30
0
40
1.5500000000000003
210
0
220
-0
230
1
0
CIRCLE
5
105
100
AcDbEntity
8
0
100
AcDbCircle
10
-15.249999999999597
20
55.687665161456536
30
0
40
1.5499999999999958
210
0
220
-0
230
1
0
CIRCLE
5
106
100
AcDbEntity
8
0
100
AcDbCircle
10
-15.249999999999599
20
35.187665161456536
30
0
40
1.5500000000000025
210
0
220
-0
230
1
0
CIRCLE
5
107
100
AcDbEntity
8
0
100
AcDbCircle
10
15.250000000000449
20
-55.666223354610693
30
0
40
1.5500000000000003
210
0
220
-0
230
1
0
CIRCLE
5
108
100
AcDbEntity
8
0
100
AcDbCircle
10
-24.000000000000004
20
-28.134657371996916
30
0
40
1.5500000000000025
210
0
220
-0
230
1
0
CIRCLE
5
109
100
AcDbEntity
8
0
100
AcDbCircle
10
24.000000000000004
20
-28.134657371996916
30
0
40
1.5500000000000025
210
0
220
-0
230
1
0
CIRCLE
5
110
100
AcDbEntity
8
0
100
AcDbCircle
10
-24.000000000000004
20
28.134657371996916
30
0
40
1.5500000000000025
210
0
220
-0
230
1
0
CIRCLE
5
111
100
AcDbEntity
8
0
100
AcDbCircle
10
24.000000000000004
20
28.134657371996916
30
0
40
1.5500000000000025
210
0
220
-0
230
1
0
ARC
5
112
100
AcDbEntity
8
0
100
AcDbCircle
10
115.46555548393634
20
84.51009109441371
30
0
40
1.5499999999999892
210
0
220
-0
230
1
100
AcDbArc
50
56.979907753731453
51
236.97990775373168
0
LINE
5
113
100
AcDbEntity
8
0
100
AcDbLine
10
116.31020179364283
20
85.809734357582172
30
0
11
119.86756914013249
21
83.497779002881529
31
0
0
ARC
5
114
100
AcDbEntity
8
0
100
AcDbCircle
10
119.02292283042597
20
82.198135739713067
30
0
40
1.5500000000000136
210
0
220
0
230
1
100
AcDbArc
50
-123.02009224626839
51
56.979907753730572
0
LINE
5
115
100
AcDbEntity
8
0
100
AcDbLine
10
118.17827652071946
20
80.898492476544575
30
0
11
114.62090917422985
21
83.210447831245233
31
0
0
LWPOLYLINE
5
116
100
AcDbEntity
8
0
100
AcDbPolyline
90
4
70
1
43
0.0
10
-111.37722121567842
20
98.497157366902286
10
-113.68917657037909
20
102.05452471339197
42
0.99999999999999989
10
-116.28846309671601
20
100.36523209397892
10
-113.97650774201536
20
96.807864747489262
42
0.99999999999999989
0
LWPOLYLINE
5
117
100
AcDbEntity
8
0
100
AcDbPolyline
90
4
70
1
43
0.0
10
-119.86756914013247
20
-83.497779002881572
42
-0.99999999999999989
10
-118.17827652071946
20
-80.89849247654459
10
-114.62090917422985
20
-83.210447831245219
42
-0.99999999999999989
10
-116.31020179364283
20
-85.809734357582187
0
ARC
5
118
100
AcDbEntity
8
0
100
AcDbCircle
10
-112.67686447884687
20
-97.652511057195738
30
0
40
1.5499999999999936
210
0
220
0
230
1
100
AcDbArc
50
-33.020092246270131
51
146.97990896114882
0
LINE
5
119
100
AcDbEntity
8
0
100
AcDbLine
10
-111.37722121567842
20
-98.497157366902272
30
0
11
-113.68917657037906
21
-102.05452471339197
31
0
0
ARC
5
120
100
AcDbEntity
8
0
100
AcDbCircle
10
-114.98881983354751
20
-101.20987840368542
30
0
40
1.5500000000000136
210
0
220
0
230
1
100
AcDbArc
50
146.9799077537316
51
326.97990775372938
0
LINE
5
121
100
AcDbEntity
8
0
100
AcDbLine
10
-116.288463096716
20
-100.36523209397892
30
0
11
-113.97650774201534
21
-96.807864747489276
31
0
0
LINE
5
122
100
AcDbEntity
8
0
100
AcDbLine
10
113.97650774201534
20
-96.807864747489262
30
0
11
116.28846309671599
21
-100.36523209397892
31
0
0
ARC
5
123
100
AcDbEntity
8
0
100
AcDbCircle
10
114.98881983354751
20
-101.20987840368542
30
0
40
1.5500000000000234
210
0
220
0
230
1
100
AcDbArc
50
-146.97990775373088
51
33.020092246268717
0
LINE
5
124
100
AcDbEntity
8
0
100
AcDbLine
10
113.68917657037903
20
-102.05452471339194
30
0
11
111.3772212156784
21
-98.497157366902272
31
0
0
ARC
5
125
100
AcDbEntity
8
0
100
AcDbCircle
10
112.67686447884687
20
-97.652511057195767
30
0
40
1.5499999999999989
210
0
220
-0
230
1
100
AcDbArc
50
33.020092246268717
51
213.020092246269
0
LINE
5
126
100
AcDbEntity
8
0
100
AcDbLine
10
95.132430859868634
20
-95.8761321436385
30
0
11
98.68979820635829
21
-93.564176788937843
31
0
0
ARC
5
127
100
AcDbEntity
8
0
100
AcDbCircle
10
99.534444516064795
20
-94.86382005210632
30
0
40
1.5499999999999936
210
-0
220
0
230
1
100
AcDbArc
50
-56.979907753730579
51
123.02009103885118
0
LINE
5
128
100
AcDbEntity
8
0
100
AcDbLine
10
100.37909082577131
20
-96.163463315274782
30
0
11
96.821723479281658
21
-98.475418669975426
31
0
0
ARC
5
129
100
AcDbEntity
8
0
100
AcDbCircle
10
95.977077169575153
20
-97.175775406806949
30
0
40
1.5499999999999936
210
0
220
0
230
1
100
AcDbArc
50
123.02009224626974
51
303.02009224626875
0
CIRCLE
5
130
100
AcDbEntity
8
0
100
AcDbCircle
10
-107.50000000000057
20
-89.686955573260022
30
0
40
5
210
0
220
-0
230
1
0
CIRCLE
5
131
100
AcDbEntity
8
0
100
AcDbCircle
10
-107.50000000000058
20
89.686955573260022
30
0
40
5
210
0
220
-0
230
1
0
LWPOLYLINE
5
132
100
AcDbEntity
8
0
100
AcDbPolyline
90
4
70
1
43
0.0
10
-96.821723479281701
20
98.47541866997544
10
-100.37909082577131
20
96.163463315274797
42
0.99999999999999989
10
-98.689798206358304
20
93.564176788937857
10
-95.132430859868649
20
95.8761321436385
42
0.99999999999999989
0
LWPOLYLINE
5
133
100
AcDbEntity
8
0
100
AcDbPolyline
90
4
70
1
43
0.0
10
113.97650774201531
20
96.807864747489262
10
116.28846309671599
20
100.3652320939789
42
0.99999999999999989
10
113.68917657037903
20
102.05452471339194
10
111.37722121567839
20
98.497157366902272
42
0.99999999999999989
0
CIRCLE
5
134
100
AcDbEntity
8
0
100
AcDbCircle
10
107.50000000000055
20
89.686955573260008
30
0
40
5
210
0
220
-0
230
1
0
LWPOLYLINE
5
135
100
AcDbEntity
8
0
100
AcDbPolyline
90
4
70
1
43
0.0
10
-116.31020179364285
20
85.809734357582187
10
-119.86756914013253
20
83.497779002881529
42
0.99999999999999989
10
-118.17827652071949
20
80.89849247654459
10
-114.62090917422982
20
83.210447831245276
42
0.99999999999999989
0
LWPOLYLINE
5
136
100
AcDbEntity
8
0
100
AcDbPolyline
90
4
70
1
43
0.0
10
-101.02349225798582
20
-82.566046399030753
10
-98.711536903285136
20
-79.008679052541126
42
0.99999999999999989
10
-101.31082342962209
20
-77.319386433128074
10
-103.62277878432275
20
-80.876753779617744
42
0.99999999999999989
0
LWPOLYLINE
5
137
100
AcDbEntity
8
0
100
AcDbPolyline
90
4
70
1
43
0.0
10
103.62277878432275
20
-80.876753779617729
10
101.31082342962208
20
-77.319386433128059
42
0.99999999999999989
10
98.71153690328515
20
-79.008679052541098
10
101.02349225798579
20
-82.566046399030739
42
0.99999999999999989
0
CIRCLE
5
138
100
AcDbEntity
8
0
100
AcDbCircle
10
107.50000000000057
20
-89.686955573260008
30
0
40
5
210
0
220
-0
230
1
0
LWPOLYLINE
5
139
100
AcDbEntity
8
0
100
AcDbPolyline
90
4
70
1
43
0.0
10
118.17827652071949
20
-80.89849247654459
10
114.62090917422982
20
-83.210447831245233
42
0.99999999999999989
10
116.31020179364283
20
-85.809734357582172
10
119.86756914013253
20
-83.497779002881529
42
0.99999999999999989
0
ARC
5
140
100
AcDbEntity
8
0
100
AcDbCircle
10
-95.977077169575153
20
-97.175775406806963
30
0
40
1.5500000000000183
210
0
220
0
230
1
100
AcDbArc
50
-123.02009224627002
51
56.979907753729691
0
LINE
5
141
100
AcDbEntity
8
0
100
AcDbLine
10
-96.821723479281701
20
-98.47541866997544
30
0
11
-100.3790908257713
21
-96.163463315274797
31
0
0
ARC
5
142
100
AcDbEntity
8
0
100
AcDbCircle
10
-99.534444516064809
20
-94.863820052106306
30
0
40
1.5499999999999883
210
0
220
-0
230
1
100
AcDbArc
50
56.979907753729265
51
236.97990775373202
0
LINE
5
143
100
AcDbEntity
8
0
100
AcDbLine
10
-98.689798206358276
20
-93.564176788937885
30
0
11
-95.132430859868606
21
-95.8761321436385
31
0
0
LWPOLYLINE
5
144
100
AcDbEntity
8
0
100
AcDbPolyline
90
4
70
1
43
0.0
10
-98.71153690328515
20
79.008679052541112
10
-101.02349225798584
20
82.566046399030753
42
0.99999999999999989
10
-103.62277878432278
20
80.876753779617744
10
-101.3108234296221
20
77.319386433128045
42
0.99999999999999989
0
ARC
5
145
100
AcDbEntity
8
0
100
AcDbCircle
10
102.32313552115426
20
81.721400089324248
30
0
40
1.5499999999999989
210
0
220
0
230
1
100
AcDbArc
50
-33.020092246269016
51
146.97990775373128
0
LINE
5
146
100
AcDbEntity
8
0
100
AcDbLine
10
103.62277878432272
20
80.876753779617744
30
0
11
101.31082342962208
21
77.319386433128074
31
0
0
ARC
5
147
100
AcDbEntity
8
0
100
AcDbCircle
10
100.01118016645361
20
78.164032742834607
30
0
40
1.5500000000000185
210
0
220
0
230
1
100
AcDbArc
50
146.97990775373117
51
326.97990775373012
0
LINE
5
148
100
AcDbEntity
8
0
100
AcDbLine
10
98.711536903285122
20
79.008679052541126
30
0
11
101.02349225798578
21
82.566046399030753
31
0
0
LWPOLYLINE
5
149
100
AcDbEntity
8
0
100
AcDbPolyline
90
4
70
1
43
0.0
10
100.3790908257713
20
96.163463315274754
42
-0.99999999999999989
10
98.68979820635829
20
93.564176788937857
10
95.132430859868649
20
95.876132143638472
42
-0.99999999999999989
10
96.821723479281658
20
98.47541866997544
0
CIRCLE
5
150
100
AcDbEntity
8
0
100
AcDbCircle
10
-30.000000000000338
20
63.702999357199666
30
0
40
1.5500000000000025
210
0
220
-0
230
1
0
CIRCLE
5
151
100
AcDbEntity
8
0
100
AcDbCircle
10
30.000000000000192
20
-22.970205733958515
30
0
40
1.5500000000000025
210
0
220
-0
230
1
0
CIRCLE
5
152
100
AcDbEntity
8
0
100
AcDbCircle
10
29.999999999999915
20
22.970205733958622
30
0
40
1.549999999999998
210
0
220
-0
230
1
0
CIRCLE
5
153
100
AcDbEntity
8
0
100
AcDbCircle
10
-29.999999999999819
20
-22.970205733958871
30
0
40
1.5500000000000025
210
0
220
-0
230
1
0
CIRCLE
5
154
100
AcDbEntity
8
0
100
AcDbCircle
10
-30.000000000000085
20
22.970205733958267
30
0
40
1.549999999999998
210
0
220
-0
230
1
0
CIRCLE
5
155
100
AcDbEntity
8
0
100
AcDbCircle
10
30.000000000000426
20
-63.702999357200802
30
0
40
1.5499999999999934
210
0
220
-0
230
1
0
CIRCLE
5
156
100
AcDbEntity
8
0
100
AcDbCircle
10
29.99999999999968
20
63.702999357200021
30
0
40
1.549999999999998
210
0
220
-0
230
1
0
CIRCLE
5
157
100
AcDbEntity
8
0
100
AcDbCircle
10
-29.999999999999574
20
-63.702999357201158
30
0
40
1.5500000000000025
210
0
220
-0
230
1
0
ARC
5
158
100
AcDbEntity
8
0
100
AcDbCircle
10
157.93161519635839
20
189.29897358084034
30
0
40
277.50748927901441
210
0
220
0
230
1
100
AcDbArc
50
204.51418144494514
51
220.21336611210924
0
SPLINE
5
159
100
AcDbEntity
8
0
100
AcDbSpline
70
0
71
3
72
14
73
10
74
0
42
0.000000001
43
0.0000000001
44
0.0000000001
40
0
40
0
40
0
40
0
40
0.069124061703250472
40
0.069124061703250472
40
0.13774709875688187
40
0.13774709875688187
40
0.17647727371781408
40
0.17647727371781408
40
0.21354650903176664
40
0.21354650903176664
40
0.21354650903176664
40
0.21354650903176664
10
-94.195785863688627
20
76.122373522375909
30
0
10
-94.360283935033209
20
75.961032940117718
30
0
10
-94.491147303791195
20
75.768645921617178
30
0
10
-94.669761480259297
20
75.345654050763386
30
0
10
-94.716371093113992
20
75.119449232106788
30
0
10
-94.718826668417421
20
74.761613617406127
30
0
10
-94.705358112765325
20
74.632816765405508
30
0
10
-94.6513912909179
20
74.385982745811759
30
0
10
-94.612229819757459
20
74.26842016780337
30
0
10
-94.560960786681662
20
74.155994292517875
30
0
0
ARC
5
160
100
AcDbEntity
8
0
100
AcDbCircle
10
-107.50000000000058
20
89.686955573260022
30
0
40
19.000000000000281
210
-0
220
0
230
1
100
AcDbArc
50
314.4448014864069
51
325.87889890230571
0
SPLINE
5
161
100
AcDbEntity
8
0
100
AcDbSpline
70
0
71
3
72
14
73
10
74
0
42
0.000000001
43
0.0000000001
44
0.0000000001
40
0
40
0
40
0
40
0
40
0.069124061703242562
40
0.069124061703242562
40
0.13774709875686569
40
0.13774709875686569
40
0.17647727371780961
40
0.17647727371780961
40
0.21354650903176975
40
0.21354650903176975
40
0.21354650903176975
40
0.21354650903176975
10
-89.901674916738514
20
79.740677458731454
30
0
10
-90.125057638016841
20
79.797162490321952
30
0
10
-90.357443703657253
20
79.80876863810569
30
0
10
-90.811590201430732
20
79.741121720926856
30
0
10
-91.028999596746047
20
79.66318436901814
30
0
10
-91.335823307029301
20
79.479033431452535
30
0
10
-91.43878909791664
20
79.400496325677096
30
0
10
-91.621464762449506
20
79.225942458127236
30
0
10
-91.701465177907352
20
79.131314163743312
30
0
10
-91.770777718172454
20
79.029021138818635
30
0
0
ARC
5
162
100
AcDbEntity
8
0
100
AcDbCircle
10
-157.93161519635993
20
-189.29897358083522
30
0
40
277.50748927901145
210
0
220
-0
230
1
100
AcDbArc
50
58.346252521140997
51
75.809518943760182
0
SPLINE
5
163
100
AcDbEntity
8
0
100
AcDbSpline
70
0
71
3
72
18
73
14
74
0
42
0.000000001
43
0.0000000001
44
0.0000000001
40
0
40
0
40
0
40
0
40
0.047525533138896563
40
0.047525533138896563
40
0.095301460969091659
40
0.095301460969091659
40
0.14260768470608315
40
0.14260768470608315
40
0.18817095737518916
40
0.18817095737518916
40
0.21343180085653851
40
0.21343180085653851
40
0.23667162444708695
40
0.23667162444708695
40
0.23667162444708695
40
0.23667162444708695
10
-12.224158048063813
20
44.926557009296815
30
0
10
-12.095989881686272
20
45.019666216479919
30
0
10
-11.987453779678363
20
45.137167319271185
30
0
10
-11.821686258844583
20
45.408158710609221
30
0
10
-11.766364196655331
20
45.559160808985709
30
0
10
-11.717943454261375
20
45.872380724632265
30
0
10
-11.724706910124123
20
46.03144288377932
30
0
10
-11.797800073372954
20
46.33225490364272
30
0
10
-11.861269901199025
20
46.471726794029699
30
0
10
-11.997625361079308
20
46.664447155606567
30
0
10
-12.053337667184644
20
46.727892473115404
30
0
10
-12.172137426389735
20
46.837543954109215
30
0
10
-12.234001282755116
20
46.88446763978915
30
0
10
-12.299943122042709
20
46.925120649154728
30
0
0
ARC
5
164
100
AcDbEntity
8
0
100
AcDbCircle
10
157.93161519635561
20
-189.29897358084054
30
0
40
289.5074892790127
210
0
220
0
230
1
100
AcDbArc
50
125.99695215207119
51
136.47609853651127
0
SPLINE
5
165
100
AcDbEntity
8
0
100
AcDbSpline
70
0
71
3
72
16
73
12
74
0
42
0.000000001
43
0.0000000001
44
0.0000000001
40
0
40
0
40
0
40
0
40
0.0531525013236014
40
0.0531525013236014
40
0.10648856078982585
40
0.10648856078982585
40
0.15854140510829062
40
0.15854140510829062
40
0.19368230686084065
40
0.19368230686084065
40
0.2262093094955013
40
0.2262093094955013
40
0.2262093094955013
40
0.2262093094955013
10
-53.985711826762085
20
10.130189711221682
30
0
10
-53.871321292095551
20
9.9948908281254099
30
0
10
-53.731276976292925
20
9.8835587407003125
30
0
10
-53.415514824767357
20
9.7214100671920676
30
0
10
-53.242796426535257
20
9.6724064566604753
30
0
10
-52.892582133742067
20
9.6448551989675444
30
0
10
-52.718597921433044
20
9.6649001686112754
30
0
10
-52.441622274762182
20
9.7529881017935853
30
0
10
-52.335118672414197
20
9.8029428926295523
30
0
10
-52.145126628424237
20
9.9245167098949398
30
0
10
-52.061212899055789
20
9.9938016337912785
30
0
10
-51.986546393356932
20
10.072418006400454
30
0
0
ARC
5
166
100
AcDbEntity
8
0
100
AcDbCircle
10
-157.9316151963605
20
189.29897358084048
30
0
40
277.50748927901611
210
0
220
0
230
1
100
AcDbArc
50
284.19048105623966
51
301.65374747885852
0
SPLINE
5
167
100
AcDbEntity
8
0
100
AcDbSpline
70
0
71
3
72
14
73
10
74
0
42
0.000000001
43
0.0000000001
44
0.0000000001
40
0
40
0
40
0
40
0
40
0.069124061703249126
40
0.069124061703249126
40
0.13774709875687918
40
0.13774709875687918
40
0.17647727371781574
40
0.17647727371781574
40
0.21354650903176803
40
0.21354650903176803
40
0.21354650903176803
40
0.21354650903176803
10
-91.770777718172795
20
-79.029021138818123
30
0
10
-91.641528644931455
20
-79.219769863652004
30
0
10
-91.475708098850788
20
-79.382992204854801
30
0
10
-91.091573347426547
20
-79.634518822913392
30
0
10
-90.877383431001562
20
-79.720911853279205
30
0
10
-90.525780881483342
20
-79.787455103654835
30
0
10
-90.396655433853255
20
-79.797286169261199
30
0
10
-90.144146062025044
20
-79.788427939864718
30
0
10
-90.021468610224105
20
-79.770968747699527
30
0
10
-89.901674916738799
20
-79.740677458730829
30
0
0
ARC
5
168
100
AcDbEntity
8
0
100
AcDbCircle
10
-107.50000000000057
20
-89.686955573260022
30
0
40
19.000000000000259
210
0
220
-0
230
1
100
AcDbArc
50
34.121101097696176
51
45.555198513594739
0
SPLINE
5
169
100
AcDbEntity
8
0
100
AcDbSpline
70
0
71
3
72
14
73
10
74
0
42
0.000000001
43
0.0000000001
44
0.0000000001
40
0
40
0
40
0
40
0
40
0.06912406170324463
40
0.06912406170324463
40
0.13774709875686325
40
0.13774709875686325
40
0.17647727371780572
40
0.17647727371780572
40
0.21354650903176767
40
0.21354650903176767
40
0.21354650903176767
40
0.21354650903176767
10
-94.560960786682358
20
-74.155994292517761
30
0
10
-94.656563616786144
20
-74.365638032790713
30
0
10
-94.709627589674056
20
-74.592182070345359
30
0
10
-94.724463032095315
20
-75.051099335755879
30
0
10
-94.686749168837451
20
-75.27895617790044
30
0
10
-94.560565078877403
20
-75.613814255956228
30
0
10
-94.501751826246647
20
-75.729187703471752
30
0
10
-94.362760969327951
20
-75.94018768636785
30
0
10
-94.284001422282202
20
-76.035851233869423
30
0
10
-94.195785863689252
20
-76.122373522375781
30
0
0
ARC
5
170
100
AcDbEntity
8
0
100
AcDbCircle
10
157.93161519635561
20
-189.29897358084054
30
0
40
277.5074892790127
210
0
220
0
230
1
100
AcDbArc
50
139.7866338878903
51
155.48581855505464
0
SPLINE
5
171
100
AcDbEntity
8
0
100
AcDbSpline
70
0
71
3
72
16
73
12
74
0
42
0.000000001
43
0.0000000001
44
0.0000000001
40
0
40
0
40
0
40
0
40
0.053152501323600436
40
0.053152501323600436
40
0.10648856078982738
40
0.10648856078982738
40
0.15854140510829107
40
0.15854140510829107
40
0.19368230686083851
40
0.19368230686083851
40
0.22620930949549722
40
0.22620930949549722
40
0.22620930949549722
40
0.22620930949549722
10
-51.986546393356946
20
-10.072418006400135
30
0
10
-52.108559220286111
20
-9.9439506866135545
30
0
10
-52.254798992834296
20
-9.840891611301835
30
0
10
-52.579397901594959
20
-9.6972480347383918
30
0
10
-52.75465791074997
20
-9.6583002732625207
30
0
10
-53.105878790150044
20
-9.6510190267662903
30
0
10
-53.278415111383978
20
-9.6810777159571018
30
0
10
-53.54984167874364
20
-9.785013327527043
30
0
10
-53.653282780322009
20
-9.8410350817374947
30
0
10
-53.83593717256575
20
-9.9733776025613867
30
0
10
-53.915709830057807
20
-10.047392721101415
30
0
10
-53.985711826762071
20
-10.130189711221327
30
0
0
ARC
5
172
100
AcDbEntity
8
0
100
AcDbCircle
10
157.93161519635839
20
189.29897358084034
30
0
40
289.50748927901435
210
0
220
0
230
1
100
AcDbArc
50
223.52390146348824
51
234.00304784792829
0
SPLINE
5
173
100
AcDbEntity
8
0
100
AcDbSpline
70
0
71
3
72
18
73
14
74
0
42
0.000000001
43
0.0000000001
44
0.0000000001
40
0
40
0
40
0
40
0
40
0.047525533138895057
40
0.047525533138895057
40
0.095301460969088286
40
0.095301460969088286
40
0.14260768470607948
40
0.14260768470607948
40
0.18817095737518555
40
0.18817095737518555
40
0.21343180085653271
40
0.21343180085653271
40
0.23667162444708156
40
0.23667162444708156
40
0.23667162444708156
40
0.23667162444708156
10
-12.299943122042887
20
-46.925120649154657
30
0
10
-12.165091794273913
20
-46.841985080751051
30
0
10
-12.047968939669389
20
-46.733040913740957
30
0
10
-11.862155098252812
20
-46.47538140687054
30
0
10
-11.79555641725004
20
-46.329002515060068
30
0
10
-11.723554377400509
20
-46.020349003644569
30
0
10
-11.718252530553755
20
-45.86123142061949
30
0
10
-11.768355104206185
20
-45.555747846721601
30
0
10
-11.82108036999532
20
-45.411869865084888
30
0
10
-11.942449421835033
20
-45.209376649245428
30
0
10
-11.993196984617619
20
-45.141894397971491
30
0
10
-12.103351610332687
20
-45.023561019312325
30
0
10
-12.161484251899925
20
-44.972087094004458
30
0
10
-12.224158048064044
20
-44.926557009296779
30
0
0
ARC
5
174
100
AcDbEntity
8
0
100
AcDbCircle
10
-157.93161519635993
20
-189.29897358083522
30
0
40
277.50748927901157
210
0
220
-0
230
1
100
AcDbArc
50
43.294112007299908
51
55.060504863789077
0
SPLINE
5
175
100
AcDbEntity
8
0
100
AcDbSpline
70
0
71
3
72
14
73
10
74
0
42
0.000000001
43
0.0000000001
44
0.0000000001
40
0
40
0
40
0
40
0
40
0.057786346278577157
40
0.057786346278577157
40
0.1160745850253676
40
0.1160745850253676
40
0.17213059409705375
40
0.17213059409705375
40
0.22104314533712277
40
0.22104314533712277
40
0.22104314533712277
40
0.22104314533712277
10
44.050332660425852
20
-1.0000000000001918
30
0
10
44.182421376450172
20
-0.85980199656133971
30
0
10
44.285432692470806
20
-0.6948121706078012
30
0
10
44.421963981565888
20
-0.33278642063912167
30
0
10
44.453505919726773
20
-0.13910857498646384
30
0
10
44.43911829597964
20
0.24176726763937964
30
0
10
44.396242547812875
20
0.42540339334015764
30
0
10
44.253253259938461
20
0.7447475889401689
30
0
10
44.162137550453444
20
0.88133110209267784
30
0
10
44.050332660425809
20
0.99999999999980105
30
0
0
ARC
5
176
100
AcDbEntity
8
0
100
AcDbCircle
10
-157.9316151963605
20
189.29897358084048
30
0
40
277.507489279016
210
0
220
0
230
1
100
AcDbArc
50
304.93949513621033
51
316.70588799269927
0
SPLINE
5
177
100
AcDbEntity
8
0
100
AcDbSpline
70
0
71
3
72
14
73
10
74
0
42
0.000000001
43
0.0000000001
44
0.0000000001
40
0
40
0
40
0
40
0
40
0.069289225813431707
40
0.069289225813431707
40
0.1380640560881588
40
0.1380640560881588
40
0.17658786337050297
40
0.17658786337050297
40
0.21347208103066626
40
0.21347208103066626
40
0.21347208103066626
40
0.21347208103066626
10
-0.9999999999996767
20
-38.189813608812209
30
0
10
-0.81066550688311256
20
-38.32208930105682
30
0
10
-0.59695376015693213
20
-38.415493392396407
30
0
10
-0.1472641559911877
20
-38.513349123789752
30
0
10
0.084165552284482109
20
-38.517504812565441
30
0
10
0.43615387129671779
20
-38.454050741974676
30
0
10
0.55963149069899387
20
-38.417396835871628
30
0
10
0.79127018238032898
20
-38.319798639611875
30
0
10
0.89921297903555564
20
-38.260226943159942
30
0
10
1.0000000000002807
20
-38.189813608812173
30
0
0
ARC
5
178
100
AcDbEntity
8
0
100
AcDbCircle
10
157.93161519635839
20
189.29897358084034
30
0
40
277.50748927901446
210
0
220
0
230
1
100
AcDbArc
50
223.29411200730084
51
235.0605048637901
0
SPLINE
5
179
100
AcDbEntity
8
0
100
AcDbSpline
70
0
71
3
72
14
73
10
74
0
42
0.000000001
43
0.0000000001
44
0.0000000001
40
0
40
0
40
0
40
0
40
0.057786346278577441
40
0.057786346278577441
40
0.11607458502536898
40
0.11607458502536898
40
0.17213059409705461
40
0.17213059409705461
40
0.2210431453371241
40
0.2210431453371241
40
0.2210431453371241
40
0.2210431453371241
10
-44.05033266042647
20
1.0000000000000853
30
0
10
-44.182421376450804
20
0.8598019965612369
30
0
10
-44.285432692471446
20
0.6948121706077024
30
0
10
-44.421963981566542
20
0.33278642063902436
30
0
10
-44.453505919727434
20
0.13910857498637336
30
0
10
-44.4391182959803
20
-0.24176726763947232
30
0
10
-44.396242547813536
20
-0.42540339334025179
30
0
10
-44.253253259939129
20
-0.74474758894026494
30
0
10
-44.162137550454119
20
-0.88133110209278387
30
0
10
-44.050332660426491
20
-0.99999999999990763
30
0
0
ARC
5
180
100
AcDbEntity
8
0
100
AcDbCircle
10
157.93161519635561
20
-189.29897358084054
30
0
40
277.50748927901259
210
0
220
0
230
1
100
AcDbArc
50
124.93949513620939
51
136.70588799269873
0
SPLINE
5
181
100
AcDbEntity
8
0
100
AcDbSpline
70
0
71
3
72
14
73
10
74
0
42
0.000000001
43
0.0000000001
44
0.0000000001
40
0
40
0
40
0
40
0
40
0.069289225813434219
40
0.069289225813434219
40
0.1380640560881615
40
0.1380640560881615
40
0.17658786337050553
40
0.17658786337050553
40
0.21347208103066873
40
0.21347208103066873
40
0.21347208103066873
40
0.21347208103066873
10
1.0000000000005826
20
38.189813608812067
30
0
10
0.81066550688401406
20
38.322089301056685
30
0
10
0.59695376015782664
20
38.415493392396286
30
0
10
0.14726415599207443
20
38.513349123789631
30
0
10
-0.084165552283595457
20
38.517504812565335
30
0
10
-0.43615387129583205
20
38.454050741974569
30
0
10
-0.5596314906981058
20
38.417396835871521
30
0
10
-0.79127018237944158
20
38.319798639611768
30
0
10
-0.89921297903466646
20
38.260226943159836
30
0
10
-0.99999999999939249
20
38.189813608812067
30
0
0
ARC
5
182
100
AcDbEntity
8
0
100
AcDbCircle
10
-157.93161519635993
20
-189.29897358083522
30
0
40
277.50748927901168
210
0
220
-0
230
1
100
AcDbArc
50
24.514181444943883
51
40.213366112108297
0
SPLINE
5
183
100
AcDbEntity
8
0
100
AcDbSpline
70
0
71
3
72
14
73
10
74
0
42
0.000000001
43
0.0000000001
44
0.0000000001
40
0
40
0
40
0
40
0
40
0.069124061703256426
40
0.069124061703256426
40
0.13774709875688904
40
0.13774709875688904
40
0.17647727371781408
40
0.17647727371781408
40
0.21354650903176045
40
0.21354650903176045
40
0.21354650903176045
40
0.21354650903176045
10
94.195785863687291
20
-76.122373522377572
30
0
10
94.360283935031859
20
-75.961032940119367
30
0
10
94.491147303789802
20
-75.768645921618742
30
0
10
94.669761480257861
20
-75.345654050764921
30
0
10
94.716371093112542
20
-75.119449232108309
30
0
10
94.718826668415943
20
-74.761613617407676
30
0
10
94.705358112763847
20
-74.632816765407085
30
0
10
94.651391290916408
20
-74.385982745813394
30
0
10
94.612229819755981
20
-74.268420167805004
30
0
10
94.560960786680198
20
-74.155994292519537
30
0
0
ARC
5
184
100
AcDbEntity
8
0
100
AcDbCircle
10
107.50000000000057
20
-89.686955573260008
30
0
40
18.999999999999996
210
0
220
0
230
1
100
AcDbArc
50
134.4448014864133
51
145.87889890229926
0
SPLINE
5
185
100
AcDbEntity
8
0
100
AcDbSpline
70
0
71
3
72
14
73
10
74
0
42
0.000000001
43
0.0000000001
44
0.0000000001
40
0
40
0
40
0
40
0
40
0.069124061703249279
40
0.069124061703249279
40
0.13774709875687166
40
0.13774709875687166
40
0.17647727371780916
40
0.17647727371780916
40
0.21354650903176298
40
0.21354650903176298
40
0.21354650903176298
40
0.21354650903176298
10
89.901674916739879
20
-79.740677458729692
30
0
10
90.125057638018234
20
-79.797162490320176
30
0
10
90.357443703658674
20
-79.808768638103913
30
0
10
90.811590201432153
20
-79.741121720925065
30
0
10
91.028999596747511
20
-79.663184369016363
30
0
10
91.335823307030751
20
-79.479033431450787
30
0
10
91.438789097918033
20
-79.400496325675377
30
0
10
91.621464762450898
20
-79.225942458125559
30
0
10
91.701465177908759
20
-79.131314163741635
30
0
10
91.770777718173861
20
-79.029021138816987
30
0
0
ARC
5
186
100
AcDbEntity
8
0
100
AcDbCircle
10
157.93161519635839
20
189.29897358084034
30
0
40
277.50748927901429
210
0
220
0
230
1
100
AcDbArc
50
238.34625252114191
51
255.80951894376096
0
SPLINE
5
187
100
AcDbEntity
8
0
100
AcDbSpline
70
0
71
3
72
18
73
14
74
0
42
0.000000001
43
0.0000000001
44
0.0000000001
40
0
40
0
40
0
40
0
40
0.047525533138895876
40
0.047525533138895876
40
0.095301460969090479
40
0.095301460969090479
40
0.14260768470608326
40
0.14260768470608326
40
0.18817095737518727
40
0.18817095737518727
40
0.21343180085653102
40
0.21343180085653102
40
0.23667162444707754
40
0.23667162444707754
40
0.23667162444707754
40
0.23667162444707754
10
12.224158048064719
20
-44.926557009296637
30
0
10
12.095989881687181
20
-45.019666216479742
30
0
10
11.987453779679276
20
-45.137167319271008
30
0
10
11.821686258845503
20
-45.408158710609044
30
0
10
11.766364196656244
20
-45.559160808985524
30
0
10
11.717943454262297
20
-45.87238072463208
30
0
10
11.72470691012505
20
-46.03144288377915
30
0
10
11.797800073373889
20
-46.332254903642543
30
0
10
11.861269901199963
20
-46.471726794029507
30
0
10
11.997625361080235
20
-46.664447155606354
30
0
10
12.053337667185566
20
-46.727892473115169
30
0
10
12.172137426390639
20
-46.837543954108952
30
0
10
12.234001282756008
20
-46.884467639788895
30
0
10
12.299943122043597
20
-46.925120649154479
30
0
0
ARC
5
188
100
AcDbEntity
8
0
100
AcDbCircle
10
-157.9316151963605
20
189.29897358084048
30
0
40
289.50748927901594
210
-0
220
0
230
1
100
AcDbArc
50
305.99695215207214
51
316.47609853651181
0
SPLINE
5
189
100
AcDbEntity
8
0
100
AcDbSpline
70
0
71
3
72
16
73
12
74
0
42
0.000000001
43
0.0000000001
44
0.0000000001
40
0
40
0
40
0
40
0
40
0.05315250132359977
40
0.05315250132359977
40
0.10648856078982316
40
0.10648856078982316
40
0.15854140510828832
40
0.15854140510828832
40
0.19368230686084181
40
0.19368230686084181
40
0.22620930949550522
40
0.22620930949550522
40
0.22620930949550522
40
0.22620930949550522
10
53.985711826761232
20
-10.130189711221895
30
0
10
53.871321292094706
20
-9.9948908281256266
30
0
10
53.731276976292079
20
-9.8835587407005274
30
0
10
53.415514824766525
20
-9.7214100671922825
30
0
10
53.242796426534426
20
-9.6724064566606955
30
0
10
52.892582133741243
20
-9.6448551989677593
30
0
10
52.718597921432213
20
-9.6649001686114921
30
0
10
52.441622274761343
20
-9.7529881017938003
30
0
10
52.335118672413344
20
-9.8029428926297708
30
0
10
52.145126628423355
20
-9.924516709895169
30
0
10
52.061212899054922
20
-9.9938016337915201
30
0
10
51.986546393356065
20
-10.072418006400703
30
0
0
ARC
5
190
100
AcDbEntity
8
0
100
AcDbCircle
10
157.93161519635561
20
-189.29897358084054
30
0
40
277.50748927901276
210
0
220
0
230
1
100
AcDbArc
50
104.19048105623877
51
121.65374747885747
0
SPLINE
5
191
100
AcDbEntity
8
0
100
AcDbSpline
70
0
71
3
72
14
73
10
74
0
42
0.000000001
43
0.0000000001
44
0.0000000001
40
0
40
0
40
0
40
0
40
0.069124061703254761
40
0.069124061703254761
40
0.13774709875688251
40
0.13774709875688251
40
0.17647727371781416
40
0.17647727371781416
40
0.21354650903176509
40
0.21354650903176509
40
0.21354650903176509
40
0.21354650903176509
10
91.770777718172923
20
79.029021138815807
30
0
10
91.641528644931554
20
79.219769863649702
30
0
10
91.475708098850873
20
79.382992204852542
30
0
10
91.091573347426618
20
79.634518822911133
30
0
10
90.877383431001618
20
79.720911853276874
30
0
10
90.525780881483428
20
79.787455103652519
30
0
10
90.396655433853368
20
79.797286169258882
30
0
10
90.144146062025158
20
79.788427939862402
30
0
10
90.021468610224233
20
79.770968747697225
30
0
10
89.901674916738941
20
79.740677458728513
30
0
0
ARC
5
192
100
AcDbEntity
8
0
100
AcDbCircle
10
107.50000000000055
20
89.686955573260008
30
0
40
19.000000000001432
210
0
220
0
230
1
100
AcDbArc
50
214.12110109770214
51
225.55519851359074
0
SPLINE
5
193
100
AcDbEntity
8
0
100
AcDbSpline
70
0
71
3
72
14
73
10
74
0
42
0.000000001
43
0.0000000001
44
0.0000000001
40
0
40
0
40
0
40
0
40
0.069124061703248835
40
0.069124061703248835
40
0.13774709875687902
40
0.13774709875687902
40
0.17647727371781088
40
0.17647727371781088
40
0.21354650903176081
40
0.21354650903176081
40
0.21354650903176081
40
0.21354650903176081
10
94.56096078668017
20
74.15599429251759
30
0
10
94.65656361678397
20
74.365638032790557
30
0
10
94.709627589671896
20
74.592182070345217
30
0
10
94.724463032093155
20
75.051099335755794
30
0
10
94.686749168835291
20
75.278956177900369
30
0
10
94.560565078875229
20
75.613814255956157
30
0
10
94.501751826244515
20
75.729187703471666
30
0
10
94.362760969325876
20
75.940187686367707
30
0
10
94.284001422280141
20
76.03585123386928
30
0
10
94.195785863687234
20
76.122373522375625
30
0
0
ARC
5
194
100
AcDbEntity
8
0
100
AcDbCircle
10
-157.9316151963605
20
189.29897358084048
30
0
40
277.50748927901566
210
0
220
0
230
1
100
AcDbArc
50
319.7866338878909
51
335.48581855505483
0
SPLINE
5
195
100
AcDbEntity
8
0
100
AcDbSpline
70
0
71
3
72
16
73
12
74
0
42
0.000000001
43
0.0000000001
44
0.0000000001
40
0
40
0
40
0
40
0
40
0.053152501323599624
40
0.053152501323599624
40
0.10648856078982623
40
0.10648856078982623
40
0.15854140510829079
40
0.15854140510829079
40
0.19368230686084384
40
0.19368230686084384
40
0.22620930949550649
40
0.22620930949550649
40
0.22620930949550649
40
0.22620930949550649
10
51.986546393356207
20
10.072418006400206
30
0
10
52.108559220285358
20
9.9439506866136256
30
0
10
52.254798992833557
20
9.8408916113019114
30
0
10
52.579397901594191
20
9.6972480347384682
30
0
10
52.754657910749216
20
9.6583002732625953
30
0
10
53.105878790149283
20
9.6510190267663631
30
0
10
53.278415111383211
20
9.6810777159571764
30
0
10
53.549841678742887
20
9.7850133275271247
30
0
10
53.65328278032127
20
9.8410350817375836
30
0
10
53.835937172565039
20
9.9733776025614986
30
0
10
53.915709830057104
20
10.047392721101545
30
0
10
53.985711826761374
20
10.130189711221469
30
0
0
ARC
5
196
100
AcDbEntity
8
0
100
AcDbCircle
10
-157.93161519635993
20
-189.29897358083522
30
0
40
289.50748927901151
210
0
220
-0
230
1
100
AcDbArc
50
43.523901463487448
51
54.003047847927263
0
SPLINE
5
197
100
AcDbEntity
8
0
100
AcDbSpline
70
0
71
3
72
18
73
14
74
0
42
0.000000001
43
0.0000000001
44
0.0000000001
40
0
40
0
40
0
40
0
40
0.047525533138896743
40
0.047525533138896743
40
0.095301460969092477
40
0.095301460969092477
40
0.1426076847060849
40
0.1426076847060849
40
0.18817095737519207
40
0.18817095737519207
40
0.21343180085654201
40
0.21343180085654201
40
0.23667162444709203
40
0.23667162444709203
40
0.23667162444709203
40
0.23667162444709203
10
12.299943122044095
20
46.925120649154373
30
0
10
12.165091794275112
20
46.841985080750767
30
0
10
12.047968939670582
20
46.733040913740695
30
0
10
11.862155098253986
20
46.475381406870255
30
0
10
11.795556417251207
20
46.329002515059784
30
0
10
11.723554377401662
20
46.02034900364427
30
0
10
11.718252530554896
20
45.861231420619191
30
0
10
11.768355104207313
20
45.555747846721289
30
0
10
11.821080369996448
20
45.411869865084583
30
0
10
11.942449421836159
20
45.209376649245108
30
0
10
11.993196984618741
20
45.14189439797115
30
0
10
12.103351610333817
20
45.02356101931197
30
0
10
12.16148425190106
20
44.972087094004102
30
0
10
12.224158048065181
20
44.926557009296424
30
0
0
ARC
5
198
100
AcDbEntity
8
0
100
AcDbCircle
10
-107.50000000000058
20
89.686955573260022
30
0
40
19.000000000000185
210
0
220
-0
230
1
100
AcDbArc
50
9.9068374725053889
51
270.41686291620772
0
SPLINE
5
199
100
AcDbEntity
8
0
100
AcDbSpline
70
0
71
3
72
12
73
8
74
0
42
0.000000001
43
0.0000000001
44
0.0000000001
40
0
40
0
40
0
40
0
40
0.072881066653501456
40
0.072881066653501456
40
0.14496255355520271
40
0.14496255355520271
40
0.21214977896774645
40
0.21214977896774645
40
0.21214977896774645
40
0.21214977896774645
10
-105.67651358404879
20
69.610457884760123
30
0
10
-105.77694882911305
20
69.83166162232024
30
0
10
-105.92029302910019
20
70.030749343175813
30
0
10
-106.27419648282188
20
70.359752096004414
30
0
10
-106.48058398314771
20
70.487225404380979
30
0
10
-106.91544117001179
20
70.649730264568376
30
0
10
-107.13781275116233
20
70.689087868649537
30
0
10
-107.36176424165996
20
70.687458451622234
30
0
0
ARC
5
200
100
AcDbEntity
8
0
100
AcDbCircle
10
157.93161519635839
20
189.29897358084034
30
0
40
289.50748927901429
210
0
220
0
230
1
100
AcDbArc
50
204.41992731198317
51
220.57262741997235
0
SPLINE
5
201
100
AcDbEntity
8
0
100
AcDbSpline
70
0
71
3
72
14
73
10
74
0
42
0.000000001
43
0.0000000001
44
0.0000000001
40
0
40
0
40
0
40
0
40
0.060957939092925253
40
0.060957939092925253
40
0.12211553078285008
40
0.12211553078285008
40
0.17176445958672176
40
0.17176445958672176
40
0.21833830127178483
40
0.21833830127178483
40
0.21833830127178483
40
0.21833830127178483
10
-61.973098025165569
20
-0.99999999999972999
30
0
10
-61.840938895288524
20
-0.84565813077683749
30
0
10
-61.740677917543458
20
-0.6666373050363914
30
0
10
-61.615368008949062
20
-0.27935372717783796
30
0
10
-61.591808763911267
20
-0.074836493992850736
30
0
10
-61.622633267021058
20
0.29323009848231618
30
0
10
-61.662982626061087
20
0.45484257752712781
30
0
10
-61.789590821082527
20
0.74953930311262629
30
0
10
-61.872124165423571
20
0.88207780824755322
30
0
10
-61.973098025165555
20
1.0000000000002274
30
0
0
ARC
5
202
100
AcDbEntity
8
0
100
AcDbCircle
10
157.93161519635561
20
-189.29897358084054
30
0
40
289.5074892790127
210
0
220
0
230
1
100
AcDbArc
50
139.4273725800272
51
155.58007268801694
0
SPLINE
5
203
100
AcDbEntity
8
0
100
AcDbSpline
70
0
71
3
72
12
73
8
74
0
42
0.000000001
43
0.0000000001
44
0.0000000001
40
0
40
0
40
0
40
0
40
0.072881066653507132
40
0.072881066653507132
40
0.14496255355521614
40
0.14496255355521614
40
0.21214977896774367
40
0.21214977896774367
40
0.21214977896774367
40
0.21214977896774367
10
-107.36176424166135
20
-70.687458451623627
30
0
10
-107.11883378269553
20
-70.689225955047718
30
0
10
-106.87795052672217
20
-70.642763741829967
30
0
10
-106.43072611265511
20
-70.459786176573019
30
0
10
-106.22835312013548
20
-70.326031114845023
30
0
10
-105.89822347607262
20
-69.999652468694947
30
0
10
-105.76910231469523
20
-69.8143800563208
30
0
10
-105.6765135840503
20
-69.610457884761416
30
0
0
ARC
5
204
100
AcDbEntity
8
0
100
AcDbCircle
10
-107.50000000000057
20
-89.686955573260022
30
0
40
18.999999999998771
210
0
220
-0
230
1
100
AcDbArc
50
89.583137083796572
51
350.09316252749824
0
SPLINE
5
205
100
AcDbEntity
8
0
100
AcDbSpline
70
0
71
3
72
12
73
8
74
0
42
0.000000001
43
0.0000000001
44
0.0000000001
40
0
40
0
40
0
40
0
40
0.072881066653503607
40
0.072881066653503607
40
0.14496255355520349
40
0.14496255355520349
40
0.21214977896774428
40
0.21214977896774428
40
0.21214977896774428
40
0.21214977896774428
10
-87.421735375974677
20
-91.490882354793897
30
0
10
-87.657356962794836
20
-91.550049911664559
30
0
10
-87.878910248060123
20
-91.655395163354356
30
0
10
-88.266009521816628
20
-91.944608956563002
30
0
10
-88.428405699270712
20
-92.124810860513804
30
0
10
-88.666210168490821
20
-92.52350577767578
30
0
10
-88.744781641544947
20
-92.735224139478646
30
0
10
-88.783312766957039
20
-92.95584208405802
30
0
0
ARC
5
206
100
AcDbEntity
8
0
100
AcDbCircle
10
-157.9316151963605
20
189.29897358084048
30
0
40
289.507489279016
210
-0
220
0
230
1
100
AcDbArc
50
284.09622692327764
51
302.82426158770755
0
SPLINE
5
207
100
AcDbEntity
8
0
100
AcDbSpline
70
0
71
3
72
12
73
8
74
0
42
0.000000001
43
0.0000000001
44
0.0000000001
40
0
40
0
40
0
40
0
40
0.073225722948022404
40
0.073225722948022404
40
0.14562500850826132
40
0.14562500850826132
40
0.21201778702155269
40
0.21201778702155269
40
0.21201778702155269
40
0.21201778702155269
10
1.0000000000003872
20
-53.984923338994371
30
0
10
0.79488568352297384
20
-53.852613221505159
30
0
10
0.56553719567499239
20
-53.762317248076513
30
0
10
0.087725591053647828
20
-53.676728473692052
30
0
10
-0.15588187283392535
20
-53.681200853745267
30
0
10
-0.60797278531247634
20
-53.779434117328492
30
0
10
-0.81402560691022252
20
-53.864959534311119
30
0
10
-0.99999999999960565
20
-53.984923338994406
30
0
0
ARC
5
208
100
AcDbEntity
8
0
100
AcDbCircle
10
157.93161519635839
20
189.29897358084034
30
0
40
289.50748927901424
210
0
220
0
230
1
100
AcDbArc
50
237.1757384122929
51
255.90377307672293
0
SPLINE
5
209
100
AcDbEntity
8
0
100
AcDbSpline
70
0
71
3
72
12
73
8
74
0
42
0.000000001
43
0.0000000001
44
0.0000000001
40
0
40
0
40
0
40
0
40
0.07288106665350437
40
0.07288106665350437
40
0.1449625535552074
40
0.1449625535552074
40
0.21214977896774656
40
0.21214977896774656
40
0.21214977896774656
40
0.21214977896774656
10
88.783312766958204
20
-92.955842084056869
30
0
10
88.741516287015045
20
-92.716527675326319
30
0
10
88.6526377592632
20
-92.487870535551323
30
0
10
88.392475697063105
20
-92.080677501086399
30
0
10
88.224618898278052
20
-91.905550861933961
30
0
10
87.844361734538495
20
-91.639255739979745
30
0
10
87.638949000757265
20
-91.545427439862351
30
0
10
87.421735375975814
20
-91.49088235479276
30
0
0
ARC
5
210
100
AcDbEntity
8
0
100
AcDbCircle
10
107.50000000000057
20
-89.686955573260008
30
0
40
19.000000000000014
210
0
220
0
230
1
100
AcDbArc
50
-170.09316252750102
51
90.416862916213418
0
SPLINE
5
211
100
AcDbEntity
8
0
100
AcDbSpline
70
0
71
3
72
12
73
8
74
0
42
0.000000001
43
0.0000000001
44
0.0000000001
40
0
40
0
40
0
40
0
40
0.072881066653500123
40
0.072881066653500123
40
0.14496255355519133
40
0.14496255355519133
40
0.21214977896774773
40
0.21214977896774773
40
0.21214977896774773
40
0.21214977896774773
10
105.67651358404683
20
-69.610457884760407
30
0
10
105.77694882911111
20
-69.831661622320524
30
0
10
105.92029302909822
20
-70.030749343176112
30
0
10
106.27419648281989
20
-70.359752096004669
30
0
10
106.48058398314569
20
-70.487225404381192
30
0
10
106.91544117000979
20
-70.649730264568589
30
0
10
107.13781275116037
20
-70.68908786864975
30
0
10
107.36176424165804
20
-70.687458451622405
30
0
0
ARC
5
212
100
AcDbEntity
8
0
100
AcDbCircle
10
-157.93161519635993
20
-189.29897358083522
30
0
40
289.50748927901168
210
0
220
-0
230
1
100
AcDbArc
50
24.41992731198221
51
40.572627419971518
0
SPLINE
5
213
100
AcDbEntity
8
0
100
AcDbSpline
70
0
71
3
72
14
73
10
74
0
42
0.000000001
43
0.0000000001
44
0.0000000001
40
0
40
0
40
0
40
0
40
0.060957939092921236
40
0.060957939092921236
40
0.12211553078284842
40
0.12211553078284842
40
0.17176445958672396
40
0.17176445958672396
40
0.21833830127178983
40
0.21833830127178983
40
0.21833830127178983
40
0.21833830127178983
10
61.97309802516466
20
0.99999999999976552
30
0
10
61.840938895287621
20
0.8456581307768829
30
0
10
61.74067791754257
20
0.66663730503643803
30
0
10
61.615368008948153
20
0.27935372717789608
30
0
10
61.591808763910393
20
0.074836493992916614
30
0
10
61.622633267020177
20
-0.29323009848227122
30
0
10
61.662982626060185
20
-0.45484257752708945
30
0
10
61.789590821081639
20
-0.74953930311260808
30
0
10
61.872124165422669
20
-0.88207780824754656
30
0
10
61.97309802516466
20
-1.0000000000002274
30
0
0
ARC
5
214
100
AcDbEntity
8
0
100
AcDbCircle
10
-157.9316151963605
20
189.29897358084048
30
0
40
289.50748927901566
210
-0
220
0
230
1
100
AcDbArc
50
319.42737258002768
51
335.58007268801674
0
SPLINE
5
215
100
AcDbEntity
8
0
100
AcDbSpline
70
0
71
3
72
12
73
8
74
0
42
0.000000001
43
0.0000000001
44
0.0000000001
40
0
40
0
40
0
40
0
40
0.072881066653500137
40
0.072881066653500137
40
0.14496255355519727
40
0.14496255355519727
40
0.21214977896774725
40
0.21214977896774725
40
0.21214977896774725
40
0.21214977896774725
10
107.36176424165841
20
70.687458451621509
30
0
10
107.11883378269262
20
70.689225955045643
30
0
10
106.87795052671925
20
70.642763741827906
30
0
10
106.4307261126522
20
70.459786176571072
30
0
10
106.22835312013262
20
70.326031114843104
30
0
10
105.89822347606966
20
69.999652468693057
30
0
10
105.76910231469222
20
69.814380056318868
30
0
10
105.67651358404726
20
69.610457884759427
30
0
0
ARC
5
216
100
AcDbEntity
8
0
100
AcDbCircle
10
107.50000000000055
20
89.686955573260008
30
0
40
19.000000000000895
210
0
220
0
230
1
100
AcDbArc
50
-90.416862916212196
51
170.093162527505
0
SPLINE
5
217
100
AcDbEntity
8
0
100
AcDbSpline
70
0
71
3
72
12
73
8
74
0
42
0.000000001
43
0.0000000001
44
0.0000000001
40
0
40
0
40
0
40
0
40
0.072881066653505439
40
0.072881066653505439
40
0.14496255355520637
40
0.14496255355520637
40
0.2121497789677467
40
0.2121497789677467
40
0.2121497789677467
40
0.2121497789677467
10
87.421735375974663
20
91.490882354791623
30
0
10
87.657356962794836
20
91.550049911662285
30
0
10
87.878910248060095
20
91.65539516335204
30
0
10
88.266009521816628
20
91.9446089565607
30
0
10
88.428405699270741
20
92.124810860511488
30
0
10
88.666210168490835
20
92.523505777673464
30
0
10
88.744781641544947
20
92.735224139476372
30
0
10
88.783312766957039
20
92.955842084055732
30
0
0
ARC
5
218
100
AcDbEntity
8
0
100
AcDbCircle
10
157.93161519635561
20
-189.29897358084054
30
0
40
289.50748927901265
210
0
220
0
230
1
100
AcDbArc
50
104.09622692327682
51
122.82426158770656
0
SPLINE
5
219
100
AcDbEntity
8
0
100
AcDbSpline
70
0
71
3
72
12
73
8
74
0
42
0.000000001
43
0.0000000001
44
0.0000000001
40
0
40
0
40
0
40
0
40
0.073225722948017949
40
0.073225722948017949
40
0.14562500850825988
40
0.14562500850825988
40
0.21201778702155435
40
0.21201778702155435
40
0.21201778702155435
40
0.21201778702155435
10
-0.99999999999921485
20
53.984923338994406
30
0
10
-0.79488568352181677
20
53.852613221505194
30
0
10
-0.5655371956738422
20
53.762317248076542
30
0
10
-0.087725591052507906
20
53.676728473692059
30
0
10
0.15588187283505472
20
53.681200853745267
30
0
10
0.60797278531362653
20
53.779434117328492
30
0
10
0.8140256069114018
20
53.864959534311112
30
0
10
1.0000000000007958
20
53.984923338994406
30
0
0
ARC
5
220
100
AcDbEntity
8
0
100
AcDbCircle
10
-157.93161519635993
20
-189.29897358083522
30
0
40
289.50748927901145
210
0
220
-0
230
1
100
AcDbArc
50
57.175738412291899
51
75.903773076722487
0
SPLINE
5
221
100
AcDbEntity
8
0
100
AcDbSpline
70
0
71
3
72
12
73
8
74
0
42
0.000000001
43
0.0000000001
44
0.0000000001
40
0
40
0
40
0
40
0
40
0.072881066653514598
40
0.072881066653514598
40
0.14496255355521737
40
0.14496255355521737
40
0.2121497789677394
40
0.2121497789677394
40
0.2121497789677394
40
0.2121497789677394
10
-88.783312766958431
20
92.955842084059
30
0
10
-88.741516287015202
20
92.716527675328422
30
0
10
-88.652637759263342
20
92.487870535553384
30
0
10
-88.39247569706319
20
92.080677501088445
30
0
10
-88.224618898278067
20
91.905550861936064
30
0
10
-87.844361734538552
20
91.639255739981934
30
0
10
-87.638949000757378
20
91.545427439864554
30
0
10
-87.42173537597597
20
91.490882354794962
30
0
0
ENDSEC
0
SECTION
2
OBJECTS
0
DICTIONARY
5
C
100
AcDbDictionary
3
ACAD_GROUP
350
D
3
ACAD_MLINESTYLE
350
17
0
DICTIONARY
5
D
100
AcDbDictionary
0
DICTIONARY
5
1A
330
C
100
AcDbDictionary
0
DICTIONARY
5
17
100
AcDbDictionary
0
ENDSEC
0
EOF
