0
SECTION
2
HEADER
9
$INSUNITS
70
4
9
$ACADVER
1
AC1014
9
$HANDSEED
5
FFFF
0
ENDSEC
0
SECTION
2
TABLES
0
TABLE
2
VPORT
5
8
100
AcDbSymbolTable
0
ENDTAB
0
TABLE
2
LTYPE
5
5
100
AcDbSymbolTable
0
LTYPE
5
14
100
AcDbSymbolTableRecord
100
AcDbLinetypeTableRecord
2
BYBLOCK
70
0
0
LTYPE
5
15
100
AcDbSymbolTableRecord
100
AcDbLinetypeTableRecord
2
BYLAYER
70
0
0
ENDTAB
0
TABLE
2
LAYER
5
2
100
AcDbSymbolTable
70
2
0
LAYER
5
50
100
AcDbSymbolTableRecord
100
AcDbLayerTableRecord
2
0
70
0
6
CONTINUOUS
0
ENDTAB
0
TABLE
2
STYLE
5
3
100
AcDbSymbolTable
70
1
0
STYLE
5
11
100
AcDbSymbolTableRecord
100
AcDbTextStyleTableRecord
2
STANDARD
70
0
0
ENDTAB
0
TABLE
2
VIEW
5
6
100
AcDbSymbolTable
70
0
0
ENDTAB
0
TABLE
2
UCS
5
7
100
AcDbSymbolTable
70
0
0
ENDTAB
0
TABLE
2
APPID
5
9
100
AcDbSymbolTable
70
2
0
APPID
5
12
100
AcDbSymbolTableRecord
100
AcDbRegAppTableRecord
2
ACAD
70
0
0
ENDTAB
0
TABLE
2
DIMSTYLE
5
A
100
AcDbSymbolTable
70
1
0
ENDTAB
0
TABLE
2
BLOCK_RECORD
5
1
100
AcDbSymbolTable
70
1
0
BLOCK_RECORD
5
1F
100
AcDbSymbolTableRecord
100
AcDbBlockTableRecord
2
*MODEL_SPACE
0
BLOCK_RECORD
5
1B
100
AcDbSymbolTableRecord
100
AcDbBlockTableRecord
2
*PAPER_SPACE
0
ENDTAB
0
ENDSEC
0
SECTION
2
BLOCKS
0
BLOCK
5
20
100
AcDbEntity
100
AcDbBlockBegin
2
*MODEL_SPACE
0
ENDBLK
5
21
100
AcDbEntity
100
AcDbBlockEnd
0
BLOCK
5
1C
100
AcDbEntity
100
AcDbBlockBegin
2
*PAPER_SPACE
0
ENDBLK
5
1D
100
AcDbEntity
100
AcDbBlockEnd
0
ENDSEC
0
SECTION
2
ENTITIES
0
LWPOLYLINE
5
100
100
AcDbEntity
8
0
100
AcDbPolyline
90
12
70
1
43
0.0
10
1.5058301993054819
20
-84.826729768744755
42
-0.036994003883155387
10
-1.5058301987044442
20
-84.826729768744812
42
-0.17058465086885555
10
-1.8096284239752369
20
-84.694013268105863
42
-0.030309921306570519
10
-5.1289759514233069
20
-81.204471158461601
42
-0.36491865331081508
10
-5.1289759514232971
20
-80.560401755486339
42
-0.030309921306579189
10
-1.8096284239752265
20
-77.070859645842148
42
-0.17058465086892693
10
-1.5058301987044564
20
-76.938143145203213
42
-0.036994003883149051
10
1.505830199305527
20
-76.938143145203256
42
-0.17058465086890123
10
1.8096284245762679
20
-77.070859645842205
42
-0.030309921306576743
10
5.128975952024291
20
-80.560401755486396
42
-0.36491865331082685
10
5.1289759520243017
20
-81.204471158461587
42
-0.030309921306573742
10
1.8096284245762486
20
-84.69401326810582
42
-0.17058465086900451
0
CIRCLE
5
101
100
AcDbEntity
8
0
100
AcDbCircle
10
-15.24999999969957
20
74.805228704482317
30
0
40
2.1999999999999997
210
0
220
-0
230
1
0
CIRCLE
5
102
100
AcDbEntity
8
0
100
AcDbCircle
10
15.250000000300478
20
-16.048659811584898
30
0
40
2.200000000000002
210
0
220
-0
230
1
0
CIRCLE
5
103
100
AcDbEntity
8
0
100
AcDbCircle
10
-15.249999999699526
20
-36.548659811584905
30
0
40
2.1999999999999971
210
0
220
-0
230
1
0
CIRCLE
5
104
100
AcDbEntity
8
0
100
AcDbCircle
10
15.250000000300428
20
54.305228704482325
30
0
40
2.200000000000002
210
0
220
-0
230
1
0
CIRCLE
5
105
100
AcDbEntity
8
0
100
AcDbCircle
10
-15.249999999699572
20
54.305228704482325
30
0
40
2.200000000000002
210
0
220
-0
230
1
0
CIRCLE
5
106
100
AcDbEntity
8
0
100
AcDbCircle
10
15.250000000300476
20
-36.548659811584905
30
0
40
2.2000000000000042
210
0
220
-0
230
1
0
CIRCLE
5
107
100
AcDbEntity
8
0
100
AcDbCircle
10
-15.249999999699515
20
-16.048659811584898
30
0
40
2.200000000000002
210
0
220
-0
230
1
0
CIRCLE
5
108
100
AcDbEntity
8
0
100
AcDbCircle
10
15.25000000030043
20
74.805228704482317
30
0
40
2.1999999999999997
210
0
220
-0
230
1
0
LWPOLYLINE
5
109
100
AcDbEntity
8
0
100
AcDbPolyline
90
8
70
1
43
0.0
10
0.32203470178807314
20
24.246539494749836
42
-0.042822157701764701
10
5.1289759520243203
20
19.439598244513601
42
-0.3649186533108274
10
5.1289759520242919
20
18.795528841538399
42
-0.04282215770176203
10
0.32203470178807003
20
13.988587591302188
42
-0.36491865331082357
10
-0.3220347011871022
20
13.988587591302213
42
-0.042822157701763369
10
-5.1289759514233282
20
18.795528841538417
42
-0.36491865331082896
10
-5.1289759514233202
20
19.439598244513586
42
-0.042822157701765923
10
-0.32203470118707356
20
24.246539494749832
42
-0.36491865331080564
0
LWPOLYLINE
5
110
100
AcDbEntity
8
0
100
AcDbPolyline
90
6
70
1
43
0.0
10
11.925988443197401
20
30.399482582947527
42
-0.052346172418337063
10
8.2063723506930621
20
22.976847648431086
42
-0.49716399824957325
10
7.4115868689061548
20
22.914004340287882
42
0.029232797522266707
10
3.7964407975623726
20
26.529150411631662
42
-0.49716399824955754
10
3.8592841057055036
20
27.323935893418607
42
-0.052346172418341295
10
11.281919040222039
20
31.043551985922761
42
-0.64474402059187375
0
LWPOLYLINE
5
111
100
AcDbEntity
8
0
100
AcDbPolyline
90
6
70
1
43
0.0
10
11.281919040222071
20
7.1915751001291657
42
-0.052346172418339068
10
3.8592841057055338
20
10.911191192633458
42
-0.49716399824955154
10
3.796440797562366
20
11.705976674420349
42
0.029232797522265996
10
7.4115868689061761
20
15.321122745764162
42
-0.49716399824954338
10
8.2063723506930408
20
15.25827943762096
42
-0.052346172418339845
10
11.925988443197229
20
7.8356445031044588
42
-0.64474402059186686
0
LWPOLYLINE
5
112
100
AcDbEntity
8
0
100
AcDbPolyline
90
6
70
1
43
0.0
10
-11.281919039621098
20
31.043551985922797
42
-0.0523461724183404
10
-3.859284105104523
20
27.323935893418568
42
-0.49716399824956287
10
-3.7964407969613445
20
26.529150411631669
42
0.029232797522268372
10
-7.411586868305152
20
22.914004340287843
42
-0.49716399824954993
10
-8.2063723500919981
20
22.97684764843109
42
-0.052346172418338957
10
-11.925988442596264
20
30.399482582947606
42
-0.64474402059183611
0
LWPOLYLINE
5
113
100
AcDbEntity
8
0
100
AcDbPolyline
90
6
70
1
43
0.0
10
-11.925988442596179
20
7.8356445031044428
42
-0.052346172418341406
10
-8.2063723500920371
20
15.25827943762099
42
-0.49716399824954877
10
-7.4115868683051511
20
15.32112274576415
42
0.029232797522265996
10
-3.7964407969613916
20
11.705976674420386
42
-0.49716399824956842
10
-3.8592841051046589
20
10.91119119263359
42
-0.05234617241833673
10
-11.281919039621025
20
7.1915751001292954
42
-0.64474402059186442
0
LWPOLYLINE
5
114
100
AcDbEntity
8
0
100
AcDbPolyline
90
8
70
1
43
0.0
10
8.9000000002793715
20
-54.489543238160756
10
8.9000000002793715
20
-55.27532967578766
42
0.99999999999999989
10
9.6071067814659177
20
-55.982436456974213
10
14.392893219092826
20
-55.982436456974213
42
0.99999999999999989
10
15.100000000279373
20
-55.27532967578766
10
15.100000000279373
20
-54.489543238160756
42
0.99999999999999989
10
14.392893219092826
20
-53.78243645697421
10
9.6071067814659195
20
-53.78243645697421
42
0.99999999999999989
0
LINE
5
115
100
AcDbEntity
8
0
100
AcDbLine
10
-3.0999999997164944
20
-55.275329675785073
30
0
11
-3.0999999997164944
21
-54.489543238163364
31
0
0
ARC
5
116
100
AcDbEntity
8
0
100
AcDbCircle
10
-2.7464466091258206
20
-54.135989847567473
30
0
40
0.49999999999999445
210
0
220
-0
230
1
100
AcDbArc
50
44.999999999998913
51
225.00000000042277
0
LINE
5
117
100
AcDbEntity
8
0
100
AcDbLine
10
-2.3928932185325449
20
-53.78243645697421
30
0
11
2.392893219094363
21
-53.78243645697421
31
0
0
ARC
5
118
100
AcDbEntity
8
0
100
AcDbCircle
10
2.7464466096876361
20
-54.135989847567487
30
0
40
0.50000000000000022
210
-0
220
0
230
1
100
AcDbArc
50
-44.999999999999538
51
134.99999999999972
0
LINE
5
119
100
AcDbEntity
8
0
100
AcDbLine
10
3.1000000002809109
20
-54.489543238160756
30
0
11
3.1000000002809092
21
-55.27532967578766
31
0
0
ARC
5
120
100
AcDbEntity
8
0
100
AcDbCircle
10
2.7464466096876352
20
-55.628883066380936
30
0
40
0.49999999999999867
210
0
220
0
230
1
100
AcDbArc
50
-134.99999999999969
51
45.00000000000022
0
LINE
5
121
100
AcDbEntity
8
0
100
AcDbLine
10
2.3928932190943626
20
-55.982436456974213
30
0
11
-2.3928932185325467
21
-55.982436456974213
31
0
0
ARC
5
122
100
AcDbEntity
8
0
100
AcDbCircle
10
-2.7464466091258197
20
-55.628883066380936
30
0
40
0.49999999999999545
210
0
220
0
230
1
100
AcDbArc
50
134.99999999957961
51
314.99999999999972
0
LINE
5
123
100
AcDbEntity
8
0
100
AcDbLine
10
-15.099999999720628
20
-55.27532967582993
30
0
11
-15.099999999720628
21
-54.489543238118486
31
0
0
ARC
5
124
100
AcDbEntity
8
0
100
AcDbCircle
10
-14.746446609085089
20
-54.135989847567487
30
0
40
0.50000000000000056
210
0
220
-0
230
1
100
AcDbArc
50
45.000000000000135
51
224.99999999314977
0
LINE
5
125
100
AcDbEntity
8
0
100
AcDbLine
10
-14.392893218491814
20
-53.78243645697421
30
0
11
-9.6071067808649051
21
-53.78243645697421
31
0
0
ARC
5
126
100
AcDbEntity
8
0
100
AcDbCircle
10
-9.253553390271632
20
-54.135989847567487
30
0
40
0.50000000000000133
210
-0
220
0
230
1
100
AcDbArc
50
-45.000000006850769
51
134.99999999999972
0
LINE
5
127
100
AcDbEntity
8
0
100
AcDbLine
10
-8.8999999997206327
20
-54.489543238203034
30
0
11
-8.8999999997206309
21
-55.275329675745397
31
0
0
ARC
5
128
100
AcDbEntity
8
0
100
AcDbCircle
10
-9.253553390271632
20
-55.628883066380936
30
0
40
0.50000000000000056
210
0
220
0
230
1
100
AcDbArc
50
-134.99999999999986
51
45.00000000685003
0
LINE
5
129
100
AcDbEntity
8
0
100
AcDbLine
10
-9.6071067808649069
20
-55.982436456974213
30
0
11
-14.392893218491814
21
-55.982436456974213
31
0
0
ARC
5
130
100
AcDbEntity
8
0
100
AcDbCircle
10
-14.746446609085083
20
-55.628883066380936
30
0
40
0.50000000000000056
210
0
220
0
230
1
100
AcDbArc
50
135.00000000685003
51
314.99999999999943
0
CIRCLE
5
131
100
AcDbEntity
8
0
100
AcDbCircle
10
-23.999999999699977
20
-9.0170938289711255
30
0
40
1.5500000000000025
210
0
220
-0
230
1
0
CIRCLE
5
132
100
AcDbEntity
8
0
100
AcDbCircle
10
24.00000000030003
20
-9.0170938289711255
30
0
40
1.5500000000000025
210
0
220
-0
230
1
0
CIRCLE
5
133
100
AcDbEntity
8
0
100
AcDbCircle
10
-23.999999999699977
20
47.252220915022704
30
0
40
1.5500000000000025
210
0
220
-0
230
1
0
CIRCLE
5
134
100
AcDbEntity
8
0
100
AcDbCircle
10
24.00000000030003
20
47.252220915022704
30
0
40
1.5500000000000025
210
0
220
-0
230
1
0
SPLINE
5
135
100
AcDbEntity
8
0
100
AcDbSpline
70
0
71
3
72
14
73
10
74
0
42
0.000000001
43
0.0000000001
44
0.0000000001
40
-0.21346600664951365
40
-0.21346600664951365
40
-0.21346600664951365
40
-0.21346600664951365
40
-0.1748493299350328
40
-0.1748493299350328
40
-0.13620004816658202
40
-0.13620004816658202
40
-0.06813993536203751
40
-0.06813993536203751
40
0
40
0
40
0
40
0
10
1.0000000003006093
20
57.307377151837855
30
0
10
0.89447803517098068
20
57.381098483618331
30
0
10
0.78112819222596763
20
57.442922875140937
30
0
10
0.54281849634721135
20
57.540568683834849
30
0
10
0.41857672971604609
20
57.576069887425241
30
0
10
0.067896325080574332
20
57.635460194421562
30
0
10
-0.16103002137562145
20
57.629393122549608
30
0
10
-0.60400717734665277
20
57.529968281684972
30
0
10
-0.81380597066656168
20
57.437458806145628
30
0
10
-0.99999999969936582
20
57.307377151837855
30
0
0
ARC
5
136
100
AcDbEntity
8
0
100
AcDbCircle
10
-157.93161519609561
20
-170.18141003785581
30
0
40
277.50748927906994
210
0
220
-0
230
1
100
AcDbArc
50
52.73850333842276
51
55.060504863788509
0
ARC
5
137
100
AcDbEntity
8
0
100
AcDbCircle
10
8.8754128267177457
20
49.089636958899447
30
0
40
2.0000000000000022
210
-0
220
0
230
1
100
AcDbArc
50
-50.184637616199062
51
52.738503338421353
0
ARC
5
138
100
AcDbEntity
8
0
100
AcDbCircle
10
-157.9316151960075
20
249.18853094044374
30
0
40
262.50748927892954
210
0
220
0
230
1
100
AcDbArc
50
307.31855424023536
51
309.81536238380147
0
ARC
5
139
100
AcDbEntity
8
0
100
AcDbCircle
10
3.0025759656382434e-10
20
42.012864193847044
30
0
40
1.9999999999999993
210
0
220
0
230
1
100
AcDbArc
50
232.68144575976487
51
307.31855424023968
0
ARC
5
140
100
AcDbEntity
8
0
100
AcDbCircle
10
157.93161519667484
20
249.18853094053307
30
0
40
262.50748927904101
210
0
220
0
230
1
100
AcDbArc
50
230.18463761619984
51
232.68144575976487
0
ARC
5
141
100
AcDbEntity
8
0
100
AcDbCircle
10
-8.8754128261171061
20
49.089636958899163
30
0
40
1.999999999999996
210
0
220
0
230
1
100
AcDbArc
50
127.26149666157538
51
230.18463761619657
0
ARC
5
142
100
AcDbEntity
8
0
100
AcDbCircle
10
157.93161519661501
20
-170.18141003775924
30
0
40
277.50748927894386
210
0
220
0
230
1
100
AcDbArc
50
124.93949513620906
51
127.26149666157598
0
SPLINE
5
143
100
AcDbEntity
8
0
100
AcDbSpline
70
0
71
3
72
14
73
10
74
0
42
0.000000001
43
0.0000000001
44
0.0000000001
40
-0.21346600664963916
40
-0.21346600664963916
40
-0.21346600664963916
40
-0.21346600664963916
40
-0.17484932993510804
40
-0.17484932993510804
40
-0.13620004816663137
40
-0.13620004816663137
40
-0.068139935362067333
40
-0.068139935362067333
40
0
40
0
40
0
40
0
10
-0.99999999969965003
20
-19.07225006578642
30
0
10
-0.89447803457004427
20
-19.145971397566871
30
0
10
-0.78112819162504998
20
-19.207795789089495
30
0
10
-0.54281849574629426
20
-19.305441597783386
30
0
10
-0.41857672911511001
20
-19.340942801373796
30
0
10
-0.06789632447968974
20
-19.400333108370095
30
0
10
0.16103002197646338
20
-19.394266036498152
30
0
10
0.60400717794749559
20
-19.294841195633538
30
0
10
0.81380597126742571
20
-19.202331720094218
30
0
10
1.0000000003003069
20
-19.07225006578637
30
0
0
ARC
5
144
100
AcDbEntity
8
0
100
AcDbCircle
10
157.93161519672043
20
208.41653712394981
30
0
40
277.50748927911849
210
0
220
0
230
1
100
AcDbArc
50
232.73850333842401
51
235.06050486378948
0
ARC
5
145
100
AcDbEntity
8
0
100
AcDbCircle
10
-8.8754128261174081
20
-10.854509872847764
30
0
40
2
210
0
220
0
230
1
100
AcDbArc
50
129.81536238380019
51
232.73850333842262
0
ARC
5
146
100
AcDbEntity
8
0
100
AcDbCircle
10
157.93161519653009
20
-210.95340385430191
30
0
40
262.50748927881045
210
0
220
0
230
1
100
AcDbArc
50
127.31855424023384
51
129.81536238380104
0
ARC
5
147
100
AcDbEntity
8
0
100
AcDbCircle
10
3.0016877872185432e-10
20
-3.7777371077954314
30
0
40
2
210
0
220
-0
230
1
100
AcDbArc
50
52.681445759763783
51
127.31855424023928
0
ARC
5
148
100
AcDbEntity
8
0
100
AcDbCircle
10
-157.93161519606429
20
-210.9534038544615
30
0
40
262.50748927901896
210
0
220
-0
230
1
100
AcDbArc
50
50.184637616198735
51
52.68144575976396
0
ARC
5
149
100
AcDbEntity
8
0
100
AcDbCircle
10
8.8754128267176036
20
-10.854509872847871
30
0
40
1.9999999999999998
210
-0
220
0
230
1
100
AcDbArc
50
-52.738503338423371
51
50.184637616202458
0
ARC
5
150
100
AcDbEntity
8
0
100
AcDbCircle
10
-157.93161519605118
20
208.41653712385269
30
0
40
277.50748927899957
210
0
220
0
230
1
100
AcDbArc
50
304.93949513621033
51
307.2614966615767
0
CIRCLE
5
151
100
AcDbEntity
8
0
100
AcDbCircle
10
-12.999999999442322
20
-62.000000000000774
30
0
40
1.5500000000000003
210
0
220
-0
230
1
0
CIRCLE
5
152
100
AcDbEntity
8
0
100
AcDbCircle
10
13.000000000557678
20
-62.000000000000774
30
0
40
1.5500000000000003
210
0
220
-0
230
1
0
CIRCLE
5
153
100
AcDbEntity
8
0
100
AcDbCircle
10
-29.999999999700311
20
82.820562900225454
30
0
40
2.1999999999999971
210
0
220
-0
230
1
0
CIRCLE
5
154
100
AcDbEntity
8
0
100
AcDbCircle
10
-29.999999999699792
20
-3.8526421909330821
30
0
40
2.200000000000002
210
0
220
-0
230
1
0
CIRCLE
5
155
100
AcDbEntity
8
0
100
AcDbCircle
10
-29.999999999699547
20
-44.585435814175369
30
0
40
2.1999999999999971
210
0
220
-0
230
1
0
CIRCLE
5
156
100
AcDbEntity
8
0
100
AcDbCircle
10
30.000000000299941
20
42.08776927698441
30
0
40
2.200000000000002
210
0
220
-0
230
1
0
CIRCLE
5
157
100
AcDbEntity
8
0
100
AcDbCircle
10
30.000000000299707
20
82.820562900225809
30
0
40
2.1999999999999971
210
0
220
-0
230
1
0
CIRCLE
5
158
100
AcDbEntity
8
0
100
AcDbCircle
10
-29.999999999700059
20
42.087769276984055
30
0
40
2.200000000000002
210
0
220
-0
230
1
0
CIRCLE
5
159
100
AcDbEntity
8
0
100
AcDbCircle
10
30.000000000300219
20
-3.8526421909327269
30
0
40
2.200000000000002
210
0
220
-0
230
1
0
CIRCLE
5
160
100
AcDbEntity
8
0
100
AcDbCircle
10
30.000000000300453
20
-44.585435814175014
30
0
40
2.200000000000002
210
0
220
-0
230
1
0
CIRCLE
5
161
100
AcDbEntity
8
0
100
AcDbCircle
10
15.250000000300506
20
3.867563543026018
30
0
40
2.1999999999999997
210
0
220
-0
230
1
0
CIRCLE
5
162
100
AcDbEntity
8
0
100
AcDbCircle
10
15.250000000300508
20
34.36756354302603
30
0
40
2.1999999999999997
210
0
220
-0
230
1
0
CIRCLE
5
163
100
AcDbEntity
8
0
100
AcDbCircle
10
-15.24999999969949
20
34.367563543026023
30
0
40
2.1999999999999997
210
0
220
-0
230
1
0
CIRCLE
5
164
100
AcDbEntity
8
0
100
AcDbCircle
10
-15.249999999699499
20
3.8675635430260247
30
0
40
2.1999999999999997
210
0
220
-0
230
1
0
ARC
5
165
100
AcDbEntity
8
0
100
AcDbCircle
10
157.93161519661501
20
-170.18141003775924
30
0
40
289.5074892789446
210
0
220
0
230
1
100
AcDbArc
50
116.82365295684973
51
122.82426158770572
0
SPLINE
5
166
100
AcDbEntity
8
0
100
AcDbSpline
70
0
71
3
72
12
73
8
74
0
42
0.000000001
43
0.0000000001
44
0.0000000001
40
-0.21201778702155422
40
-0.21201778702155422
40
-0.21201778702155422
40
-0.21201778702155422
40
-0.1456250085082586
40
-0.1456250085082586
40
-0.07322572294801874
40
-0.07322572294801874
40
0
40
0
40
0
40
0
10
1.0000000003010179
20
73.102486882020202
30
0
10
0.81402560721161854
20
72.982523077336907
30
0
10
0.60797278561384627
20
72.896997660354273
30
0
10
0.15588187313527413
20
72.798764396771077
30
0
10
-0.087725590752285282
20
72.794292016717861
30
0
10
-0.5655371953736138
20
72.879880791102352
30
0
10
-0.79488568322159403
20
72.970176764531018
30
0
10
-0.99999999969899278
20
73.10248688202023
30
0
0
ARC
5
167
100
AcDbEntity
8
0
100
AcDbCircle
10
-157.93161519609561
20
-170.18141003785581
30
0
40
289.50748927906989
210
0
220
-0
230
1
100
AcDbArc
50
57.175738412290897
51
63.176347041781661
0
ARC
5
168
100
AcDbEntity
8
0
100
AcDbCircle
10
-29.999999999700311
20
82.820562900225454
30
0
40
6.0000000000023457
210
0
220
-0
230
1
100
AcDbArc
50
63.176346879647241
51
243.17634687965918
0
ARC
5
169
100
AcDbEntity
8
0
100
AcDbCircle
10
-157.93161519609561
20
-170.18141003785581
30
0
40
277.50748927906938
210
0
220
-0
230
1
100
AcDbArc
50
60.909313030119733
51
63.176347048792429
0
SPLINE
5
170
100
AcDbEntity
8
0
100
AcDbSpline
70
0
71
3
72
12
73
8
74
0
42
0.000000001
43
0.0000000001
44
0.0000000001
40
-0.21283418191794795
40
-0.21283418191794795
40
-0.21283418191794795
40
-0.21283418191794795
40
-0.14171935711359224
40
-0.14171935711359224
40
-0.07119308907358933
40
-0.07119308907358933
40
0
40
0
40
0
40
0
10
-23.009319775456021
20
72.318859661784785
30
0
10
-22.802173844133581
20
72.203607812474743
30
0
10
-22.619913197401644
20
72.048429967595553
30
0
10
-22.327498746782091
20
71.677745312781113
30
0
10
-22.219592614665181
20
71.466338403569807
30
0
10
-22.090863744021068
20
71.011818202474529
30
0
10
-22.072144413555041
20
70.772909578084139
30
0
10
-22.100460026782265
20
70.537294631469948
30
0
0
ELLIPSE
5
171
100
AcDbEntity
8
0
100
AcDbEllipse
10
3.0050628652134037e-10
20
19.117563543026019
30
0
11
-3.0616169978683834e-15
21
-110
31
0.0
40
0.22727272727272727
41
4.2259825849230648
42
4.3663886194695607
0
SPLINE
5
172
100
AcDbEntity
8
0
100
AcDbSpline
70
0
71
3
72
12
73
8
74
0
42
0.000000001
43
0.0000000001
44
0.0000000001
40
-0.20595962262068118
40
-0.20595962262068118
40
-0.20595962262068118
40
-0.20595962262068118
40
-0.15407404466074923
40
-0.15407404466074923
40
-0.1011075293278948
40
-0.1011075293278948
40
0
40
0
40
0
40
0
10
-23.518416575899455
20
56.42273506987376
30
0
10
-23.532539616033961
20
56.250360742815246
30
0
10
-23.564195017892654
20
56.079873859156173
30
0
10
-23.662602956958612
20
55.744506888585619
30
0
10
-23.72980642324746
20
55.580725862958559
30
0
10
-23.973017857944274
20
55.12838443511319
30
0
10
-24.189998557150844
20
54.866179903209691
30
0
10
-24.451736619815705
20
54.653861502988832
30
0
0
ARC
5
173
100
AcDbEntity
8
0
100
AcDbCircle
10
157.93161519661501
20
-170.18141003775924
30
0
40
289.50748927894398
210
0
220
0
230
1
100
AcDbArc
50
129.04850013181886
51
131.51993567217374
0
ARC
5
174
100
AcDbEntity
8
0
100
AcDbCircle
10
-29.999999999700059
20
42.087769276984055
30
0
40
6.000000000000246
210
0
220
0
230
1
100
AcDbArc
50
131.51993559259805
51
306.16141302817113
0
SPLINE
5
175
100
AcDbEntity
8
0
100
AcDbSpline
70
0
71
3
72
18
73
14
74
0
42
0.000000001
43
0.0000000001
44
0.0000000001
40
-0.24948766690994414
40
-0.24948766690994414
40
-0.24948766690994414
40
-0.24948766690994414
40
-0.21580344715163408
40
-0.21580344715163408
40
-0.17470993713055596
40
-0.17470993713055596
40
-0.13209456779561277
40
-0.13209456779561277
40
-0.087795667557673956
40
-0.087795667557673956
40
-0.043733637107947393
40
-0.043733637107947393
40
0
40
0
40
0
40
0
10
-26.459627577310563
20
37.24362197216486
30
0
10
-26.368976842667706
20
37.309874573665979
30
0
10
-26.268808693183033
20
37.362011182180609
30
0
10
-26.032892257603812
20
37.442469457017992
30
0
10
-25.896183051772368
20
37.462341611053446
30
0
10
-25.617376380561403
20
37.451190083512728
30
0
10
-25.477833807296825
20
37.418356938534252
30
0
10
-25.213559462042291
20
37.299641284085233
30
0
10
-25.092260218229029
20
37.212895559975607
30
0
10
-24.891197995127708
20
36.997661514451764
30
0
10
-24.813195859064969
20
36.871517869786445
30
0
10
-24.711129500078115
20
36.59724103286225
30
0
10
-24.68765750912408
20
36.451938826983152
30
0
10
-24.692895674631714
20
36.306254176656196
30
0
0
ELLIPSE
5
176
100
AcDbEntity
8
0
100
AcDbEllipse
10
3.0050628652134037e-10
20
19.117563543026019
30
0
11
-3.0616169978683834e-15
21
-110
31
0.0
40
0.22727272727272727
41
4.5554851508148015
42
4.8692928099545902
0
SPLINE
5
177
100
AcDbEntity
8
0
100
AcDbSpline
70
0
71
3
72
18
73
14
74
0
42
0.000000001
43
0.0000000001
44
0.0000000001
40
-0.24948766690994478
40
-0.24948766690994478
40
-0.24948766690994478
40
-0.24948766690994478
40
-0.21580344715163435
40
-0.21580344715163435
40
-0.1747099371305561
40
-0.1747099371305561
40
-0.13209456779561185
40
-0.13209456779561185
40
-0.087795667557673082
40
-0.087795667557673082
40
-0.043733637107946928
40
-0.043733637107946928
40
0
40
0
40
0
40
0
10
-24.692895674631671
20
1.92887290939455
30
0
10
-24.688861170991963
20
1.8166646847524204
30
0
10
-24.701851393836204
20
1.704490096591611
30
0
10
-24.767500279487571
20
1.4640315297262396
30
0
10
-24.827694225907905
20
1.3396892670822824
30
0
10
-24.993246884944558
20
1.11507886312884
30
0
10
-25.098671450028714
20
1.0179407849138866
30
0
10
-25.345143528099214
20
0.86567177656818206
30
0
10
-25.484981297948416
20
0.81386709217986519
30
0
10
-25.775933156604012
20
0.76805521756358797
30
0
10
-25.924118508708055
20
0.77419148202986898
30
0
10
-26.208455998055932
20
0.84345559294827233
30
0
10
-26.341931921573632
20
0.90548657902600915
30
0
10
-26.459627577310517
20
0.99150511388587326
30
0
0
ARC
5
178
100
AcDbEntity
8
0
100
AcDbCircle
10
-29.999999999699792
20
-3.8526421909330821
30
0
40
5.9999999999999378
210
0
220
-0
230
1
100
AcDbArc
50
53.838586971829201
51
228.48006437391396
0
ARC
5
179
100
AcDbEntity
8
0
100
AcDbCircle
10
157.93161519672043
20
208.41653712394981
30
0
40
289.50748927911803
210
0
220
0
230
1
100
AcDbArc
50
228.48006432713495
51
230.95149986818231
0
SPLINE
5
180
100
AcDbEntity
8
0
100
AcDbSpline
70
0
71
3
72
12
73
8
74
0
42
0.000000001
43
0.0000000001
44
0.0000000001
40
-0.20595962262067835
40
-0.20595962262067835
40
-0.20595962262067835
40
-0.20595962262067835
40
-0.15407404466075131
40
-0.15407404466075131
40
-0.10110752932789886
40
-0.10110752932789886
40
0
40
0
40
0
40
0
10
-24.451736619815634
20
-16.418734416937362
30
0
10
-24.317419910211981
20
-16.527690327344992
30
0
10
-24.194557476135358
20
-16.650053165900577
30
0
10
-23.973271627263337
20
-16.92058542000321
30
0
10
-23.876009976436659
20
-17.068506687964092
30
0
10
-23.639901415249405
20
-17.524595842238302
30
0
10
-23.545937628005671
20
-17.851708433047214
30
0
10
-23.518416575899408
20
-18.187607983822257
30
0
0
ELLIPSE
5
181
100
AcDbEntity
8
0
100
AcDbEllipse
10
3.0050628652134037e-10
20
19.117563543026019
30
0
11
-3.0616169978683834e-15
21
-110
31
0.0
40
0.22727272727272727
41
5.0583893412998231
42
5.1987953758463163
0
SPLINE
5
182
100
AcDbEntity
8
0
100
AcDbSpline
70
0
71
3
72
12
73
8
74
0
42
0.000000001
43
0.0000000001
44
0.0000000001
40
-0.21283418191794881
40
-0.21283418191794881
40
-0.21283418191794881
40
-0.21283418191794881
40
-0.14171935711358535
40
-0.14171935711358535
40
-0.071193089073586402
40
-0.071193089073586402
40
0
40
0
40
0
40
0
10
-22.100460026782255
20
-32.30216754541803
30
0
10
-22.072175541587335
20
-32.537523474874021
30
0
10
-22.090822335601487
20
-32.776168407695778
30
0
10
-22.219283812735942
20
-33.230493151836455
30
0
10
-22.327098585162691
20
-33.441946667903863
30
0
10
-22.619514320515385
20
-33.812962534221079
30
0
10
-22.801945873032132
20
-33.968353887865781
30
0
10
-23.009319775456003
20
-34.083732575732881
30
0
0
ARC
5
183
100
AcDbEntity
8
0
100
AcDbCircle
10
-157.93161519605118
20
208.41653712385269
30
0
40
277.50748927899974
210
0
220
0
230
1
100
AcDbArc
50
296.82365295133224
51
299.09068696987777
0
ARC
5
184
100
AcDbEntity
8
0
100
AcDbCircle
10
-29.999999999699547
20
-44.585435814175369
30
0
40
5.9999999999998472
210
0
220
0
230
1
100
AcDbArc
50
116.82365311443046
51
296.82410863047602
0
ARC
5
185
100
AcDbEntity
8
0
100
AcDbCircle
10
-157.93161519605118
20
208.41653712385269
30
0
40
289.50748927881369
210
-0
220
0
230
1
100
AcDbArc
50
296.8236623985955
51
298.08732405843881
0
SPLINE
5
186
100
AcDbEntity
8
0
100
AcDbSpline
70
0
71
3
72
16
73
12
74
0
42
0.000000001
43
0.0000000001
44
0.0000000001
40
-0.23382019598504195
40
-0.23382019598504195
40
-0.23382019598504195
40
-0.23382019598504195
40
-0.19271024994289293
40
-0.19271024994289293
40
-0.14613551974004418
40
-0.14613551974004418
40
-0.097791055518448161
40
-0.097791055518448161
40
-0.048779394003093265
40
-0.048779394003093265
40
0
40
0
40
0
40
0
10
-21.626651380455879
20
-46.995959022580429
30
0
10
-21.505756477630548
20
-46.931441524009614
30
0
10
-21.37495917537538
20
-46.887499931188124
30
0
10
-21.086317347877554
20
-46.841512851375235
30
0
10
-20.92976121485027
20
-46.846222991424881
30
0
10
-20.620862547696454
20
-46.914698346191635
30
0
10
-20.471873379694266
20
-46.980042958478172
30
0
10
-20.205601483746392
20
-47.165549777372256
30
0
10
-20.091413863444643
20
-47.284624387134983
30
0
10
-19.916443865432335
20
-47.559655406012126
30
0
10
-19.85712230785046
20
-47.712744337014968
30
0
10
-19.829170840083659
20
-47.872921796581274
30
0
0
ELLIPSE
5
187
100
AcDbEntity
8
0
100
AcDbEllipse
10
3.0050628652134037e-10
20
19.117563543026019
30
0
11
-3.0616169978683834e-15
21
-110
31
0.0
40
0.22727272727272727
41
5.367193759467054
42
7.1991768548898856
0
SPLINE
5
188
100
AcDbEntity
8
0
100
AcDbSpline
70
0
71
3
72
16
73
12
74
0
42
0.000000001
43
0.0000000001
44
0.0000000001
40
-0.23382019598500564
40
-0.23382019598500564
40
-0.23382019598500564
40
-0.23382019598500564
40
-0.19271024994295843
40
-0.19271024994295843
40
-0.14613551974009475
40
-0.14613551974009475
40
-0.097791055518485853
40
-0.097791055518485853
40
-0.048779394003113298
40
-0.048779394003113298
40
0
40
0
40
0
40
0
10
19.829170840650672
20
-47.872921796776069
30
0
10
19.852727577161616
20
-47.737928592073601
30
0
10
19.898596067193736
20
-47.60779450937811
30
0
10
20.040000659985214
20
-47.351994475702767
30
0
10
20.140068325277518
20
-47.231501859453033
30
0
10
20.384155271569952
20
-47.030184141828542
30
0
10
20.527355483305687
20
-46.952974104296423
30
0
10
20.837446734526878
20
-46.857282316017475
30
0
10
21.001575631603593
20
-46.840570629545823
30
0
10
21.326033023991133
20
-46.871938799307323
30
0
10
21.483202394448515
20
-46.919405176666331
30
0
10
21.626651381023176
20
-46.995959022775828
30
0
0
ARC
5
189
100
AcDbEntity
8
0
100
AcDbCircle
10
157.93161519672043
20
208.41653712394981
30
0
40
289.5074892791198
210
0
220
0
230
1
100
AcDbArc
50
241.91267594157068
51
243.17634704280144
0
ARC
5
190
100
AcDbEntity
8
0
100
AcDbCircle
10
30.000000000300453
20
-44.585435814175014
30
0
40
6.0000000000033076
210
0
220
0
230
1
100
AcDbArc
50
-116.82365307112435
51
63.176343387092139
0
ARC
5
191
100
AcDbEntity
8
0
100
AcDbCircle
10
157.93161519672043
20
208.41653712394981
30
0
40
277.50748927911758
210
0
220
0
230
1
100
AcDbArc
50
240.90931303011965
51
243.17634712430484
0
SPLINE
5
192
100
AcDbEntity
8
0
100
AcDbSpline
70
0
71
3
72
12
73
8
74
0
42
0.000000001
43
0.0000000001
44
0.0000000001
40
-0.21283418191794357
40
-0.21283418191794357
40
-0.21283418191794357
40
-0.21283418191794357
40
-0.14171935711359146
40
-0.14171935711359146
40
-0.071193089073589566
40
-0.071193089073589566
40
0
40
0
40
0
40
0
10
23.009319776056962
20
-34.083732575732775
30
0
10
22.802173844734543
20
-33.968480726422719
30
0
10
22.619913198002632
20
-33.813302881543521
30
0
10
22.327498747383096
20
-33.442618226729067
30
0
10
22.21959261526618
20
-33.23121131751779
30
0
10
22.090863744622069
20
-32.776691116422512
30
0
10
22.072144414156053
20
-32.537782492032115
30
0
10
22.100460027383278
20
-32.302167545417923
30
0
0
ELLIPSE
5
193
100
AcDbEntity
8
0
100
AcDbEllipse
10
3.0050628652134037e-10
20
19.117563543026019
30
0
11
-3.0616169978683834e-15
21
-110
31
0.0
40
0.22727272727272727
41
1.0843899313332712
42
1.2247959658797691
0
SPLINE
5
194
100
AcDbEntity
8
0
100
AcDbSpline
70
0
71
3
72
12
73
8
74
0
42
0.000000001
43
0.0000000001
44
0.0000000001
40
-0.20595962262067924
40
-0.20595962262067924
40
-0.20595962262067924
40
-0.20595962262067924
40
-0.15407404466075766
40
-0.15407404466075766
40
-0.10110752932791081
40
-0.10110752932791081
40
0
40
0
40
0
40
0
10
23.518416576500478
20
-18.187607983821611
30
0
10
23.532539616634978
20
-18.01523365676314
30
0
10
23.56419501849367
20
-17.844746773104099
30
0
10
23.662602957559578
20
-17.509379802533594
30
0
10
23.729806423848384
20
-17.345598776906552
30
0
10
23.973017858545145
20
-16.893257349061116
30
0
10
24.189998557751707
20
-16.631052817157553
30
0
10
24.451736620416575
20
-16.418734416936616
30
0
0
ARC
5
195
100
AcDbEntity
8
0
100
AcDbCircle
10
-157.93161519605118
20
208.41653712385269
30
0
40
289.50748927899934
210
-0
220
0
230
1
100
AcDbArc
50
309.04850013181942
51
311.51993567266294
0
ARC
5
196
100
AcDbEntity
8
0
100
AcDbCircle
10
30.000000000300219
20
-3.8526421909327269
30
0
40
5.9999999999982379
210
-0
220
0
230
1
100
AcDbArc
50
-48.480064383791515
51
126.16141302816365
0
SPLINE
5
197
100
AcDbEntity
8
0
100
AcDbSpline
70
0
71
3
72
18
73
14
74
0
42
0.000000001
43
0.0000000001
44
0.0000000001
40
-0.24948766690993707
40
-0.24948766690993707
40
-0.24948766690993707
40
-0.24948766690993707
40
-0.21580344715163899
40
-0.21580344715163899
40
-0.17470993713055977
40
-0.17470993713055977
40
-0.13209456779561385
40
-0.13209456779561385
40
-0.087795667557674553
40
-0.087795667557674553
40
-0.043733637107947664
40
-0.043733637107947664
40
0
40
0
40
0
40
0
10
26.459627577911505
20
0.99150511388672591
30
0
10
26.368976843268669
20
0.92525251238563699
30
0
10
26.268808693784031
20
0.87311590387104676
30
0
10
26.032892258204843
20
0.79265762903367953
30
0
10
25.896183052373395
20
0.77278547499821659
30
0
10
25.617376381162416
20
0.78393700253893916
30
0
10
25.477833807897831
20
0.81677014751741162
30
0
10
25.213559462643289
20
0.93548580196644693
30
0
10
25.092260218830027
20
1.0222315260760717
30
0
10
24.891197995728707
20
1.2374655715999161
30
0
10
24.813195859665967
20
1.3636092162652336
30
0
10
24.711129500679117
20
1.6378860531894301
30
0
10
24.687657509725085
20
1.7831882590685311
30
0
10
24.69289567523272
20
1.9288729093954915
30
0
0
ELLIPSE
5
198
100
AcDbEntity
8
0
100
AcDbEllipse
10
3.0050628652134037e-10
20
19.117563543026019
30
0
11
-3.0616169978683834e-15
21
-110
31
0.0
40
0.22727272727272727
41
1.4138924972250051
42
1.7277001563647831
0
SPLINE
5
199
100
AcDbEntity
8
0
100
AcDbSpline
70
0
71
3
72
18
73
14
74
0
42
0.000000001
43
0.0000000001
44
0.0000000001
40
-0.24948766690993493
40
-0.24948766690993493
40
-0.24948766690993493
40
-0.24948766690993493
40
-0.21580344715164385
40
-0.21580344715164385
40
-0.17470993713056474
40
-0.17470993713056474
40
-0.13209456779561729
40
-0.13209456779561729
40
-0.087795667557676343
40
-0.087795667557676343
40
-0.043733637107948406
40
-0.043733637107948406
40
0
40
0
40
0
40
0
10
24.692895675232734
20
36.306254176655997
30
0
10
24.688861171593036
20
36.418462401298072
30
0
10
24.701851394437266
20
36.530636989458813
30
0
10
24.767500280088576
20
36.771095556324134
30
0
10
24.827694226508878
20
36.895437818968105
30
0
10
24.993246885545499
20
37.120048222921589
30
0
10
25.098671450629652
20
37.217186301136572
30
0
10
25.345143528700138
20
37.369455309482326
30
0
10
25.484981298549336
20
37.42125999387067
30
0
10
25.775933157204935
20
37.467071868487011
30
0
10
25.924118509308983
20
37.46093560402074
30
0
10
26.208455998656888
20
37.391671493102379
30
0
10
26.341931922174599
20
37.329640507024671
30
0
10
26.459627577911501
20
37.243621972164824
30
0
0
ARC
5
200
100
AcDbEntity
8
0
100
AcDbCircle
10
30.000000000299941
20
42.08776927698441
30
0
40
5.9999999999999538
210
0
220
0
230
1
100
AcDbArc
50
-126.16141302816084
51
48.480064316600441
0
ARC
5
201
100
AcDbEntity
8
0
100
AcDbCircle
10
-157.93161519609561
20
-170.18141003785581
30
0
40
289.50748927906977
210
0
220
-0
230
1
100
AcDbArc
50
48.480064325945193
51
50.951499868179994
0
SPLINE
5
202
100
AcDbEntity
8
0
100
AcDbSpline
70
0
71
3
72
12
73
8
74
0
42
0.000000001
43
0.0000000001
44
0.0000000001
40
-0.20595962262068196
40
-0.20595962262068196
40
-0.20595962262068196
40
-0.20595962262068196
40
-0.15407404466073987
40
-0.15407404466073987
40
-0.10110752932787324
40
-0.10110752932787324
40
0
40
0
40
0
40
0
10
24.451736620417233
20
54.653861502984356
30
0
10
24.317419910813523
20
54.762817413391993
30
0
10
24.194557476736854
20
54.88518025194761
30
0
10
23.973271627864747
20
55.155712506050293
30
0
10
23.876009977038031
20
55.303633774011203
30
0
10
23.639901415850805
20
55.759722928285385
30
0
10
23.545937628607092
20
56.086835519094222
30
0
10
23.51841657650084
20
56.422735069869177
30
0
0
ELLIPSE
5
203
100
AcDbEntity
8
0
100
AcDbEllipse
10
3.0050628652134037e-10
20
19.117563543026019
30
0
11
-3.0616169978683834e-15
21
-110
31
0.0
40
0.22727272727272727
41
1.9167966877099809
42
2.0572027222565112
0
SPLINE
5
204
100
AcDbEntity
8
0
100
AcDbSpline
70
0
71
3
72
12
73
8
74
0
42
0.000000001
43
0.0000000001
44
0.0000000001
40
-0.21283418191794592
40
-0.21283418191794592
40
-0.21283418191794592
40
-0.21283418191794592
40
-0.14171935711358441
40
-0.14171935711358441
40
-0.071193089073587346
40
-0.071193089073587346
40
0
40
0
40
0
40
0
10
22.100460027383406
20
70.53729463146891
30
0
10
22.072175542188489
20
70.772650560924902
30
0
10
22.090822336202642
20
71.011295493746644
30
0
10
22.219283813337096
20
71.465620237887308
30
0
10
22.327098585763849
20
71.677073753954687
30
0
10
22.619514321116547
20
72.048089620271909
30
0
10
22.801945873633297
20
72.203480973916612
30
0
10
23.009319776057175
20
72.318859661783705
30
0
0
ARC
5
205
100
AcDbEntity
8
0
100
AcDbCircle
10
157.93161519661501
20
-170.18141003775924
30
0
40
277.5074892789446
210
0
220
0
230
1
100
AcDbArc
50
116.82364216709323
51
119.09068696987532
0
ARC
5
206
100
AcDbEntity
8
0
100
AcDbCircle
10
30.000000000299707
20
82.820562900225809
30
0
40
6.000000000232605
210
-0
220
0
230
1
100
AcDbArc
50
-63.175848101176811
51
116.82365305458183
0
ENDSEC
0
SECTION
2
OBJECTS
0
DICTIONARY
5
C
100
AcDbDictionary
3
ACAD_GROUP
350
D
3
ACAD_MLINESTYLE
350
17
0
DICTIONARY
5
D
100
AcDbDictionary
0
DICTIONARY
5
1A
330
C
100
AcDbDictionary
0
DICTIONARY
5
17
100
AcDbDictionary
0
ENDSEC
0
EOF
