0
SECTION
2
HEADER
9
$INSUNITS
70
4
9
$ACADVER
1
AC1014
9
$HANDSEED
5
FFFF
0
ENDSEC
0
SECTION
2
TABLES
0
TABLE
2
VPORT
5
8
100
AcDbSymbolTable
0
ENDTAB
0
TABLE
2
LTYPE
5
5
100
AcDbSymbolTable
0
LTYPE
5
14
100
AcDbSymbolTableRecord
100
AcDbLinetypeTableRecord
2
BYBLOCK
70
0
0
LTYPE
5
15
100
AcDbSymbolTableRecord
100
AcDbLinetypeTableRecord
2
BYLAYER
70
0
0
ENDTAB
0
TABLE
2
LAYER
5
2
100
AcDbSymbolTable
70
2
0
LAYER
5
50
100
AcDbSymbolTableRecord
100
AcDbLayerTableRecord
2
0
70
0
6
CONTINUOUS
0
ENDTAB
0
TABLE
2
STYLE
5
3
100
AcDbSymbolTable
70
1
0
STYLE
5
11
100
AcDbSymbolTableRecord
100
AcDbTextStyleTableRecord
2
STANDARD
70
0
0
ENDTAB
0
TABLE
2
VIEW
5
6
100
AcDbSymbolTable
70
0
0
ENDTAB
0
TABLE
2
UCS
5
7
100
AcDbSymbolTable
70
0
0
ENDTAB
0
TABLE
2
APPID
5
9
100
AcDbSymbolTable
70
2
0
APPID
5
12
100
AcDbSymbolTableRecord
100
AcDbRegAppTableRecord
2
ACAD
70
0
0
ENDTAB
0
TABLE
2
DIMSTYLE
5
A
100
AcDbSymbolTable
70
1
0
ENDTAB
0
TABLE
2
BLOCK_RECORD
5
1
100
AcDbSymbolTable
70
1
0
BLOCK_RECORD
5
1F
100
AcDbSymbolTableRecord
100
AcDbBlockTableRecord
2
*MODEL_SPACE
0
BLOCK_RECORD
5
1B
100
AcDbSymbolTableRecord
100
AcDbBlockTableRecord
2
*PAPER_SPACE
0
ENDTAB
0
ENDSEC
0
SECTION
2
BLOCKS
0
BLOCK
5
20
100
AcDbEntity
100
AcDbBlockBegin
2
*MODEL_SPACE
0
ENDBLK
5
21
100
AcDbEntity
100
AcDbBlockEnd
0
BLOCK
5
1C
100
AcDbEntity
100
AcDbBlockBegin
2
*PAPER_SPACE
0
ENDBLK
5
1D
100
AcDbEntity
100
AcDbBlockEnd
0
ENDSEC
0
SECTION
2
ENTITIES
0
CIRCLE
5
100
100
AcDbEntity
8
0
100
AcDbCircle
10
-15.249999999999542
20
-35.166223354610686
30
0
40
1.5500000000000003
210
0
220
0
230
1
0
CIRCLE
5
101
100
AcDbEntity
8
0
100
AcDbCircle
10
15.250000000000403
20
55.687665161456536
30
0
40
1.5500000000000025
210
0
220
0
230
1
0
CIRCLE
5
102
100
AcDbEntity
8
0
100
AcDbCircle
10
15.250000000000401
20
35.187665161456536
30
0
40
1.5500000000000025
210
0
220
0
230
1
0
CIRCLE
5
103
100
AcDbEntity
8
0
100
AcDbCircle
10
-15.249999999999552
20
-55.666223354610693
30
0
40
1.5500000000000025
210
0
220
0
230
1
0
CIRCLE
5
104
100
AcDbEntity
8
0
100
AcDbCircle
10
15.250000000000451
20
-35.166223354610686
30
0
40
1.5500000000000003
210
0
220
0
230
1
0
CIRCLE
5
105
100
AcDbEntity
8
0
100
AcDbCircle
10
-15.249999999999597
20
55.687665161456536
30
0
40
1.5499999999999958
210
0
220
0
230
1
0
CIRCLE
5
106
100
AcDbEntity
8
0
100
AcDbCircle
10
-15.249999999999599
20
35.187665161456536
30
0
40
1.5500000000000025
210
0
220
0
230
1
0
CIRCLE
5
107
100
AcDbEntity
8
0
100
AcDbCircle
10
15.250000000000449
20
-55.666223354610693
30
0
40
1.5500000000000003
210
0
220
0
230
1
0
LWPOLYLINE
5
108
100
AcDbEntity
8
0
100
AcDbPolyline
90
8
70
1
43
0.0
10
0.32203470148802871
20
5.1289759517240725
42
-0.042822157701763258
10
5.1289759517242741
20
0.32203470148783281
42
-0.36491865331083928
10
5.1289759517243114
20
-0.32203470148734814
42
-0.042822157701764813
10
0.3220347014880407
20
-5.1289759517236009
42
-0.36491865331082857
10
-0.32203470148713997
20
-5.1289759517235858
42
-0.042822157701762925
10
-5.1289759517233584
20
-0.32203470148737845
42
-0.36491865331083151
10
-5.1289759517233851
20
0.32203470148775282
42
-0.042822157701764479
10
-0.32203470148710633
20
5.1289759517240441
42
-0.36491865331080942
0
LWPOLYLINE
5
109
100
AcDbEntity
8
0
100
AcDbPolyline
90
6
70
1
43
0.0
10
11.925988442897232
20
11.281919039921792
42
-0.052346172418339845
10
8.206372350393039
20
3.8592841054052918
42
-0.49716399824957325
10
7.4115868686061281
20
3.7964407972620906
42
0.029232797522265517
10
3.7964407972623477
20
7.4115868686058839
42
-0.49716399824955881
10
3.859284105405536
20
8.2063723503927495
42
-0.05234617241833929
10
11.281919039922027
20
11.925988442896971
42
-0.64474402059186631
0
LWPOLYLINE
5
110
100
AcDbEntity
8
0
100
AcDbPolyline
90
6
70
1
43
0.0
10
11.281919039921998
20
-11.925988442896633
42
-0.052346172418338284
10
3.8592841054055089
20
-8.2063723503923374
42
-0.49716399824955748
10
3.7964407972623304
20
-7.4115868686054442
42
0.029232797522267422
10
7.4115868686061139
20
-3.7964407972616598
42
-0.49716399824956647
10
8.206372350392936
20
-3.8592841054048623
42
-0.052346172418338284
10
11.925988442897202
20
-11.281919039921327
42
-0.64474402059188074
0
LWPOLYLINE
5
111
100
AcDbEntity
8
0
100
AcDbPolyline
90
6
70
1
43
0.0
10
-11.281919039921121
20
11.925988442897113
42
-0.052346172418339068
10
-3.859284105404543
20
8.2063723503927619
42
-0.49716399824955243
10
-3.7964407972613712
20
7.4115868686058617
42
0.029232797522266471
10
-7.4115868686051831
20
3.7964407972620551
42
-0.49716399824955615
10
-8.2063723503919928
20
3.8592841054052784
42
-0.052346172418338735
10
-11.925988442896319
20
11.281919039921808
42
-0.64474402059182134
0
LWPOLYLINE
5
112
100
AcDbEntity
8
0
100
AcDbPolyline
90
6
70
1
43
0.0
10
-11.925988442896319
20
-11.281919039921323
42
-0.052346172418339401
10
-8.2063723503920674
20
-3.8592841054048121
42
-0.49716399824955099
10
-7.4115868686051734
20
-3.7964407972616421
42
0.029232797522266232
10
-3.7964407972614111
20
-7.4115868686054034
42
-0.49716399824957219
10
-3.8592841054045746
20
-8.2063723503923018
42
-0.052346172418339845
10
-11.281919039921073
20
-11.925988442896514
42
-0.644744020591828
0
ARC
5
113
100
AcDbEntity
8
0
100
AcDbCircle
10
10.353553390593277
20
92.153553390593345
30
0
40
0.49999999999999273
210
0
220
0
230
1
100
AcDbArc
50
135.00000000000259
51
224.99999999999739
0
LINE
5
114
100
AcDbEntity
8
0
100
AcDbLine
10
9.9999999999999964
20
92.507106781186593
30
0
11
10
21
100.81666528902964
31
0
0
LINE
5
115
100
AcDbEntity
8
0
100
AcDbLine
10
10
20
100.81666528902964
30
0
11
-9.9999999999990408
21
100.81666528902964
31
0
0
LINE
5
116
100
AcDbEntity
8
0
100
AcDbLine
10
-9.9999999999990408
20
100.81666528902964
30
0
11
-9.9999999999991509
21
92.507106781185769
31
0
0
ARC
5
117
100
AcDbEntity
8
0
100
AcDbCircle
10
-10.353553390593284
20
92.153553390593345
30
0
40
0.50000000000000056
210
0
220
0
230
1
100
AcDbArc
50
-45.000000000011653
51
44.999999999861529
0
LINE
5
118
100
AcDbEntity
8
0
100
AcDbLine
10
-10.00000000000008
20
91.799999999999997
30
0
11
-10.004554884988828
21
91.799999999999997
31
0
0
ARC
5
119
100
AcDbEntity
8
0
100
AcDbCircle
10
-11.099999999974941
20
91.899999999997789
30
0
40
1.0999999999756809
210
0
220
0
230
1
100
AcDbArc
50
354.52526065881864
51
354.78409142954575
0
ARC
5
120
100
AcDbEntity
8
0
100
AcDbCircle
10
-10.353553390593284
20
92.153553390593345
30
0
40
0.499999999999999
210
0
220
0
230
1
100
AcDbArc
50
225.0000000000118
51
314.19249327616882
0
LINE
5
121
100
AcDbEntity
8
0
100
AcDbLine
10
-10.707106781186486
20
91.799999999999997
30
0
11
-11.492893218813512
21
91.799999999999997
31
0
0
ARC
5
122
100
AcDbEntity
8
0
100
AcDbCircle
10
-11.846446609406714
20
92.153553390593345
30
0
40
0.50000000000000144
210
0
220
0
230
1
100
AcDbArc
50
225.80750672412961
51
314.99999999998818
0
ARC
5
123
100
AcDbEntity
8
0
100
AcDbCircle
10
-11.099999999974941
20
91.899999999997789
30
0
40
1.1000000000239083
210
0
220
0
230
1
100
AcDbArc
50
185.21590857022494
51
185.47473934103587
0
LINE
5
124
100
AcDbEntity
8
0
100
AcDbLine
10
-12.195445115009482
20
91.799999999999997
30
0
11
-12.199999999999999
21
91.800000000000082
31
0
0
ARC
5
125
100
AcDbEntity
8
0
100
AcDbCircle
10
-11.846446609406714
20
92.153553390593345
30
0
40
0.49999999999999589
210
0
220
0
230
1
100
AcDbArc
50
134.99999999986483
51
224.99999999999812
0
LINE
5
126
100
AcDbEntity
8
0
100
AcDbLine
10
-12.199999999999147
20
92.507106781187446
30
0
11
-12.19999999999914
21
93.328224528305782
31
0
0
ARC
5
127
100
AcDbEntity
8
0
100
AcDbCircle
10
-12.69999999999915
20
93.328224528305782
30
0
40
0.50000000000000933
210
0
220
0
230
1
100
AcDbArc
50
0
51
159.860728637297
0
ELLIPSE
5
128
100
AcDbEntity
8
0
100
AcDbEllipse
10
4.7961634663806763e-13
20
2.3092638912203256e-13
30
0
11
-3.0616169978683834e-15
21
-110
31
0.0
40
0.22727272727272727
41
3.6963971948188061
42
4.05758420130012
0
SPLINE
5
129
100
AcDbEntity
8
0
100
AcDbSpline
70
0
71
3
72
16
73
12
74
0
42
0.000000001
43
0.0000000001
44
0.0000000001
40
0
40
0
40
0
40
0
40
0.048779394003113381
40
0.048779394003113381
40
0.097791055518485409
40
0.097791055518485409
40
0.14613551974009761
40
0.14613551974009761
40
0.19271024994296065
40
0.19271024994296065
40
0.23382019598500428
40
0.23382019598500428
40
0.23382019598500428
40
0.23382019598500428
10
-21.626651380722564
20
66.113522565799656
30
0
10
-21.483202394147895
20
66.036968719690179
30
0
10
-21.326033023690513
20
65.989502342331178
30
0
10
-21.001575631302977
20
65.958134172569714
30
0
10
-20.837446734226258
20
65.974845859041352
30
0
10
-20.527355483005074
20
66.070537647320322
30
0
10
-20.384155271269325
20
66.147747684852462
30
0
10
-20.140068324976902
20
66.349065402476981
30
0
10
-20.040000659684594
20
66.469558018726715
30
0
10
-19.898596066893141
20
66.725358052402044
30
0
10
-19.852727576861035
20
66.855492135097535
30
0
10
-19.829170840350095
20
66.990485339799989
30
0
0
ARC
5
130
100
AcDbEntity
8
0
100
AcDbCircle
10
-157.93161519658906
20
-189.298973581273
30
0
40
289.50748927950565
210
0
220
-0
230
1
100
AcDbArc
50
61.91267594157344
51
63.176347041782485
0
ARC
5
131
100
AcDbEntity
8
0
100
AcDbCircle
10
-30.000000000000327
20
63.702999357199666
30
0
40
6.0000000000023723
210
0
220
-0
230
1
100
AcDbArc
50
63.176346879649437
51
243.17634687964991
0
ARC
5
132
100
AcDbEntity
8
0
100
AcDbCircle
10
-157.93161519658906
20
-189.298973581273
30
0
40
277.50748927950531
210
0
220
-0
230
1
100
AcDbArc
50
60.90931303012411
51
63.176347048793453
0
SPLINE
5
133
100
AcDbEntity
8
0
100
AcDbSpline
70
0
71
3
72
12
73
8
74
0
42
0.000000001
43
0.0000000001
44
0.0000000001
40
0
40
0
40
0
40
0
40
0.071193089073587137
40
0.071193089073587137
40
0.14171935711358663
40
0.14171935711358663
40
0.21283418191794751
40
0.21283418191794751
40
0.21283418191794751
40
0.21283418191794751
10
-22.100460027082306
20
51.419731088444074
30
0
10
-22.072144413855078
20
51.655346035058265
30
0
10
-22.090863744321094
20
51.894254659448649
30
0
10
-22.219592614965194
20
52.348774860543905
30
0
10
-22.327498747082096
20
52.560181769755189
30
0
10
-22.619913197701646
20
52.930866424569643
30
0
10
-22.802173844433597
20
53.086044269448863
30
0
10
-23.009319775756047
20
53.201296118758918
30
0
0
ELLIPSE
5
134
100
AcDbEntity
8
0
100
AcDbEllipse
10
4.7961634663806763e-13
20
2.3092638912203256e-13
30
0
11
-3.0616169978683834e-15
21
-110
31
0.0
40
0.22727272727272727
41
4.2259825849230648
42
4.3663886194695616
0
SPLINE
5
135
100
AcDbEntity
8
0
100
AcDbSpline
70
0
71
3
72
12
73
8
74
0
42
0.000000001
43
0.0000000001
44
0.0000000001
40
0
40
0
40
0
40
0
40
0.10110752932789405
40
0.10110752932789405
40
0.15407404466075025
40
0.15407404466075025
40
0.2059596226206821
40
0.2059596226206821
40
0.2059596226206821
40
0.2059596226206821
10
-24.451736620115749
20
35.536297959963008
30
0
10
-24.189998557450888
20
35.748616360183867
30
0
10
-23.973017858244322
20
36.010820892087338
30
0
10
-23.729806423547501
20
36.463162319932714
30
0
10
-23.662602957258649
20
36.626943345559781
30
0
10
-23.564195018192692
20
36.962310316130342
30
0
10
-23.532539616333992
20
37.132797199789415
30
0
10
-23.518416576199485
20
37.305171526847921
30
0
0
ARC
5
136
100
AcDbEntity
8
0
100
AcDbCircle
10
157.9316151964662
20
-189.29897358097037
30
0
40
289.50748927918318
210
0
220
0
230
1
100
AcDbArc
50
129.04850013181903
51
131.51993567217195
0
ARC
5
137
100
AcDbEntity
8
0
100
AcDbCircle
10
-30.000000000000085
20
22.970205733958267
30
0
40
6.0000000000002665
210
0
220
0
230
1
100
AcDbArc
50
131.51993559260234
51
306.16141302817283
0
SPLINE
5
138
100
AcDbEntity
8
0
100
AcDbSpline
70
0
71
3
72
18
73
14
74
0
42
0.000000001
43
0.0000000001
44
0.0000000001
40
0
40
0
40
0
40
0
40
0.043733637107946796
40
0.043733637107946796
40
0.087795667557671819
40
0.087795667557671819
40
0.13209456779560932
40
0.13209456779560932
40
0.17470993713055322
40
0.17470993713055322
40
0.2158034471516308
40
0.2158034471516308
40
0.24948766690994628
40
0.24948766690994628
40
0.24948766690994628
40
0.24948766690994628
10
-24.692895674931734
20
17.188690633630745
30
0
10
-24.687657509424099
20
17.334375283957701
30
0
10
-24.711129500378135
20
17.479677489836799
30
0
10
-24.813195859364974
20
17.753954326760987
30
0
10
-24.891197995427717
20
17.880097971426306
30
0
10
-25.092260218529027
20
18.095332016950142
30
0
10
-25.213559462342275
20
18.182077741059768
30
0
10
-25.477833807596806
20
18.300793395508798
30
0
10
-25.617376380861391
20
18.33362654048727
30
0
10
-25.896183052072356
20
18.344778068027995
30
0
10
-26.0328922579038
20
18.324905913992534
30
0
10
-26.268808693483038
20
18.244447639155151
30
0
10
-26.368976842967726
20
18.192311030640525
30
0
10
-26.459627577610597
20
18.126058429139388
30
0
0
ELLIPSE
5
139
100
AcDbEntity
8
0
100
AcDbEllipse
10
4.7961634663806763e-13
20
2.3092638912203256e-13
30
0
11
-3.0616169978683834e-15
21
-110
31
0.0
40
0.22727272727272727
41
4.555485150814798
42
4.8692928099545894
0
SPLINE
5
140
100
AcDbEntity
8
0
100
AcDbSpline
70
4
71
3
72
8
73
4
74
0
42
0.000000001
43
0.0000000001
44
0.0000000001
40
0
40
0
40
0
40
0
40
1
40
1
40
1
40
1
41
1
41
0.62442658288026665
41
0.62442658288026665
41
1
10
-26.459627577610544
20
-18.126058429139835
30
0
10
-25.597655002801783
20
-18.756035954735083
30
0
10
-24.654532704084385
20
-18.255647373590811
30
0
10
-24.692895674931698
20
-17.188690633631168
30
0
0
ARC
5
141
100
AcDbEntity
8
0
100
AcDbCircle
10
-29.999999999999815
20
-22.970205733958871
30
0
40
6
210
0
220
-0
230
1
100
AcDbArc
50
53.838586971829685
51
228.48006438192044
0
ARC
5
142
100
AcDbEntity
8
0
100
AcDbCircle
10
157.9316151962972
20
189.298973580769
30
0
40
289.50748927892039
210
0
220
0
230
1
100
AcDbArc
50
228.48006432729881
51
230.95149986818191
0
SPLINE
5
143
100
AcDbEntity
8
0
100
AcDbSpline
70
0
71
3
72
12
73
8
74
0
42
0.000000001
43
0.0000000001
44
0.0000000001
40
0
40
0
40
0
40
0
40
0.10110752932789441
40
0.10110752932789441
40
0.15407404466074889
40
0.15407404466074889
40
0.20595962262068038
40
0.20595962262068038
40
0.20595962262068038
40
0.20595962262068038
10
-23.518416576199442
20
-37.305171526848
30
0
10
-23.545937628305701
20
-36.969271976072974
30
0
10
-23.639901415549431
20
-36.642159385264065
30
0
10
-23.876009976736682
20
-36.186070230989863
30
0
10
-23.973271627563367
20
-36.038148963028974
30
0
10
-24.194557476435399
20
-35.767616708926326
30
0
10
-24.317419910512029
20
-35.645253870370716
30
0
10
-24.451736620115696
20
-35.536297959963079
30
0
0
ELLIPSE
5
144
100
AcDbEntity
8
0
100
AcDbEllipse
10
4.7961634663806763e-13
20
2.3092638912203256e-13
30
0
11
-3.0616169978683834e-15
21
-110
31
0.0
40
0.22727272727272727
41
5.0583893412998231
42
5.1987953758463163
0
SPLINE
5
145
100
AcDbEntity
8
0
100
AcDbSpline
70
0
71
3
72
12
73
8
74
0
42
0.000000001
43
0.0000000001
44
0.0000000001
40
0
40
0
40
0
40
0
40
0.071193089073589275
40
0.071193089073589275
40
0.14171935711359063
40
0.14171935711359063
40
0.21283418191794895
40
0.21283418191794895
40
0.21283418191794895
40
0.21283418191794895
10
-23.00931977575603
20
-53.201296118758705
30
0
10
-22.801945873332148
20
-53.085917430891598
30
0
10
-22.619514320815401
20
-52.930526077246888
30
0
10
-22.3270985854627
20
-52.559510210929652
30
0
10
-22.219283813035947
20
-52.348056694862251
30
0
10
-22.090822335901503
20
-51.89373195072158
30
0
10
-22.072175541887358
20
-51.655087017899831
30
0
10
-22.100460027082278
20
-51.419731088443861
30
0
0
ARC
5
146
100
AcDbEntity
8
0
100
AcDbCircle
10
-157.93161519636308
20
189.2989735808442
30
0
40
277.5074892790206
210
0
220
0
230
1
100
AcDbArc
50
296.82365295133286
51
299.09068696987816
0
ARC
5
147
100
AcDbEntity
8
0
100
AcDbCircle
10
-29.99999999999957
20
-63.702999357201158
30
0
40
5.9999999999998099
210
0
220
0
230
1
100
AcDbArc
50
116.82365311442894
51
296.82410863047596
0
ARC
5
148
100
AcDbEntity
8
0
100
AcDbCircle
10
-157.93161519636308
20
189.2989735808442
30
0
40
289.50748927883461
210
0
220
0
230
1
100
AcDbArc
50
296.82366239859601
51
302.8242615877075
0
SPLINE
5
149
100
AcDbEntity
8
0
100
AcDbSpline
70
0
71
3
72
12
73
8
74
0
42
0.000000001
43
0.0000000001
44
0.0000000001
40
0
40
0
40
0
40
0
40
0.073225722948020461
40
0.073225722948020461
40
0.14562500850826149
40
0.14562500850826149
40
0.21201778702155111
40
0.21201778702155111
40
0.21201778702155111
40
0.21201778702155111
10
1.000000000000405
20
-53.984923338994442
30
0
10
0.79488568352299671
20
-53.85261322150523
30
0
10
0.56553719567499727
20
-53.762317248076599
30
0
10
0.087725591053655183
20
-53.67672847369213
30
0
10
-0.15588187283389537
20
-53.681200853745345
30
0
10
-0.60797278531244558
20
-53.77943411732857
30
0
10
-0.81402560691019166
20
-53.86495953431119
30
0
10
-0.99999999999957012
20
-53.984923338994477
30
0
0
ARC
5
150
100
AcDbEntity
8
0
100
AcDbCircle
10
157.9316151962972
20
189.298973580769
30
0
40
289.50748927892118
210
0
220
0
230
1
100
AcDbArc
50
237.1757384122954
51
243.17634704280917
0
ARC
5
151
100
AcDbEntity
8
0
100
AcDbCircle
10
30.000000000000423
20
-63.702999357200802
30
0
40
6.0000000000002309
210
0
220
0
230
1
100
AcDbArc
50
-116.82365307113281
51
63.176343408672068
0
ARC
5
152
100
AcDbEntity
8
0
100
AcDbCircle
10
157.9316151962972
20
189.298973580769
30
0
40
277.50748927892221
210
0
220
0
230
1
100
AcDbArc
50
240.90931303012633
51
243.17634712384648
0
SPLINE
5
153
100
AcDbEntity
8
0
100
AcDbSpline
70
0
71
3
72
12
73
8
74
0
42
0.000000001
43
0.0000000001
44
0.0000000001
40
0
40
0
40
0
40
0
40
0.071193089073583821
40
0.071193089073583821
40
0.14171935711358263
40
0.14171935711358263
40
0.21283418191794584
40
0.21283418191794584
40
0.21283418191794584
40
0.21283418191794584
10
22.100460027083244
20
-51.419731088443797
30
0
10
22.072144413856023
20
-51.655346035057974
30
0
10
22.090863744322039
20
-51.89425465944835
30
0
10
22.219592614966146
20
-52.348774860543593
30
0
10
22.327498747083045
20
-52.560181769754863
30
0
10
22.619913197702608
20
-52.930866424569331
30
0
10
22.802173844434563
20
-53.08604426944855
30
0
10
23.009319775757024
20
-53.201296118758599
30
0
0
ELLIPSE
5
154
100
AcDbEntity
8
0
100
AcDbEllipse
10
4.7961634663806763e-13
20
2.3092638912203256e-13
30
0
11
-3.0616169978683834e-15
21
-110
31
0.0
40
0.22727272727272727
41
1.0843899313332703
42
1.2247959658797694
0
SPLINE
5
155
100
AcDbEntity
8
0
100
AcDbSpline
70
0
71
3
72
12
73
8
74
0
42
0.000000001
43
0.0000000001
44
0.0000000001
40
0
40
0
40
0
40
0
40
0.10110752932789828
40
0.10110752932789828
40
0.15407404466075242
40
0.15407404466075242
40
0.20595962262068235
40
0.20595962262068235
40
0.20595962262068235
40
0.20595962262068235
10
24.451736620116691
20
-35.53629795996244
30
0
10
24.189998557451826
20
-35.74861636018332
30
0
10
23.973017858245257
20
-36.010820892086805
30
0
10
23.729806423548446
20
-36.463162319932195
30
0
10
23.662602957259601
20
-36.626943345559262
30
0
10
23.564195018193654
20
-36.962310316129809
30
0
10
23.532539616334955
20
-37.132797199788882
30
0
10
23.518416576200451
20
-37.305171526847381
30
0
0
ARC
5
156
100
AcDbEntity
8
0
100
AcDbCircle
10
-157.93161519636308
20
189.2989735808442
30
0
40
289.50748927902038
210
0
220
0
230
1
100
AcDbArc
50
309.04850013181914
51
311.5199356726622
0
ARC
5
157
100
AcDbEntity
8
0
100
AcDbCircle
10
30.000000000000192
20
-22.970205733958512
30
0
40
5.9999999999999529
210
-0
220
0
230
1
100
AcDbArc
50
-48.480064383799501
51
126.16141302816376
0
SPLINE
5
158
100
AcDbEntity
8
0
100
AcDbSpline
70
4
71
3
72
8
73
4
74
0
42
0.000000001
43
0.0000000001
44
0.0000000001
40
0
40
0
40
0
40
0
40
1
40
1
40
1
40
1
41
1
41
0.62442658288030273
41
0.62442658288030273
41
1
10
24.692895674932693
20
-17.188690633630298
30
0
10
24.654532704085398
20
-18.255647373589881
30
0
10
25.597655002802703
20
-18.75603595473418
30
0
10
26.459627577611478
20
-18.126058429139068
30
0
0
ELLIPSE
5
159
100
AcDbEntity
8
0
100
AcDbEllipse
10
4.7961634663806763e-13
20
2.3092638912203256e-13
30
0
11
-3.0616169978683834e-15
21
-110
31
0.0
40
0.22727272727272727
41
1.4138924972250051
42
1.7277001563647829
0
SPLINE
5
160
100
AcDbEntity
8
0
100
AcDbSpline
70
0
71
3
72
18
73
14
74
0
42
0.000000001
43
0.0000000001
44
0.0000000001
40
0
40
0
40
0
40
0
40
0.043733637107948864
40
0.043733637107948864
40
0.087795667557676288
40
0.087795667557676288
40
0.13209456779561624
40
0.13209456779561624
40
0.1747099371305626
40
0.1747099371305626
40
0.21580344715164171
40
0.21580344715164171
40
0.24948766690993412
40
0.24948766690993412
40
0.24948766690993412
40
0.24948766690993412
10
26.459627577611471
20
18.126058429138979
30
0
10
26.341931921874565
20
18.212076963998829
30
0
10
26.208455998356847
20
18.274107950076541
30
0
10
25.924118509008949
20
18.343372060994895
30
0
10
25.775933156904898
20
18.349508325461162
30
0
10
25.484981298249302
20
18.303696450844832
30
0
10
25.345143528400108
20
18.251891766456488
30
0
10
25.098671450329626
20
18.099622758110737
30
0
10
24.993246885245483
20
18.002484679895755
30
0
10
24.827694226208862
20
17.777874275942278
30
0
10
24.767500279788543
20
17.653532013298307
30
0
10
24.701851394137229
20
17.413073446432982
30
0
10
24.688861171293009
20
17.300898858272234
30
0
10
24.692895674932707
20
17.188690633630166
30
0
0
ARC
5
161
100
AcDbEntity
8
0
100
AcDbCircle
10
29.999999999999915
20
22.970205733958618
30
0
40
5.9999999999999973
210
0
220
0
230
1
100
AcDbArc
50
-126.16141302816054
51
48.48006431375574
0
ARC
5
162
100
AcDbEntity
8
0
100
AcDbCircle
10
-157.93161519658906
20
-189.298973581273
30
0
40
289.5074892794911
210
0
220
-0
230
1
100
AcDbArc
50
48.480064325908934
51
50.951499868199846
0
SPLINE
5
163
100
AcDbEntity
8
0
100
AcDbSpline
70
0
71
3
72
12
73
8
74
0
42
0.000000001
43
0.0000000001
44
0.0000000001
40
0
40
0
40
0
40
0
40
0.1011075293278945
40
0.1011075293278945
40
0.15407404466075095
40
0.15407404466075095
40
0.20595962262068385
40
0.20595962262068385
40
0.20595962262068385
40
0.20595962262068385
10
23.518416576200497
20
37.305171526847253
30
0
10
23.545937628306753
20
36.969271976072221
30
0
10
23.639901415550479
20
36.642159385263319
30
0
10
23.87600997673772
20
36.186070230989102
30
0
10
23.973271627564401
20
36.038148963028206
30
0
10
24.194557476436437
20
35.767616708925544
30
0
10
24.317419910513074
20
35.645253870369935
30
0
10
24.451736620116744
20
35.536297959962297
30
0
0
ELLIPSE
5
164
100
AcDbEntity
8
0
100
AcDbEllipse
10
4.7961634663806763e-13
20
2.3092638912203256e-13
30
0
11
-3.0616169978683834e-15
21
-110
31
0.0
40
0.22727272727272727
41
1.9167966877100182
42
2.0572027222565126
0
SPLINE
5
165
100
AcDbEntity
8
0
100
AcDbSpline
70
0
71
3
72
12
73
8
74
0
42
0.000000001
43
0.0000000001
44
0.0000000001
40
0
40
0
40
0
40
0
40
0.071193089073588955
40
0.071193089073588955
40
0.1417193571135909
40
0.1417193571135909
40
0.21283418191795025
40
0.21283418191795025
40
0.21283418191795025
40
0.21283418191795025
10
23.009319775757149
20
53.201296118757995
30
0
10
22.801945873333263
20
53.085917430890895
30
0
10
22.619514320816524
20
52.930526077246192
30
0
10
22.327098585463816
20
52.559510210928963
30
0
10
22.219283813037055
20
52.348056694861562
30
0
10
22.090822335902605
20
51.893731950720891
30
0
10
22.072175541888456
20
51.655087017899149
30
0
10
22.100460027083372
20
51.419731088443172
30
0
0
ARC
5
166
100
AcDbEntity
8
0
100
AcDbCircle
10
157.9316151964662
20
-189.29897358097037
30
0
40
277.50748927917834
210
0
220
0
230
1
100
AcDbArc
50
116.82364216710387
51
119.09068696988398
0
ARC
5
167
100
AcDbEntity
8
0
100
AcDbCircle
10
29.99999999999968
20
63.702999357200021
30
0
40
6.0000000002325002
210
-0
220
0
230
1
100
AcDbArc
50
-63.175848101178843
51
116.82365305458217
0
ARC
5
168
100
AcDbEntity
8
0
100
AcDbCircle
10
157.9316151964662
20
-189.29897358097037
30
0
40
289.50748927917846
210
0
220
0
230
1
100
AcDbArc
50
116.82365295685987
51
118.08732405843311
0
SPLINE
5
169
100
AcDbEntity
8
0
100
AcDbSpline
70
0
71
3
72
16
73
12
74
0
42
0.000000001
43
0.0000000001
44
0.0000000001
40
0
40
0
40
0
40
0
40
0.048779394003114776
40
0.048779394003114776
40
0.097791055518486936
40
0.097791055518486936
40
0.1461355197400987
40
0.1461355197400987
40
0.1927102499429611
40
0.1927102499429611
40
0.23382019598500212
40
0.23382019598500212
40
0.23382019598500212
40
0.23382019598500212
10
19.829170840351267
20
66.990485339798781
30
0
10
19.857122308118203
20
66.830307880232425
30
0
10
19.916443865700217
20
66.677218949229555
30
0
10
20.091413863712816
20
66.40218793035244
30
0
10
20.205601484014714
20
66.283113320589763
30
0
10
20.471873379962823
20
66.097606501695822
30
0
10
20.6208625479651
20
66.032261889409384
30
0
10
20.929761215119065
20
65.963786534642836
30
0
10
21.086317348146402
20
65.959076394593339
30
0
10
21.37495917564388
20
66.005063474406398
30
0
10
21.505756477898686
20
66.049005067227796
30
0
10
21.626651380723718
20
66.113522565798419
30
0
0
ELLIPSE
5
170
100
AcDbEntity
8
0
100
AcDbEllipse
10
4.7961634663806763e-13
20
2.3092638912203256e-13
30
0
11
-3.0616169978683834e-15
21
-110
31
0.0
40
0.22727272727272727
41
2.2256011058794529
42
2.5867881123607859
0
ARC
5
171
100
AcDbEntity
8
0
100
AcDbCircle
10
12.699999999999989
20
93.328224528306123
30
0
40
0.49999999999999545
210
0
220
-0
230
1
100
AcDbArc
50
20.139271362699951
51
180
0
LINE
5
172
100
AcDbEntity
8
0
100
AcDbLine
10
12.199999999999989
20
93.328224528306123
30
0
11
12.199999999999989
21
92.507106781186621
31
0
0
ARC
5
173
100
AcDbEntity
8
0
100
AcDbCircle
10
11.846446609406716
20
92.153553390593345
30
0
40
0.49999999999999745
210
0
220
0
230
1
100
AcDbArc
50
-45.000000000011958
51
45.000000000000291
0
LINE
5
174
100
AcDbEntity
8
0
100
AcDbLine
10
12.199999999999916
20
91.799999999999997
30
0
11
12.199999999999989
21
91.899999999999991
31
0
0
ARC
5
175
100
AcDbEntity
8
0
100
AcDbCircle
10
11.100000000000527
20
91.899999999999977
30
0
40
1.0999999999994627
210
0
220
0
230
1
100
AcDbArc
50
-5.4747393412247165
51
0
0
ARC
5
176
100
AcDbEntity
8
0
100
AcDbCircle
10
11.846446609406716
20
92.153553390593345
30
0
40
0.50000000000000056
210
0
220
0
230
1
100
AcDbArc
50
225.00000000001165
51
314.19249327601926
0
LINE
5
177
100
AcDbEntity
8
0
100
AcDbLine
10
11.492893218813512
20
91.799999999999997
30
0
11
10.707106781186486
21
91.799999999999997
31
0
0
ARC
5
178
100
AcDbEntity
8
0
100
AcDbCircle
10
10.353553390593277
20
92.153553390593345
30
0
40
0.49999999999999389
210
0
220
0
230
1
100
AcDbArc
50
225.80750672397863
51
314.99999999998875
0
ARC
5
179
100
AcDbEntity
8
0
100
AcDbCircle
10
11.100000000000527
20
91.899999999999977
30
0
40
1.1000000000005272
210
0
220
0
230
1
100
AcDbArc
50
180
51
185.47473934121862
0
LINE
5
180
100
AcDbEntity
8
0
100
AcDbLine
10
10
20
91.899999999999991
30
0
11
9.9999999999999964
21
91.800000000000097
31
0
0
LWPOLYLINE
5
181
100
AcDbEntity
8
0
100
AcDbPolyline
90
8
70
1
43
0.0
10
10
20
84.721117747119564
10
10
20
77.935331309492682
42
0.99999999999999989
10
10.707106781186544
20
77.228224528306129
10
11.492893218813453
20
77.228224528306129
42
0.99999999999999989
10
12.199999999999999
20
77.935331309492682
10
12.200000000000005
20
84.721117747119592
42
0.99999999999999989
10
11.492893218813444
20
85.428224528306117
10
10.70710678118655
20
85.428224528306117
42
0.99999999999999989
0
LWPOLYLINE
5
182
100
AcDbEntity
8
0
100
AcDbPolyline
90
8
70
1
43
0.0
10
-11.492893218813453
20
77.228224528306129
10
-10.707106781186543
20
77.228224528306129
42
0.99999999999999989
10
-9.9999999999999982
20
77.935331309492682
10
-9.9999999999999964
20
84.721117747119592
42
0.99999999999999989
10
-10.70710678118655
20
85.428224528306117
10
-11.492893218813443
20
85.428224528306117
42
0.99999999999999989
10
-12.199999999999999
20
84.721117747119592
10
-12.199999999999999
20
77.935331309492682
42
0.99999999999999989
0
CIRCLE
5
183
100
AcDbEntity
8
0
100
AcDbCircle
10
-24.000000000000004
20
-28.134657371996916
30
0
40
1.5500000000000025
210
0
220
0
230
1
0
CIRCLE
5
184
100
AcDbEntity
8
0
100
AcDbCircle
10
24.000000000000004
20
-28.134657371996916
30
0
40
1.5500000000000025
210
0
220
0
230
1
0
CIRCLE
5
185
100
AcDbEntity
8
0
100
AcDbCircle
10
-24.000000000000004
20
28.134657371996916
30
0
40
1.5500000000000025
210
0
220
0
230
1
0
CIRCLE
5
186
100
AcDbEntity
8
0
100
AcDbCircle
10
24.000000000000004
20
28.134657371996916
30
0
40
1.5500000000000025
210
0
220
0
230
1
0
CIRCLE
5
187
100
AcDbEntity
8
0
100
AcDbCircle
10
15.561929308130708
20
71.696215478297376
30
0
40
1.549999999999998
210
0
220
-0
230
1
0
CIRCLE
5
188
100
AcDbEntity
8
0
100
AcDbCircle
10
-15.561929308129749
20
71.696215478297376
30
0
40
1.549999999999998
210
0
220
-0
230
1
0
CIRCLE
5
189
100
AcDbEntity
8
0
100
AcDbCircle
10
29.99999999999968
20
63.702999357200021
30
0
40
1.549999999999998
210
-0
220
0
230
1
0
CIRCLE
5
190
100
AcDbEntity
8
0
100
AcDbCircle
10
-30.000000000000085
20
22.970205733958267
30
0
40
1.549999999999998
210
-0
220
0
230
1
0
CIRCLE
5
191
100
AcDbEntity
8
0
100
AcDbCircle
10
29.999999999999915
20
22.970205733958618
30
0
40
1.549999999999998
210
-0
220
0
230
1
0
CIRCLE
5
192
100
AcDbEntity
8
0
100
AcDbCircle
10
30.000000000000423
20
-63.702999357200802
30
0
40
1.5499999999999934
210
-0
220
0
230
1
0
CIRCLE
5
193
100
AcDbEntity
8
0
100
AcDbCircle
10
30.000000000000192
20
-22.970205733958512
30
0
40
1.5500000000000025
210
-0
220
0
230
1
0
CIRCLE
5
194
100
AcDbEntity
8
0
100
AcDbCircle
10
-29.999999999999815
20
-22.970205733958871
30
0
40
1.5500000000000025
210
-0
220
0
230
1
0
CIRCLE
5
195
100
AcDbEntity
8
0
100
AcDbCircle
10
-30.000000000000327
20
63.702999357199666
30
0
40
1.5500000000000025
210
-0
220
0
230
1
0
CIRCLE
5
196
100
AcDbEntity
8
0
100
AcDbCircle
10
-29.99999999999957
20
-63.702999357201158
30
0
40
1.5500000000000025
210
-0
220
0
230
1
0
ENDSEC
0
SECTION
2
OBJECTS
0
DICTIONARY
5
C
100
AcDbDictionary
3
ACAD_GROUP
350
D
3
ACAD_MLINESTYLE
350
17
0
DICTIONARY
5
D
100
AcDbDictionary
0
DICTIONARY
5
1A
330
C
100
AcDbDictionary
0
DICTIONARY
5
17
100
AcDbDictionary
0
ENDSEC
0
EOF
