0
SECTION
2
HEADER
9
$INSUNITS
70
4
9
$ACADVER
1
AC1014
9
$HANDSEED
5
FFFF
0
ENDSEC
0
SECTION
2
TABLES
0
TABLE
2
VPORT
5
8
100
AcDbSymbolTable
0
ENDTAB
0
TABLE
2
LTYPE
5
5
100
AcDbSymbolTable
0
LTYPE
5
14
100
AcDbSymbolTableRecord
100
AcDbLinetypeTableRecord
2
BYBLOCK
70
0
0
LTYPE
5
15
100
AcDbSymbolTableRecord
100
AcDbLinetypeTableRecord
2
BYLAYER
70
0
0
ENDTAB
0
TABLE
2
LAYER
5
2
100
AcDbSymbolTable
70
2
0
LAYER
5
50
100
AcDbSymbolTableRecord
100
AcDbLayerTableRecord
2
0
70
0
6
CONTINUOUS
0
ENDTAB
0
TABLE
2
STYLE
5
3
100
AcDbSymbolTable
70
1
0
STYLE
5
11
100
AcDbSymbolTableRecord
100
AcDbTextStyleTableRecord
2
STANDARD
70
0
0
ENDTAB
0
TABLE
2
VIEW
5
6
100
AcDbSymbolTable
70
0
0
ENDTAB
0
TABLE
2
UCS
5
7
100
AcDbSymbolTable
70
0
0
ENDTAB
0
TABLE
2
APPID
5
9
100
AcDbSymbolTable
70
2
0
APPID
5
12
100
AcDbSymbolTableRecord
100
AcDbRegAppTableRecord
2
ACAD
70
0
0
ENDTAB
0
TABLE
2
DIMSTYLE
5
A
100
AcDbSymbolTable
70
1
0
ENDTAB
0
TABLE
2
BLOCK_RECORD
5
1
100
AcDbSymbolTable
70
1
0
BLOCK_RECORD
5
1F
100
AcDbSymbolTableRecord
100
AcDbBlockTableRecord
2
*MODEL_SPACE
0
BLOCK_RECORD
5
1B
100
AcDbSymbolTableRecord
100
AcDbBlockTableRecord
2
*PAPER_SPACE
0
ENDTAB
0
ENDSEC
0
SECTION
2
BLOCKS
0
BLOCK
5
20
100
AcDbEntity
100
AcDbBlockBegin
2
*MODEL_SPACE
0
ENDBLK
5
21
100
AcDbEntity
100
AcDbBlockEnd
0
BLOCK
5
1C
100
AcDbEntity
100
AcDbBlockBegin
2
*PAPER_SPACE
0
ENDBLK
5
1D
100
AcDbEntity
100
AcDbBlockEnd
0
ENDSEC
0
SECTION
2
ENTITIES
0
LWPOLYLINE
5
100
100
AcDbEntity
8
0
100
AcDbPolyline
90
4
70
1
43
0.0
10
20.086433123060306
20
9.9963927631135778
10
20.086433123060296
20
-10.003607236886422
42
0.99999999999999989
10
22.286433123060295
20
-10.003607236886422
10
22.286433123060295
20
9.9963927631135778
42
0.99999999999999989
0
LWPOLYLINE
5
101
100
AcDbEntity
8
0
100
AcDbPolyline
90
4
70
1
43
0.0
10
-22.286433123059336
20
9.9963927631135778
10
-22.286433123059336
20
-10.003607236886422
42
0.99999999999999989
10
-20.086433123059347
20
-10.00360723688642
10
-20.086433123059347
20
9.9963927631135796
42
0.99999999999999989
0
LWPOLYLINE
5
102
100
AcDbEntity
8
0
100
AcDbPolyline
90
12
70
1
43
0.0
10
14.837777849107008
20
-49.625684360866245
42
-0.45017277104508546
10
14.837777849107001
20
-50.374315639133314
42
-0.033647086938700922
10
12.456376274815074
20
-52.213134968602219
42
0.39881974636294393
10
12.305150440843631
20
-52.884493207088646
42
-0.00565972640224456
10
12.80262450732212
20
-53.74118409525417
42
0.43569777893696993
10
13.514995863789373
20
-53.911155474417441
42
0.056895971309115792
10
17.74063110775327
20
-50.342966194111014
42
0.39702851959622126
10
17.740631107753263
20
-49.657033805888553
42
0.056895971309117527
10
13.514995863789368
20
-46.088844525582118
42
0.43569777893695016
10
12.802624507322287
20
-46.258815904745148
42
-0.0056597264022482238
10
12.305150440843462
20
-47.115506792911219
42
0.39881974636296191
10
12.456376274815085
20
-47.786865031397348
42
-0.033647086938701921
0
LWPOLYLINE
5
103
100
AcDbEntity
8
0
100
AcDbPolyline
90
6
70
1
43
0.0
10
9.1081387649366423
20
-56.234750579196088
42
-0.049407817691137092
10
4.4943062128638447
20
-57.582174061615383
42
0.68444218890314656
10
4.3228536753846969
20
-58.498460990260753
42
0.048892201196907473
10
11.281919039922027
20
-61.925988442896525
42
0.64474402059185953
10
11.925988442897202
20
-61.281919039921334
42
0.033327308581474618
10
9.7353425359877992
20
-56.461822550867865
42
0.38225532364997122
0
LWPOLYLINE
5
104
100
AcDbEntity
8
0
100
AcDbPolyline
90
6
70
1
43
0.0
10
-4.3228536753838913
20
-58.498460990260803
42
-0.048892201196905509
10
-11.281919039921073
20
-61.92598844289649
42
-0.64474402059185432
10
-11.925988442896259
20
-61.281919039921327
42
-0.033327308581473335
10
-9.7353425359869341
20
-56.461822550868028
42
-0.38225532364997122
10
-9.1081387649357985
20
-56.234750579196287
42
0.049407817691136682
10
-4.494306212863072
20
-57.582174061615447
42
-0.68444218890317332
0
LWPOLYLINE
5
105
100
AcDbEntity
8
0
100
AcDbPolyline
90
12
70
1
43
0.0
10
-8.5143357259163785
20
-87.042098260563577
42
-0.65338616449656572
10
-8.5143357259169594
20
-87.957901739436181
42
-0.0026258360447621062
10
-8.9169459670642741
20
-88.131951674113381
42
0.65329423051604241
10
-8.92668222307754
20
-89.047651631433254
42
-0.0082400140499574153
10
-7.7413783453376706
20
-89.606441722359364
42
0.22367187923414314
10
-7.3154094117013475
20
-89.613646746615274
42
0.021337321907856942
10
-3.9800092043877782
20
-87.93673219116441
42
0.58744461803231163
10
-3.9800092043877777
20
-87.06326780883515
42
0.021337321907857594
10
-7.3154094117013821
20
-85.386353253384243
42
0.22367187923414553
10
-7.7413783453377452
20
-85.393558277640196
42
-0.0082400140499565271
10
-8.926682223077492
20
-85.95234836856622
42
0.65329423051606295
10
-8.9169459670644819
20
-86.868048325886051
42
-0.0026258360447673243
0
LWPOLYLINE
5
106
100
AcDbEntity
8
0
100
AcDbPolyline
90
8
70
1
43
0.0
10
0.32203470148802871
20
5.1289759517240725
42
-0.042822157701763258
10
5.1289759517242741
20
0.32203470148783281
42
-0.36491865331083928
10
5.1289759517243114
20
-0.32203470148734814
42
-0.042822157701764813
10
0.3220347014880407
20
-5.1289759517236009
42
-0.36491865331082857
10
-0.32203470148713997
20
-5.1289759517235858
42
-0.042822157701762925
10
-5.1289759517233584
20
-0.32203470148737845
42
-0.36491865331083151
10
-5.1289759517233851
20
0.32203470148775282
42
-0.042822157701764479
10
-0.32203470148710633
20
5.1289759517240441
42
-0.36491865331080942
0
LWPOLYLINE
5
107
100
AcDbEntity
8
0
100
AcDbPolyline
90
6
70
1
43
0.0
10
11.925988442897232
20
11.281919039921792
42
-0.052346172418339845
10
8.206372350393039
20
3.8592841054052918
42
-0.49716399824957325
10
7.4115868686061281
20
3.7964407972620906
42
0.029232797522265517
10
3.7964407972623477
20
7.4115868686058839
42
-0.49716399824955881
10
3.859284105405536
20
8.2063723503927495
42
-0.05234617241833929
10
11.281919039922027
20
11.925988442896971
42
-0.64474402059186631
0
LWPOLYLINE
5
108
100
AcDbEntity
8
0
100
AcDbPolyline
90
6
70
1
43
0.0
10
11.281919039921998
20
-11.925988442896633
42
-0.052346172418338284
10
3.8592841054055089
20
-8.2063723503923374
42
-0.49716399824955748
10
3.7964407972623304
20
-7.4115868686054442
42
0.029232797522267422
10
7.4115868686061139
20
-3.7964407972616598
42
-0.49716399824956647
10
8.206372350392936
20
-3.8592841054048623
42
-0.052346172418338284
10
11.925988442897202
20
-11.281919039921327
42
-0.64474402059188074
0
LWPOLYLINE
5
109
100
AcDbEntity
8
0
100
AcDbPolyline
90
6
70
1
43
0.0
10
-11.281919039921121
20
11.925988442897113
42
-0.052346172418339068
10
-3.859284105404543
20
8.2063723503927619
42
-0.49716399824955243
10
-3.7964407972613712
20
7.4115868686058617
42
0.029232797522266471
10
-7.4115868686051831
20
3.7964407972620551
42
-0.49716399824955615
10
-8.2063723503919928
20
3.8592841054052784
42
-0.052346172418338735
10
-11.925988442896319
20
11.281919039921808
42
-0.64474402059182134
0
LWPOLYLINE
5
110
100
AcDbEntity
8
0
100
AcDbPolyline
90
6
70
1
43
0.0
10
-11.925988442896319
20
-11.281919039921323
42
-0.052346172418339401
10
-8.2063723503920674
20
-3.8592841054048121
42
-0.49716399824955099
10
-7.4115868686051734
20
-3.7964407972616421
42
0.029232797522266232
10
-3.7964407972614111
20
-7.4115868686054034
42
-0.49716399824957219
10
-3.8592841054045746
20
-8.2063723503923018
42
-0.052346172418339845
10
-11.281919039921073
20
-11.925988442896514
42
-0.644744020591828
0
LWPOLYLINE
5
111
100
AcDbEntity
8
0
100
AcDbPolyline
90
8
70
1
43
0.0
10
10.707106781186544
20
77.228224528306129
10
11.492893218813453
20
77.228224528306129
42
0.99999999999999989
10
12.199999999999999
20
77.935331309492682
10
12.199999999999999
20
84.721117747119592
42
0.99999999999999989
10
11.492893218813435
20
85.428224528306117
10
10.707106781186564
20
85.428224528306117
42
0.99999999999999989
10
10
20
84.721117747119592
10
9.9999999999999964
20
77.935331309492682
42
0.99999999999999989
0
LINE
5
112
100
AcDbEntity
8
0
100
AcDbLine
10
-11.492893218812529
20
85.428224528306231
30
0
11
-10.707106781185656
21
85.428224528306217
31
0
0
ARC
5
113
100
AcDbEntity
8
0
100
AcDbCircle
10
-10.35355339059236
20
85.074671137712983
30
0
40
0.50000000000000766
210
0
220
0
230
1
100
AcDbArc
50
-45.000000000001883
51
135.00000000000503
0
LINE
5
114
100
AcDbEntity
8
0
100
AcDbLine
10
-9.9999999999990923
20
84.721117747119692
30
0
11
-9.9999999999991704
21
77.935331309492781
31
0
0
ARC
5
115
100
AcDbEntity
8
0
100
AcDbCircle
10
-10.353553390592442
20
77.581777918899505
30
0
40
0.50000000000000222
210
0
220
0
230
1
100
AcDbArc
50
-135.00000000000205
51
45.000000000000433
0
LINE
5
116
100
AcDbEntity
8
0
100
AcDbLine
10
-10.707106781185729
20
77.228224528306242
30
0
11
-11.492893218812636
21
77.228224528306242
31
0
0
ARC
5
117
100
AcDbEntity
8
0
100
AcDbCircle
10
-11.846446609405902
20
77.581777918899519
30
0
40
0.49999999999999745
210
0
220
0
230
1
100
AcDbArc
50
134.9999999999996
51
314.99999999999915
0
LINE
5
118
100
AcDbEntity
8
0
100
AcDbLine
10
-12.199999999999173
20
77.935331309492796
30
0
11
-12.199999999999097
21
84.721117747119706
31
0
0
ARC
5
119
100
AcDbEntity
8
0
100
AcDbCircle
10
-11.846446609405824
20
85.074671137712983
30
0
40
0.50000000000000056
210
0
220
-0
230
1
100
AcDbArc
50
44.999999999996255
51
225.00000000000028
0
LINE
5
120
100
AcDbEntity
8
0
100
AcDbLine
10
-14.392893218791841
20
-72.900000000000006
30
0
11
-9.6071067811649318
21
-72.900000000000006
31
0
0
ARC
5
121
100
AcDbEntity
8
0
100
AcDbCircle
10
-9.2535533905716587
20
-73.253553390593268
30
0
40
0.50000000000000133
210
-0
220
0
230
1
100
AcDbArc
50
-45.000000006851323
51
135.00000000000085
0
LINE
5
122
100
AcDbEntity
8
0
100
AcDbLine
10
-8.9000000000206594
20
-73.607106781228822
30
0
11
-8.9000000000206576
21
-74.392893218771178
31
0
0
ARC
5
123
100
AcDbEntity
8
0
100
AcDbCircle
10
-9.2535533905716587
20
-74.746446609406718
30
0
40
0.50000000000000056
210
0
220
0
230
1
100
AcDbArc
50
-134.99999999999986
51
45.00000000685003
0
LINE
5
124
100
AcDbEntity
8
0
100
AcDbLine
10
-9.6071067811649336
20
-75.099999999999994
30
0
11
-14.392893218791841
21
-75.099999999999994
31
0
0
ARC
5
125
100
AcDbEntity
8
0
100
AcDbCircle
10
-14.74644660938511
20
-74.746446609406718
30
0
40
0.50000000000000056
210
0
220
0
230
1
100
AcDbArc
50
135.0000000068506
51
314.99999999999943
0
LINE
5
126
100
AcDbEntity
8
0
100
AcDbLine
10
-15.100000000020655
20
-74.392893218855718
30
0
11
-15.100000000020655
21
-73.607106781144282
31
0
0
ARC
5
127
100
AcDbEntity
8
0
100
AcDbCircle
10
-14.746446609385115
20
-73.253553390593268
30
0
40
0.50000000000000056
210
0
220
-0
230
1
100
AcDbArc
50
44.999999999998991
51
224.99999999315096
0
LWPOLYLINE
5
128
100
AcDbEntity
8
0
100
AcDbPolyline
90
8
70
1
43
0.0
10
14.3928932187928
20
-72.900000000000006
10
9.607106781165891
20
-72.900000000000006
42
0.99999999999999989
10
8.8999999999793449
20
-73.607106781186545
10
8.8999999999793449
20
-74.392893218813455
42
0.99999999999999989
10
9.607106781165891
20
-75.099999999999994
10
14.3928932187928
20
-75.099999999999994
42
0.99999999999999989
10
15.099999999979346
20
-74.392893218813455
10
15.099999999979346
20
-73.607106781186545
42
0.99999999999999989
0
LWPOLYLINE
5
129
100
AcDbEntity
8
0
100
AcDbPolyline
90
4
70
1
43
0.0
10
-19.974501141256823
20
20.599122411073733
10
-10.974501141256836
20
20.599122411073733
42
0.99999999999999989
10
-10.974501141256836
20
25.599122411073733
10
-19.974501141256845
20
25.599122411073733
42
0.99999999999999989
0
LWPOLYLINE
5
130
100
AcDbEntity
8
0
100
AcDbPolyline
90
4
70
1
43
0.0
10
19.974501141257118
20
25.59912241107352
10
10.974501141257107
20
25.599122411073584
42
0.99999999999999989
10
10.974501141257058
20
20.599122411073655
10
19.974501141257043
20
20.59912241107352
42
0.99999999999999989
0
CIRCLE
5
131
100
AcDbEntity
8
0
100
AcDbCircle
10
15.561929308130708
20
71.696215478297376
30
0
40
1.549999999999998
210
0
220
-0
230
1
0
CIRCLE
5
132
100
AcDbEntity
8
0
100
AcDbCircle
10
-15.561929308129749
20
71.696215478297376
30
0
40
1.549999999999998
210
0
220
-0
230
1
0
CIRCLE
5
133
100
AcDbEntity
8
0
100
AcDbCircle
10
13.000000000257652
20
-81.117563543026563
30
0
40
1.5500000000000003
210
0
220
-0
230
1
0
CIRCLE
5
134
100
AcDbEntity
8
0
100
AcDbCircle
10
-12.999999999742348
20
-81.117563543026563
30
0
40
1.5500000000000003
210
0
220
-0
230
1
0
CIRCLE
5
135
100
AcDbEntity
8
0
100
AcDbCircle
10
-24.000000000000004
20
-28.134657371996916
30
0
40
1.5500000000000025
210
0
220
-0
230
1
0
CIRCLE
5
136
100
AcDbEntity
8
0
100
AcDbCircle
10
-24.000000000000004
20
28.134657371996916
30
0
40
1.5500000000000025
210
0
220
-0
230
1
0
ELLIPSE
5
137
100
AcDbEntity
8
0
100
AcDbEllipse
10
4.7961634663806763e-13
20
2.3092638912203256e-13
30
0
11
-3.0616169978683834e-15
21
-110
31
0.0
40
0.22727272727272727
41
1.9202251903920859
42
2.5867881123607868
0
ARC
5
138
100
AcDbEntity
8
0
100
AcDbCircle
10
12.699999999999989
20
93.328224528306123
30
0
40
0.49999999999999711
210
0
220
-0
230
1
100
AcDbArc
50
20.139271362706769
51
180
0
LINE
5
139
100
AcDbEntity
8
0
100
AcDbLine
10
12.199999999999989
20
93.328224528306123
30
0
11
12.199999999999999
21
90.100001149029637
31
0
0
LINE
5
140
100
AcDbEntity
8
0
100
AcDbLine
10
12.199999999999999
20
90.100001149029637
30
0
11
-12.19999999999904
21
90.100001149029637
31
0
0
LINE
5
141
100
AcDbEntity
8
0
100
AcDbLine
10
-12.19999999999904
20
90.100001149029637
30
0
11
-12.19999999999914
21
93.328224528305782
31
0
0
ARC
5
142
100
AcDbEntity
8
0
100
AcDbCircle
10
-12.69999999999915
20
93.328224528305782
30
0
40
0.50000000000000933
210
0
220
0
230
1
100
AcDbArc
50
0
51
159.860728637297
0
ELLIPSE
5
143
100
AcDbEntity
8
0
100
AcDbEllipse
10
4.7961634663806763e-13
20
2.3092638912203256e-13
30
0
11
-3.0616169978683834e-15
21
-110
31
0.0
40
0.22727272727272727
41
3.6963971948188061
42
4.3629600961585462
0
SPLINE
5
144
100
AcDbEntity
8
0
100
AcDbSpline
70
0
71
3
72
10
73
6
74
0
42
0.000000001
43
0.0000000001
44
0.0000000001
40
0
40
0
40
0
40
0
40
0.076689249060757914
40
0.076689249060757914
40
0.1533784981215161
40
0.1533784981215161
40
0.1533784981215161
40
0.1533784981215161
10
-24.053230686431846
20
36.261258163744799
30
0
10
-23.891680713554106
20
36.459371080065857
30
0
10
-23.760893990100787
20
36.6806955743061
30
0
10
-23.569664083525108
20
37.154847035583181
30
0
10
-23.510307428853238
20
37.404979972895568
30
0
10
-23.48920984960656
20
37.659738708761409
30
0
0
SPLINE
5
145
100
AcDbEntity
8
0
100
AcDbSpline
70
0
71
3
72
8
73
4
74
0
42
0.000000001
43
0.0000000001
44
0.0000000001
40
0
40
0
40
0
40
0
40
1.0439749891327919
40
1.0439749891327919
40
1.0439749891327919
40
1.0439749891327919
10
-26.738404627617083
20
30.910614535488428
30
0
10
-26.251655350013628
20
32.847949222885632
30
0
10
-25.312857372313825
20
34.7165453311109
30
0
10
-24.053230686431831
20
36.261258163744785
30
0
0
ARC
5
146
100
AcDbEntity
8
0
100
AcDbCircle
10
-8.5390908970093999
20
26.338093912759302
30
0
40
18.764939784352318
210
0
220
0
230
1
100
AcDbArc
50
165.89653823584999
51
190.0476490485085
0
SPLINE
5
147
100
AcDbEntity
8
0
100
AcDbSpline
70
0
71
3
72
8
73
4
74
0
42
0.000000001
43
0.0000000001
44
0.0000000001
40
-0.050047002001889898
40
-0.050047002001889898
40
-0.050047002001889898
40
-0.050047002001889898
40
1
40
1
40
1
40
1
10
-24.871606681140015
20
17.449587346901925
30
0
10
-25.925274670586333
20
19.151426752794144
30
0
10
-26.666401620170337
20
21.0898406619193
30
0
10
-27.016232817881729
20
23.064228987886711
30
0
0
SPLINE
5
148
100
AcDbEntity
8
0
100
AcDbSpline
70
0
71
3
72
10
73
6
74
0
42
0.000000001
43
0.0000000001
44
0.0000000001
40
0
40
0
40
0
40
0
40
0.032824307743982387
40
0.032824307743982387
40
0.065648615487964607
40
0.065648615487964607
40
0.065648615487964607
40
0.065648615487964607
10
-24.705817434257241
20
16.825374996215462
30
0
10
-24.701970932330475
20
16.934721721865525
30
0
10
-24.714290418326112
20
17.044039617246895
30
0
10
-24.770463267829129
20
17.255535761250901
30
0
10
-24.814010065537197
20
17.356559760355971
30
0
10
-24.871606681140015
20
17.449587346901914
30
0
0
ELLIPSE
5
149
100
AcDbEntity
8
0
100
AcDbEllipse
10
4.7961634663806763e-13
20
2.3092638912203256e-13
30
0
11
-3.0616169978683834e-15
21
-110
31
0.0
40
0.22727272727272727
41
4.5588282200437913
42
4.8659497530305664
0
SPLINE
5
150
100
AcDbEntity
8
0
100
AcDbSpline
70
0
71
3
72
10
73
6
74
0
42
0.000000001
43
0.0000000001
44
0.0000000001
40
0
40
0
40
0
40
0
40
0.032824281300768705
40
0.032824281300768705
40
0.065648562601537397
40
0.065648562601537397
40
0.065648562601537397
40
0.065648562601537397
10
-24.871606538028953
20
-17.449588166884279
30
0
10
-24.814009957025931
20
-17.356560662586979
30
0
10
-24.770463184756689
20
-17.2555367487371
30
0
10
-24.714290367395421
20
-17.044040778596329
30
0
10
-24.701970888062867
20
-16.934722971384556
30
0
10
-24.705817387203627
20
-16.825376333835052
30
0
0
SPLINE
5
151
100
AcDbEntity
8
0
100
AcDbSpline
70
0
71
3
72
8
73
4
74
0
42
0.000000001
43
0.0000000001
44
0.0000000001
40
0
40
0
40
0
40
0
40
1.0500471420175126
40
1.0500471420175126
40
1.0500471420175126
40
1.0500471420175126
10
-27.016233088111711
20
-23.064230520825557
30
0
10
-26.666402005816146
20
-21.089841892230083
30
0
10
-25.925274882411074
20
-19.151427663742624
30
0
10
-24.871606538028942
20
-17.44958816688429
30
0
0
ARC
5
152
100
AcDbEntity
8
0
100
AcDbCircle
10
-8.5390908931354623
20
-26.338093912348338
30
0
40
18.764939786733258
210
0
220
0
230
1
100
AcDbArc
50
169.9523557075448
51
194.10344682405938
0
SPLINE
5
153
100
AcDbEntity
8
0
100
AcDbSpline
70
0
71
3
72
8
73
4
74
0
42
0.000000001
43
0.0000000001
44
0.0000000001
40
-0.043975413897157076
40
-0.043975413897157076
40
-0.043975413897157076
40
-0.043975413897157076
40
1
40
1
40
1
40
1
10
-24.053231099865208
20
-36.261255729275405
30
0
10
-25.312858505763636
20
-34.71654247594978
30
0
10
-26.251656844203115
20
-32.847945407291419
30
0
10
-26.738405818353694
20
-30.910609790117768
30
0
0
SPLINE
5
154
100
AcDbEntity
8
0
100
AcDbSpline
70
0
71
3
72
10
73
6
74
0
42
0.000000001
43
0.0000000001
44
0.0000000001
40
0
40
0
40
0
40
0
40
0.07668926849453242
40
0.07668926849453242
40
0.15337853698906245
40
0.15337853698906245
40
0.15337853698906245
40
0.15337853698906245
10
-23.489210026162532
20
-37.659736576801507
30
0
10
-23.510307609411814
20
-37.404977776266136
30
0
10
-23.569664287470648
20
-37.154844776794718
30
0
10
-23.760894276004166
20
-36.680693208873457
30
0
10
-23.89168105701124
20
-36.459368672121307
30
0
10
-24.053231099865215
20
-36.261255729275419
30
0
0
ELLIPSE
5
155
100
AcDbEntity
8
0
100
AcDbEllipse
10
4.7961634663806763e-13
20
2.3092638912203256e-13
30
0
11
-3.0616169978683834e-15
21
-110
31
0.0
40
0.22727272727272727
41
5.0618178439827988
42
7.504552749747762
0
SPLINE
5
156
100
AcDbEntity
8
0
100
AcDbSpline
70
0
71
3
72
10
73
6
74
0
42
0.000000001
43
0.0000000001
44
0.0000000001
40
0
40
0
40
0
40
0
40
0.076689249046287183
40
0.076689249046287183
40
0.15337849809257659
40
0.15337849809257659
40
0.15337849809257659
40
0.15337849809257659
10
24.053230686246128
20
-36.261258164027076
30
0
10
23.891680713421259
20
-36.459371080329007
30
0
10
23.760893990011649
20
-36.680695574538106
30
0
10
23.569664083498807
20
-37.154847035736516
30
0
10
23.510307428845294
20
-37.404979973002845
30
0
10
23.489209849602567
20
-37.659738708820626
30
0
0
SPLINE
5
157
100
AcDbEntity
8
0
100
AcDbSpline
70
0
71
3
72
8
73
4
74
0
42
0.000000001
43
0.0000000001
44
0.0000000001
40
0
40
0
40
0
40
0
40
1.0439749891451626
40
1.0439749891451626
40
1.0439749891451626
40
1.0439749891451626
10
26.738404627100763
20
-30.910614535545989
30
0
10
26.25165534953064
20
-32.847949222969326
30
0
10
25.312857371964647
20
-34.716545331237199
30
0
10
24.053230686246138
20
-36.261258164027069
30
0
0
ARC
5
158
100
AcDbEntity
8
0
100
AcDbCircle
10
8.539090893135473
20
-26.338093912348345
30
0
40
18.764939787722884
210
-0
220
0
230
1
100
AcDbArc
50
-14.103461763039352
51
10.047644291918173
0
SPLINE
5
159
100
AcDbEntity
8
0
100
AcDbSpline
70
0
71
3
72
8
73
4
74
0
42
0.000000001
43
0.0000000001
44
0.0000000001
40
-0.05004714197932697
40
-0.05004714197932697
40
-0.05004714197932697
40
-0.05004714197932697
40
1
40
1
40
1
40
1
10
24.871606538212095
20
-17.449588167365697
30
0
10
25.92527488311368
20
-19.151427663838682
30
0
10
26.666402006848564
20
-21.089841892276841
30
0
10
27.016233089116856
20
-23.064230520826079
30
0
0
SPLINE
5
160
100
AcDbEntity
8
0
100
AcDbSpline
70
0
71
3
72
10
73
6
74
0
42
0.000000001
43
0.0000000001
44
0.0000000001
40
0
40
0
40
0
40
0
40
0.032824281318782185
40
0.032824281318782185
40
0.065648562637563829
40
0.065648562637563829
40
0.065648562637563829
40
0.065648562637563829
10
24.705817387198373
20
-16.825376334011739
30
0
10
24.701970888055456
20
-16.934722971621248
30
0
10
24.714290367403621
20
-17.044040778892676
30
0
10
24.770463184829726
20
-17.255536749140479
30
0
10
24.814009957147508
20
-17.356560663035879
30
0
10
24.871606538212092
20
-17.44958816736569
30
0
0
ELLIPSE
5
161
100
AcDbEntity
8
0
100
AcDbEllipse
10
4.7961634663806763e-13
20
2.3092638912203256e-13
30
0
11
-3.0616169978683834e-15
21
-110
31
0.0
40
0.22727272727272727
41
1.4172355541473947
42
1.7243571008775238
0
SPLINE
5
162
100
AcDbEntity
8
0
100
AcDbSpline
70
0
71
3
72
10
73
6
74
0
42
0.000000001
43
0.0000000001
44
0.0000000001
40
0
40
0
40
0
40
0
40
0.032824230837512437
40
0.032824230837512437
40
0.065648461675025277
40
0.065648461675025277
40
0.065648461675025277
40
0.065648461675025277
10
24.871606266233485
20
17.449587367826624
30
0
10
24.814009777253084
20
17.356560004396044
30
0
10
24.770463074800013
20
17.255536244703077
30
0
10
24.714290347782992
20
17.04404059865255
30
0
10
24.701970888446759
20
16.934722959459684
30
0
10
24.705817381710524
20
16.825376490018343
30
0
0
SPLINE
5
163
100
AcDbEntity
8
0
100
AcDbSpline
70
0
71
3
72
8
73
4
74
0
42
0.000000001
43
0.0000000001
44
0.0000000001
40
0
40
0
40
0
40
0
40
1.0500478002954128
40
1.0500478002954128
40
1.0500478002954128
40
1.0500478002954128
10
27.016233592023539
20
23.064233361528128
30
0
10
26.666402595230544
20
21.089843449150095
30
0
10
25.925275179520106
20
19.151427925593541
30
0
10
24.871606266233492
20
17.449587367826631
30
0
0
ARC
5
164
100
AcDbEntity
8
0
100
AcDbCircle
10
8.5390908970093857
20
26.338093912759305
30
0
40
18.764939783565055
210
-0
220
0
230
1
100
AcDbArc
50
-10.047635486707685
51
14.103446824836348
0
SPLINE
5
165
100
AcDbEntity
8
0
100
AcDbSpline
70
0
71
3
72
8
73
4
74
0
42
0.000000001
43
0.0000000001
44
0.0000000001
40
-0.043975413878280002
40
-0.043975413878280002
40
-0.043975413878280002
40
-0.043975413878280002
40
1
40
1
40
1
40
1
10
24.053231100147748
20
36.261255728844823
30
0
10
25.312858506291587
20
34.716542475754892
30
0
10
26.251656844922163
20
32.847945407145922
30
0
10
26.738405819092911
20
30.910609790003527
30
0
0
SPLINE
5
166
100
AcDbEntity
8
0
100
AcDbSpline
70
0
71
3
72
10
73
6
74
0
42
0.000000001
43
0.0000000001
44
0.0000000001
40
0
40
0
40
0
40
0
40
0.076689268516326375
40
0.076689268516326375
40
0.15337853703265292
40
0.15337853703265292
40
0.15337853703265292
40
0.15337853703265292
10
23.489210026171374
20
37.659736576706926
30
0
10
23.51030760942659
20
37.404977776099145
30
0
10
23.569664287513078
20
37.154844776558356
30
0
10
23.760894276141237
20
36.680693208518591
30
0
10
23.891681057214143
20
36.459368671719517
30
0
10
24.053231100147748
20
36.261255728844816
30
0
0
CIRCLE
5
167
100
AcDbEntity
8
0
100
AcDbCircle
10
24.000000000000004
20
-28.134657371996916
30
0
40
1.5500000000000025
210
0
220
-0
230
1
0
CIRCLE
5
168
100
AcDbEntity
8
0
100
AcDbCircle
10
24.000000000000004
20
28.134657371996916
30
0
40
1.5500000000000025
210
0
220
-0
230
1
0
LWPOLYLINE
5
169
100
AcDbEntity
8
0
100
AcDbPolyline
90
8
70
1
43
0.0
10
-13.052538605249532
20
-41.268193027651932
42
-0.0060889941316835169
10
-13.444327090153422
20
-40.329603937619403
42
-0.440165678280867
10
-13.12619659948181
20
-39.664299634482859
42
0.049513912261316635
10
-5.5090204213276426
20
-36.493810853827384
42
-0.24852008474904635
10
-5.0409018366204492
20
-36.490911090607284
42
-0.0068869150531324858
10
-3.9800092043877724
20
-37.063267808835143
42
-0.58744461803229997
10
-3.9800092043877342
20
-37.936732191164396
42
-0.052732343930543435
10
-12.446800038519816
20
-41.547977224105651
42
-0.3824007116281628
0
LWPOLYLINE
5
170
100
AcDbEntity
8
0
100
AcDbPolyline
90
12
70
1
43
0.0
10
1.8096284242762029
20
-21.188423188867954
42
-0.030309921306575522
10
5.1289759517242892
20
-24.677965298512177
42
-0.36491865331082579
10
5.1289759517242883
20
-25.322034701487354
42
-0.030309921306578742
10
1.8096284242761906
20
-28.811576811131584
42
-0.17058465086892569
10
1.5058301990054419
20
-28.944293311770544
42
-0.036994003883154276
10
-1.5058301990044751
20
-28.944293311770576
42
-0.17058465086892444
10
-1.8096284242752576
20
-28.811576811131605
42
-0.030309921306575966
10
-5.1289759517233433
20
-25.322034701487386
42
-0.36491865331083712
10
-5.1289759517233602
20
-24.677965298512202
42
-0.030309921306583634
10
-1.8096284242752372
20
-21.188423188867933
42
-0.17058465086893346
10
-1.5058301990044809
20
-21.055706688228977
42
-0.036994003883154276
10
1.5058301990054415
20
-21.055706688229016
42
-0.17058465086893998
0
LWPOLYLINE
5
171
100
AcDbEntity
8
0
100
AcDbPolyline
90
12
70
1
43
0.0
10
-0.32203470148711161
20
-44.871024048275956
42
-0.36491865331082068
10
0.32203470148804425
20
-44.871024048275927
42
-0.041664099272871825
10
5.0102381262772289
20
-49.53759927146676
42
0.47177498083723196
10
5.7819230400304944
20
-49.525821486924642
42
0.0065014019224132408
10
6.4165942367898721
20
-48.709582998954048
42
0.35300030756109413
10
6.3972693837808414
20
-48.082106341607243
42
0.050456778078849761
10
0.30642483966388867
20
-42.287372204999073
42
0.34233596581405956
10
-0.30642483966292211
20
-42.287372204999087
42
0.050456778078850316
10
-6.3972693837798964
20
-48.082106341607286
42
0.3530003075610943
10
-6.416594236788935
20
-48.709582998954076
42
0.0065014019224111054
10
-5.781923040029552
20
-49.525821486924684
42
0.47177498083721858
10
-5.0102381262763256
20
-49.537599271466789
42
-0.041664099272872047
0
LWPOLYLINE
5
172
100
AcDbEntity
8
0
100
AcDbPolyline
90
8
70
1
43
0.0
10
13.126196599482686
20
-39.664299634483143
42
-0.049513912261313055
10
5.5090204213285787
20
-36.493810853827384
42
0.24852008474901682
10
5.0409018366213632
20
-36.490911090607327
42
0.0068869150531304518
10
3.9800092043887494
20
-37.063267808835143
42
0.58744461803231363
10
3.9800092043887636
20
-37.936732191164424
42
0.05273234393053905
10
12.446800038520774
20
-41.547977224105644
42
0.38240071162801842
10
13.052538605250351
20
-41.268193027652231
42
0.0060889941316834978
10
13.444327090154385
20
-40.329603937619396
42
0.44016567828087172
0
LWPOLYLINE
5
173
100
AcDbEntity
8
0
100
AcDbPolyline
90
12
70
1
43
0.0
10
1.8096284242762191
20
-96.188423188867944
42
-0.03030992130657852
10
5.1289759517242643
20
-99.677965298512191
42
-0.36491865331083739
10
5.1289759517243017
20
-100.32203470148733
42
-0.030309921306578076
10
1.8096284242761929
20
-103.81157681113159
42
-0.17058465086892147
10
1.5058301990054557
20
-103.94429331177054
42
-0.036994003883155831
10
-1.5058301990044685
20
-103.94429331177056
42
-0.17058465086892283
10
-1.8096284242752807
20
-103.8115768111316
42
-0.030309921306572965
10
-5.1289759517233255
20
-100.32203470148738
42
-0.36491865331084505
10
-5.1289759517233264
20
-99.677965298512149
42
-0.030309921306579855
10
-1.8096284242752556
20
-96.188423188867944
42
-0.17058465086893254
10
-1.5058301990044849
20
-96.055706688228994
42
-0.036994003883148829
10
1.5058301990054959
20
-96.055706688229066
42
-0.17058465086892008
0
LWPOLYLINE
5
174
100
AcDbEntity
8
0
100
AcDbPolyline
90
4
70
1
43
0.0
10
-18.499999999999339
20
57.134657371997115
10
-18.49999999999952
20
41.134657371997108
42
0.99999999999999989
10
-15.999999999999519
20
41.134657371997072
10
-15.999999999999339
20
57.134657371997093
42
0.99999999999999989
0
LWPOLYLINE
5
175
100
AcDbEntity
8
0
100
AcDbPolyline
90
4
70
1
43
0.0
10
9.0000000000004228
20
62.100001149029666
10
-8.9999999999995737
20
62.100001149029715
42
0.99999999999999989
10
-8.9999999999995897
20
59.600001149029751
10
9.0000000000004103
20
59.600001149029666
42
0.99999999999999989
0
LWPOLYLINE
5
176
100
AcDbEntity
8
0
100
AcDbPolyline
90
4
70
1
43
0.0
10
9.0000000000004228
20
42.100001149029666
10
-8.9999999999995737
20
42.100001149029715
42
0.99999999999999989
10
-8.9999999999995897
20
39.600001149029751
10
9.0000000000004103
20
39.600001149029666
42
0.99999999999999989
0
LWPOLYLINE
5
177
100
AcDbEntity
8
0
100
AcDbPolyline
90
4
70
1
43
0.0
10
9.0000000000004228
20
47.100001149029666
10
-8.9999999999995737
20
47.100001149029715
42
0.99999999999999989
10
-8.9999999999995897
20
44.600001149029751
10
9.0000000000004103
20
44.600001149029666
42
0.99999999999999989
0
LWPOLYLINE
5
178
100
AcDbEntity
8
0
100
AcDbPolyline
90
4
70
1
43
0.0
10
9.0000000000004228
20
67.100001149029666
10
-8.9999999999995737
20
67.100001149029708
42
0.99999999999999989
10
-8.9999999999995897
20
64.600001149029751
10
9.0000000000004103
20
64.600001149029666
42
0.99999999999999989
0
LWPOLYLINE
5
179
100
AcDbEntity
8
0
100
AcDbPolyline
90
4
70
1
43
0.0
10
18.500000000000021
20
41.134657371996909
10
18.500000000000021
20
57.134657371996916
42
0.99999999999999989
10
16.000000000000021
20
57.134657371996916
10
16.000000000000021
20
41.134657371996909
42
0.99999999999999989
0
LWPOLYLINE
5
180
100
AcDbEntity
8
0
100
AcDbPolyline
90
4
70
1
43
0.0
10
9.0000000000004228
20
57.100001149029666
10
-8.9999999999995737
20
57.100001149029715
42
0.99999999999999989
10
-8.9999999999995897
20
54.600001149029751
10
9.0000000000004103
20
54.600001149029666
42
0.99999999999999989
0
LWPOLYLINE
5
181
100
AcDbEntity
8
0
100
AcDbPolyline
90
4
70
1
43
0.0
10
9.0000000000004228
20
37.100001149029666
10
-8.9999999999995737
20
37.100001149029715
42
0.99999999999999989
10
-8.9999999999995897
20
34.600001149029751
10
9.0000000000004103
20
34.600001149029666
42
0.99999999999999989
0
LWPOLYLINE
5
182
100
AcDbEntity
8
0
100
AcDbPolyline
90
4
70
1
43
0.0
10
9.0000000000004228
20
52.100001149029666
10
-8.9999999999995737
20
52.100001149029715
42
0.99999999999999989
10
-8.9999999999995897
20
49.600001149029751
10
9.0000000000004103
20
49.600001149029666
42
0.99999999999999989
0
LWPOLYLINE
5
183
100
AcDbEntity
8
0
100
AcDbPolyline
90
4
70
1
43
0.0
10
-8.9999999999995897
20
69.600001149029751
10
9.0000000000004103
20
69.600001149029666
42
0.99999999999999989
10
9.0000000000004245
20
72.100001149029666
10
-8.9999999999995737
20
72.100001149029708
42
0.99999999999999989
0
LWPOLYLINE
5
184
100
AcDbEntity
8
0
100
AcDbPolyline
90
12
70
1
43
0.0
10
14.83777784910701
20
-24.625684360866245
42
-0.45017277104508974
10
14.837777849106971
20
-25.374315639133293
42
-0.033647086938702588
10
12.456376274815074
20
-27.213134968602219
42
0.39881974636294393
10
12.305150440843246
20
-27.88449320708802
42
-0.0056597264022482238
10
12.802624507322122
20
-28.741184095254173
42
0.43569777893696482
10
13.514995863789368
20
-28.911155474417455
42
0.056895971309118637
10
17.74063110775327
20
-25.342966194111018
42
0.39702851959623126
10
17.740631107753259
20
-24.657033805888542
42
0.056895971309118269
10
13.514995863789368
20
-21.088844525582129
42
0.43569777893696832
10
12.802624507321953
20
-21.258815904745688
42
-0.00565972640224456
10
12.305150440843459
20
-22.115506792911212
42
0.39881974636295364
10
12.45637627481511
20
-22.786865031397305
42
-0.033647086938702588
0
LWPOLYLINE
5
185
100
AcDbEntity
8
0
100
AcDbPolyline
90
12
70
1
43
0.0
10
-14.837777849106516
20
-50.3743156391333
42
-0.45017277104508435
10
-14.837777849106505
20
-49.625684360866245
42
-0.033647086938706258
10
-12.456376274814263
20
-47.786865031397127
42
0.39881974636295681
10
-12.305150440842596
20
-47.115506792911077
42
-0.0056597264022470025
10
-12.802624507321287
20
-46.258815904745191
42
0.4356977789369692
10
-13.514995863788537
20
-46.088844525581898
42
0.056895971309121482
10
-17.740631107752765
20
-49.657033805888545
42
0.3970285195962312
10
-17.740631107752762
20
-50.342966194111014
42
0.0568959713091216
10
-13.514995863788517
20
-53.911155474417676
42
0.43569777893698097
10
-12.802624507321326
20
-53.741184095254468
42
-0.0056597264022470025
10
-12.305150440842619
20
-52.884493207088568
42
0.39881974636295153
10
-12.456376274814145
20
-52.213134968602397
42
-0.033647086938707146
0
LWPOLYLINE
5
186
100
AcDbEntity
8
0
100
AcDbPolyline
90
12
70
1
43
0.0
10
-14.837777849106509
20
-25.374315639133304
42
-0.45017277104508818
10
-14.837777849106512
20
-24.625684360866288
42
-0.033647086938707368
10
-12.456376274814261
20
-22.78686503139712
42
0.39881974636295431
10
-12.305150440842429
20
-22.115506792911326
42
-0.0056597264022482238
10
-12.802624507321291
20
-21.258815904745187
42
0.43569777893697181
10
-13.514995863788545
20
-21.088844525581898
42
0.056895971309122467
10
-17.740631107752769
20
-24.657033805888545
42
0.39702851959622842
10
-17.740631107752755
20
-25.342966194111014
42
0.056895971309122467
10
-13.514995863788524
20
-28.911155474417676
42
0.43569777893696338
10
-12.802624507321239
20
-28.741184095254354
42
-0.0056597264022470025
10
-12.305150440842617
20
-27.884493207088564
42
0.39881974636295908
10
-12.456376274814303
20
-27.213134968602446
42
-0.033647086938706702
0
LWPOLYLINE
5
187
100
AcDbEntity
8
0
100
AcDbPolyline
90
12
70
1
43
0.0
10
8.5143357259173396
20
-87.957901739435954
42
-0.65338616449655174
10
8.5143357259179151
20
-87.042098260563336
42
-0.0026258360447621062
10
8.9169459670652156
20
-86.86804832588615
42
0.65329423051604096
10
8.9266822230784957
20
-85.952348368566305
42
-0.0082400140499574153
10
7.74137834533862
20
-85.393558277640196
42
0.22367187923414469
10
7.3154094117022943
20
-85.386353253384272
42
0.021337321907857594
10
3.9800092043887521
20
-87.063267808835135
42
0.58744461803232051
10
3.9800092043887592
20
-87.936732191164424
42
0.021337321907856942
10
7.3154094117022943
20
-89.613646746615274
42
0.22367187923415041
10
7.7413783453384628
20
-89.606441722359421
42
-0.0082400140499583035
10
8.9266822230784264
20
-89.047651631433311
42
0.65329423051603974
10
8.9169459670654518
20
-88.131951674113495
42
-0.0026258360447673243
0
ENDSEC
0
SECTION
2
OBJECTS
0
DICTIONARY
5
C
100
AcDbDictionary
3
ACAD_GROUP
350
D
3
ACAD_MLINESTYLE
350
17
0
DICTIONARY
5
D
100
AcDbDictionary
0
DICTIONARY
5
1A
330
C
100
AcDbDictionary
0
DICTIONARY
5
17
100
AcDbDictionary
0
ENDSEC
0
EOF
