0
SECTION
2
HEADER
9
$INSUNITS
70
4
9
$ACADVER
1
AC1014
9
$HANDSEED
5
FFFF
0
ENDSEC
0
SECTION
2
TABLES
0
TABLE
2
VPORT
5
8
100
AcDbSymbolTable
0
ENDTAB
0
TABLE
2
LTYPE
5
5
100
AcDbSymbolTable
0
LTYPE
5
14
100
AcDbSymbolTableRecord
100
AcDbLinetypeTableRecord
2
BYBLOCK
70
0
0
LTYPE
5
15
100
AcDbSymbolTableRecord
100
AcDbLinetypeTableRecord
2
BYLAYER
70
0
0
ENDTAB
0
TABLE
2
LAYER
5
2
100
AcDbSymbolTable
70
2
0
LAYER
5
50
100
AcDbSymbolTableRecord
100
AcDbLayerTableRecord
2
0
70
0
6
CONTINUOUS
0
ENDTAB
0
TABLE
2
STYLE
5
3
100
AcDbSymbolTable
70
1
0
STYLE
5
11
100
AcDbSymbolTableRecord
100
AcDbTextStyleTableRecord
2
STANDARD
70
0
0
ENDTAB
0
TABLE
2
VIEW
5
6
100
AcDbSymbolTable
70
0
0
ENDTAB
0
TABLE
2
UCS
5
7
100
AcDbSymbolTable
70
0
0
ENDTAB
0
TABLE
2
APPID
5
9
100
AcDbSymbolTable
70
2
0
APPID
5
12
100
AcDbSymbolTableRecord
100
AcDbRegAppTableRecord
2
ACAD
70
0
0
ENDTAB
0
TABLE
2
DIMSTYLE
5
A
100
AcDbSymbolTable
70
1
0
ENDTAB
0
TABLE
2
BLOCK_RECORD
5
1
100
AcDbSymbolTable
70
1
0
BLOCK_RECORD
5
1F
100
AcDbSymbolTableRecord
100
AcDbBlockTableRecord
2
*MODEL_SPACE
0
BLOCK_RECORD
5
1B
100
AcDbSymbolTableRecord
100
AcDbBlockTableRecord
2
*PAPER_SPACE
0
ENDTAB
0
ENDSEC
0
SECTION
2
BLOCKS
0
BLOCK
5
20
100
AcDbEntity
100
AcDbBlockBegin
2
*MODEL_SPACE
0
ENDBLK
5
21
100
AcDbEntity
100
AcDbBlockEnd
0
BLOCK
5
1C
100
AcDbEntity
100
AcDbBlockBegin
2
*PAPER_SPACE
0
ENDBLK
5
1D
100
AcDbEntity
100
AcDbBlockEnd
0
ENDSEC
0
SECTION
2
ENTITIES
0
ARC
5
100
100
AcDbEntity
8
0
100
AcDbCircle
10
117.10019521919864
20
0.99999999999999911
30
0
40
3
210
0
220
0
230
1
100
AcDbArc
50
-90.000000000000313
51
7.1642732744636621
0
ARC
5
101
100
AcDbEntity
8
0
100
AcDbCircle
10
86.925621862105942
20
-2.7928209996063806
30
0
40
33.412010265972619
210
0
220
-0
230
1
100
AcDbArc
50
7.1642732744636621
51
74.97589004482397
0
SPLINE
5
102
100
AcDbEntity
8
0
100
AcDbSpline
70
0
71
3
72
10
73
6
74
0
42
0.000000001
43
0.0000000001
44
0.0000000001
40
0
40
0
40
0
40
0
40
0.20064594938180258
40
0.20064594938180258
40
0.40129189876360316
40
0.40129189876360316
40
0.40129189876360316
40
0.40129189876360316
10
91.621196818135786
20
30
30
0
10
92.290016649408457
20
30
30
0
10
92.958117215435124
20
29.956139789108928
30
0
10
94.284276420836477
20
29.781263750888559
30
0
10
94.940908876084251
20
29.650435989538728
30
0
10
95.586866325506307
20
29.477060846453661
30
0
0
LINE
5
103
100
AcDbEntity
8
0
100
AcDbLine
10
91.621196818135786
20
30
30
0
11
90.099965289029626
21
30
31
0
0
LINE
5
104
100
AcDbEntity
8
0
100
AcDbLine
10
90.099965289029626
20
30
30
0
11
90.099965289029626
21
28.707106781186631
31
0
0
ARC
5
105
100
AcDbEntity
8
0
100
AcDbCircle
10
89.746411898436435
20
28.35355339059328
30
0
40
0.49999999999999589
210
0
220
0
230
1
100
AcDbArc
50
-134.99999999999798
51
45.000000000012946
0
LINE
5
106
100
AcDbEntity
8
0
100
AcDbLine
10
89.392858507843172
20
27.999999999999993
30
0
11
86.035331309492747
21
28.000000000000004
31
0
0
ARC
5
107
100
AcDbEntity
8
0
100
AcDbCircle
10
85.681777918899485
20
28.353553390593294
30
0
40
0.50000000000001166
210
0
220
0
230
1
100
AcDbArc
50
135.00000000001668
51
314.99999999999773
0
LINE
5
108
100
AcDbEntity
8
0
100
AcDbLine
10
85.328224528306094
20
28.707106781186479
30
0
11
85.328224528306123
21
30
31
0
0
LINE
5
109
100
AcDbEntity
8
0
100
AcDbLine
10
85.328224528306123
20
30
30
0
11
77.328224528306123
21
30
31
0
0
LINE
5
110
100
AcDbEntity
8
0
100
AcDbLine
10
77.328224528306123
20
30
30
0
11
77.328224528306123
21
28.70710678118661
31
0
0
ARC
5
111
100
AcDbEntity
8
0
100
AcDbCircle
10
76.974671137712903
20
28.353553390593284
30
0
40
0.499999999999999
210
0
220
0
230
1
100
AcDbArc
50
-134.99999999999653
51
45.000000000008633
0
LINE
5
112
100
AcDbEntity
8
0
100
AcDbLine
10
76.621117747119655
20
27.999999999999993
30
0
11
75.328224528306123
21
28
31
0
0
LINE
5
113
100
AcDbEntity
8
0
100
AcDbLine
10
75.328224528306123
20
28
30
0
11
75.328224528306123
21
0
31
0
0
LINE
5
114
100
AcDbEntity
8
0
100
AcDbLine
10
75.328224528306123
20
0
30
0
11
76.621117747119612
21
-1.3877787807814457e-16
31
0
0
ARC
5
115
100
AcDbEntity
8
0
100
AcDbCircle
10
76.974671137712889
20
-0.3535533905932785
30
0
40
0.49999999999999756
210
-0
220
0
230
1
100
AcDbArc
50
-45.000000000005855
51
134.99999999999986
0
LINE
5
116
100
AcDbEntity
8
0
100
AcDbLine
10
77.328224528306123
20
-0.70710678118658499
30
0
11
77.328224528306123
21
-2.0000000000000018
31
0
0
LINE
5
117
100
AcDbEntity
8
0
100
AcDbLine
10
77.328224528306123
20
-2.0000000000000018
30
0
11
85.328224528306123
21
-2.0000000000000018
31
0
0
LINE
5
118
100
AcDbEntity
8
0
100
AcDbLine
10
85.328224528306123
20
-2.0000000000000018
30
0
11
85.328224528306123
21
-0.70710678118656056
31
0
0
ARC
5
119
100
AcDbEntity
8
0
100
AcDbCircle
10
85.681777918899371
20
-0.35355339059327839
30
0
40
0.50000000000000522
210
0
220
-0
230
1
100
AcDbArc
50
45.000000000000419
51
225.00000000000276
0
LINE
5
120
100
AcDbEntity
8
0
100
AcDbLine
10
86.035331309492648
20
3.4694469519536142e-15
30
0
11
91.192893218813524
21
-4.163336342344337e-16
31
0
0
ARC
5
121
100
AcDbEntity
8
0
100
AcDbCircle
10
91.546446609406772
20
-0.35355339059328023
30
0
40
0.49999999999998884
210
-0
220
0
230
1
100
AcDbArc
50
-45.000000000007482
51
134.99999999999747
0
LINE
5
122
100
AcDbEntity
8
0
100
AcDbLine
10
91.899999999999991
20
-0.7071067811865922
30
0
11
91.899999999999991
21
-2
31
0
0
LINE
5
123
100
AcDbEntity
8
0
100
AcDbLine
10
91.899999999999991
20
-2
30
0
11
117.10019521919862
21
-2.0000000000000009
31
0
0
CIRCLE
5
124
100
AcDbEntity
8
0
100
AcDbCircle
10
117.10019521919864
20
0.99999999999999911
30
0
40
1.5499999999999934
210
0
220
-0
230
1
0
LWPOLYLINE
5
125
100
AcDbEntity
8
0
100
AcDbPolyline
90
4
70
1
43
0.0
10
93.886061951567427
20
15.780222215595199
42
-0.99999999999999989
10
93.886061951567427
20
17.880222215595197
10
103.88606195156743
20
17.880222215595197
42
-0.99999999999999989
10
103.88606195156743
20
15.780222215595199
0
LWPOLYLINE
5
126
100
AcDbEntity
8
0
100
AcDbPolyline
90
14
70
1
43
0.0
10
107.67798194500637
20
13.648423547646818
42
-0.99999999999999989
10
109.28667527555623
20
12.298569567305098
42
-0.22169466264293999
10
103.88606195156743
20
9.7802222155952006
42
-0.46264554397234114
10
102.84989201992192
20
11.000080605890609
42
-0.15039335877219467
10
98.886061951567427
20
9.7802222155952148
42
-0.46264554397234647
10
97.849892019921924
20
11.000080605890608
42
-0.15039335877219298
10
93.886061951567513
20
9.7802222155952059
42
-0.99999999999999989
10
93.88606195156747
20
11.88022221559519
42
0.22169466264293988
10
97.677981945006408
20
13.648423547646855
42
-0.99999999999999989
10
99.286675275556263
20
12.298569567305131
42
-0.020063049798298153
10
98.906061951567438
20
11.880262619800504
42
0.22063515067732786
10
102.67798194500637
20
13.648423547646818
42
-0.99999999999999989
10
104.28667527555625
20
12.298569567305119
42
-0.020063049798297043
10
103.90606195156744
20
11.880262619800511
42
0.22063515067732964
0
ENDSEC
0
SECTION
2
OBJECTS
0
DICTIONARY
5
C
100
AcDbDictionary
3
ACAD_GROUP
350
D
3
ACAD_MLINESTYLE
350
17
0
DICTIONARY
5
D
100
AcDbDictionary
0
DICTIONARY
5
1A
330
C
100
AcDbDictionary
0
DICTIONARY
5
17
100
AcDbDictionary
0
ENDSEC
0
EOF
