0
SECTION
2
HEADER
9
$INSUNITS
70
4
9
$ACADVER
1
AC1014
9
$HANDSEED
5
FFFF
0
ENDSEC
0
SECTION
2
TABLES
0
TABLE
2
VPORT
5
8
100
AcDbSymbolTable
0
ENDTAB
0
TABLE
2
LTYPE
5
5
100
AcDbSymbolTable
0
LTYPE
5
14
100
AcDbSymbolTableRecord
100
AcDbLinetypeTableRecord
2
BYBLOCK
70
0
0
LTYPE
5
15
100
AcDbSymbolTableRecord
100
AcDbLinetypeTableRecord
2
BYLAYER
70
0
0
ENDTAB
0
TABLE
2
LAYER
5
2
100
AcDbSymbolTable
70
2
0
LAYER
5
50
100
AcDbSymbolTableRecord
100
AcDbLayerTableRecord
2
0
70
0
6
CONTINUOUS
0
ENDTAB
0
TABLE
2
STYLE
5
3
100
AcDbSymbolTable
70
1
0
STYLE
5
11
100
AcDbSymbolTableRecord
100
AcDbTextStyleTableRecord
2
STANDARD
70
0
0
ENDTAB
0
TABLE
2
VIEW
5
6
100
AcDbSymbolTable
70
0
0
ENDTAB
0
TABLE
2
UCS
5
7
100
AcDbSymbolTable
70
0
0
ENDTAB
0
TABLE
2
APPID
5
9
100
AcDbSymbolTable
70
2
0
APPID
5
12
100
AcDbSymbolTableRecord
100
AcDbRegAppTableRecord
2
ACAD
70
0
0
ENDTAB
0
TABLE
2
DIMSTYLE
5
A
100
AcDbSymbolTable
70
1
0
ENDTAB
0
TABLE
2
BLOCK_RECORD
5
1
100
AcDbSymbolTable
70
1
0
BLOCK_RECORD
5
1F
100
AcDbSymbolTableRecord
100
AcDbBlockTableRecord
2
*MODEL_SPACE
0
BLOCK_RECORD
5
1B
100
AcDbSymbolTableRecord
100
AcDbBlockTableRecord
2
*PAPER_SPACE
0
ENDTAB
0
ENDSEC
0
SECTION
2
BLOCKS
0
BLOCK
5
20
100
AcDbEntity
100
AcDbBlockBegin
2
*MODEL_SPACE
0
ENDBLK
5
21
100
AcDbEntity
100
AcDbBlockEnd
0
BLOCK
5
1C
100
AcDbEntity
100
AcDbBlockBegin
2
*PAPER_SPACE
0
ENDBLK
5
1D
100
AcDbEntity
100
AcDbBlockEnd
0
ENDSEC
0
SECTION
2
ENTITIES
0
CIRCLE
5
100
100
AcDbEntity
8
0
100
AcDbCircle
10
13.999999999979352
20
11.450000000000005
30
0
40
1.25
210
0
220
-0
230
1
0
CIRCLE
5
101
100
AcDbEntity
8
0
100
AcDbCircle
10
-14.000000000020654
20
11.449999999999982
30
0
40
1.25
210
0
220
-0
230
1
0
CIRCLE
5
102
100
AcDbEntity
8
0
100
AcDbCircle
10
-12.000000000020655
20
21.261102550927976
30
0
40
1.2499999999999978
210
0
220
-0
230
1
0
CIRCLE
5
103
100
AcDbEntity
8
0
100
AcDbCircle
10
11.999999999979348
20
21.261102550927976
30
0
40
1.2499999999999978
210
0
220
-0
230
1
0
CIRCLE
5
104
100
AcDbEntity
8
0
100
AcDbCircle
10
-14.000000000020655
20
24.54999999999999
30
0
40
1.25
210
0
220
-0
230
1
0
CIRCLE
5
105
100
AcDbEntity
8
0
100
AcDbCircle
10
13.999999999979346
20
24.54999999999999
30
0
40
1.25
210
0
220
-0
230
1
0
CIRCLE
5
106
100
AcDbEntity
8
0
100
AcDbCircle
10
-6.0000000000206537
20
23.327723000000006
30
0
40
1.5500000000000003
210
0
220
-0
230
1
0
CIRCLE
5
107
100
AcDbEntity
8
0
100
AcDbCircle
10
-2.0654865621680396e-11
20
23.327723000000002
30
0
40
3.2000000000000006
210
0
220
-0
230
1
0
CIRCLE
5
108
100
AcDbEntity
8
0
100
AcDbCircle
10
5.9999999999793463
20
23.327723000000002
30
0
40
1.5500000000000003
210
0
220
-0
230
1
0
CIRCLE
5
109
100
AcDbEntity
8
0
100
AcDbCircle
10
10.249999999979361
20
14.049999999999994
30
0
40
1.3
210
0
220
-0
230
1
0
ARC
5
110
100
AcDbEntity
8
0
100
AcDbCircle
10
15.353553390572621
20
28.353553390593277
30
0
40
0.50000000000000366
210
0
220
0
230
1
100
AcDbArc
50
135
51
314.99999999999983
0
LINE
5
111
100
AcDbEntity
8
0
100
AcDbLine
10
14.999999999979345
20
28.707106781186553
30
0
11
14.999999999979345
21
30
31
0
0
LINE
5
112
100
AcDbEntity
8
0
100
AcDbLine
10
14.999999999979345
20
30
30
0
11
8.9999999999793463
21
30
31
0
0
LINE
5
113
100
AcDbEntity
8
0
100
AcDbLine
10
8.9999999999793463
20
30
30
0
11
8.9999999999793463
21
28.707106781186546
31
0
0
ARC
5
114
100
AcDbEntity
8
0
100
AcDbCircle
10
8.6464466093860732
20
28.35355339059327
30
0
40
0.50000000000000056
210
0
220
0
230
1
100
AcDbArc
50
-135.00000000000102
51
45.000000000000291
0
LINE
5
115
100
AcDbEntity
8
0
100
AcDbLine
10
8.2928932187927948
20
28.000000000000004
30
0
11
-8.2928932188341022
21
28.000000000000004
31
0
0
ARC
5
116
100
AcDbEntity
8
0
100
AcDbCircle
10
-8.6464466094273824
20
28.35355339059327
30
0
40
0.49999999999999822
210
0
220
0
230
1
100
AcDbArc
50
134.99999999999972
51
315.00000000000119
0
LINE
5
117
100
AcDbEntity
8
0
100
AcDbLine
10
-9.0000000000206555
20
28.707106781186546
30
0
11
-9.0000000000206555
21
30
31
0
0
LINE
5
118
100
AcDbEntity
8
0
100
AcDbLine
10
-9.0000000000206555
20
30
30
0
11
-15.000000000020655
21
30
31
0
0
LINE
5
119
100
AcDbEntity
8
0
100
AcDbLine
10
-15.000000000020655
20
30
30
0
11
-15.000000000020655
21
28.70710678118655
31
0
0
ARC
5
120
100
AcDbEntity
8
0
100
AcDbCircle
10
-15.35355339061393
20
28.353553390593277
30
0
40
0.499999999999999
210
0
220
0
230
1
100
AcDbArc
50
-135
51
44.999999999999858
0
LINE
5
121
100
AcDbEntity
8
0
100
AcDbLine
10
-15.707106781207203
20
28.000000000000004
30
0
11
-17.000000000020655
21
28.000000000000004
31
0
0
LINE
5
122
100
AcDbEntity
8
0
100
AcDbLine
10
-17.000000000020655
20
28.000000000000004
30
0
11
-17.000000000020655
21
7.9999999999999982
31
0
0
LINE
5
123
100
AcDbEntity
8
0
100
AcDbLine
10
-17.000000000020655
20
7.9999999999999982
30
0
11
-15.707106781207203
21
7.9999999999999991
31
0
0
ARC
5
124
100
AcDbEntity
8
0
100
AcDbCircle
10
-15.353553390613929
20
7.6464466094067252
30
0
40
0.49999999999999983
210
-0
220
0
230
1
100
AcDbArc
50
-45.00000000000005
51
135.00000000000009
0
LINE
5
125
100
AcDbEntity
8
0
100
AcDbLine
10
-15.000000000020655
20
7.2928932188134512
30
0
11
-15.000000000020655
21
5
31
0
0
LINE
5
126
100
AcDbEntity
8
0
100
AcDbLine
10
-15.000000000020655
20
5
30
0
11
-9.0000000000206555
21
5
31
0
0
LINE
5
127
100
AcDbEntity
8
0
100
AcDbLine
10
-9.0000000000206555
20
5
30
0
11
-9.0000000000206573
21
7.2928932188134468
31
0
0
ARC
5
128
100
AcDbEntity
8
0
100
AcDbCircle
10
-8.6464466094273824
20
7.6464466094067207
30
0
40
0.50000000000000056
210
0
220
-0
230
1
100
AcDbArc
50
45.000000000000931
51
224.99999999999991
0
LINE
5
129
100
AcDbEntity
8
0
100
AcDbLine
10
-8.2928932188341147
20
8
30
0
11
-3.7071067812017677
21
8
31
0
0
ARC
5
130
100
AcDbEntity
8
0
100
AcDbCircle
10
-3.3535533906097941
20
7.6464466094054266
30
0
40
0.50000000000000022
210
-0
220
0
230
1
100
AcDbArc
50
-45.000000000000099
51
134.99999999978937
0
LINE
5
131
100
AcDbEntity
8
0
100
AcDbLine
10
-3.0000000000165206
20
7.2928932188121518
30
0
11
-3.0000000000165206
21
5
31
0
0
LINE
5
132
100
AcDbEntity
8
0
100
AcDbLine
10
-3.0000000000165206
20
5
30
0
11
2.9999999999834803
21
5.0000000000025979
31
0
0
LINE
5
133
100
AcDbEntity
8
0
100
AcDbLine
10
2.9999999999834803
20
5.0000000000025979
30
0
11
2.9999999999814948
21
7.2928932188058671
31
0
0
ARC
5
134
100
AcDbEntity
8
0
100
AcDbCircle
10
3.3535533905684827
20
7.6464466094054266
30
0
40
0.49999999999999983
210
0
220
-0
230
1
100
AcDbArc
50
45.000000000210363
51
225.00000000101863
0
LINE
5
135
100
AcDbEntity
8
0
100
AcDbLine
10
3.7071067811604581
20
7.9999999999999982
30
0
11
8.2928932187928019
21
7.9999999999999982
31
0
0
ARC
5
136
100
AcDbEntity
8
0
100
AcDbCircle
10
8.6464466093860715
20
7.6464466094067181
30
0
40
0.49999999999999983
210
-0
220
0
230
1
100
AcDbArc
50
-45.000000000000306
51
134.99999999999915
0
LINE
5
137
100
AcDbEntity
8
0
100
AcDbLine
10
8.9999999999793427
20
7.2928932188134432
30
0
11
8.999999999979341
21
4.9999999999999991
31
0
0
LINE
5
138
100
AcDbEntity
8
0
100
AcDbLine
10
8.999999999979341
20
4.9999999999999991
30
0
11
14.999999999979341
21
4.9999999999999982
31
0
0
LINE
5
139
100
AcDbEntity
8
0
100
AcDbLine
10
14.999999999979341
20
4.9999999999999982
30
0
11
14.999999999979345
21
7.2928932188134565
31
0
0
ARC
5
140
100
AcDbEntity
8
0
100
AcDbCircle
10
15.353553390572623
20
7.6464466094067269
30
0
40
0.50000000000000056
210
0
220
-0
230
1
100
AcDbArc
50
44.999999999999858
51
224.99999999999935
0
LINE
5
141
100
AcDbEntity
8
0
100
AcDbLine
10
15.707106781165898
20
8
30
0
11
16.999999999979348
21
7.9999999999999982
31
0
0
LINE
5
142
100
AcDbEntity
8
0
100
AcDbLine
10
16.999999999979348
20
7.9999999999999982
30
0
11
16.999999999979348
21
28.000000000000004
31
0
0
LINE
5
143
100
AcDbEntity
8
0
100
AcDbLine
10
16.999999999979348
20
28.000000000000004
30
0
11
15.707106781165896
21
28
31
0
0
ARC
5
144
100
AcDbEntity
8
0
100
AcDbCircle
10
-7.4964466094273652
20
17.896446609406716
30
0
40
0.49999999999999983
210
0
220
-0
230
1
100
AcDbArc
50
44.999999999999709
51
224.99999999999943
0
LINE
5
145
100
AcDbEntity
8
0
100
AcDbLine
10
-7.1428932188340886
20
18.249999999999989
30
0
11
7.1428932187927821
21
18.249999999999989
31
0
0
ARC
5
146
100
AcDbEntity
8
0
100
AcDbCircle
10
7.4964466093860569
20
17.896446609406716
30
0
40
0.499999999999999
210
0
220
0
230
1
100
AcDbArc
50
-44.999999999996184
51
135.00000000000017
0
LINE
5
147
100
AcDbEntity
8
0
100
AcDbLine
10
7.8499999999793522
20
17.542893218813468
30
0
11
7.8499999999793548
21
10.557106781186512
31
0
0
ARC
5
148
100
AcDbEntity
8
0
100
AcDbCircle
10
7.4964466093860596
20
10.203553390593264
30
0
40
0.50000000000000133
210
0
220
0
230
1
100
AcDbArc
50
-134.9999999999998
51
44.999999999996184
0
LINE
5
149
100
AcDbEntity
8
0
100
AcDbLine
10
7.1428932187927856
20
9.8499999999999872
30
0
11
-7.1428932188340948
21
9.849999999999989
31
0
0
ARC
5
150
100
AcDbEntity
8
0
100
AcDbCircle
10
-7.4964466094273696
20
10.203553390593264
30
0
40
0.49999999999999822
210
0
220
0
230
1
100
AcDbArc
50
135.00000000000071
51
315
0
LINE
5
151
100
AcDbEntity
8
0
100
AcDbLine
10
-7.8500000000206462
20
10.557106781186532
30
0
11
-7.8500000000206418
21
17.542893218813447
31
0
0
CIRCLE
5
152
100
AcDbEntity
8
0
100
AcDbCircle
10
-10.25000000002067
20
14.049999999999995
30
0
40
1.3000000000000012
210
0
220
0
230
1
0
ENDSEC
0
SECTION
2
OBJECTS
0
DICTIONARY
5
C
100
AcDbDictionary
3
ACAD_GROUP
350
D
3
ACAD_MLINESTYLE
350
17
0
DICTIONARY
5
D
100
AcDbDictionary
0
DICTIONARY
5
1A
330
C
100
AcDbDictionary
0
DICTIONARY
5
17
100
AcDbDictionary
0
ENDSEC
0
EOF
